<svg xmlns="http://www.w3.org/2000/svg" xmlns:xlink="http://www.w3.org/1999/xlink" width="600" height="400" viewBox="0 0 2400 1600">
<defs>
  <clipPath id="clip820">
    <rect x="0" y="0" width="2400" height="1600"></rect>
  </clipPath>
</defs>
<path clip-path="url(#clip820)" d="M0 1600 L2400 1600 L2400 8.88178e-14 L0 8.88178e-14  Z" fill="#ffffff" fill-rule="evenodd" fill-opacity="1"></path>
<defs>
  <clipPath id="clip821">
    <rect x="480" y="0" width="1681" height="1600"></rect>
  </clipPath>
</defs>
<path clip-path="url(#clip820)" d="M212.459 1423.18 L2352.76 1423.18 L2352.76 123.472 L212.459 123.472  Z" fill="#ffffff" fill-rule="evenodd" fill-opacity="1"></path>
<defs>
  <clipPath id="clip822">
    <rect x="212" y="123" width="2141" height="1301"></rect>
  </clipPath>
</defs>
<polyline clip-path="url(#clip822)" style="stroke:#000000; stroke-linecap:round; stroke-linejoin:round; stroke-width:2; stroke-opacity:0.1; fill:none" points="262.836,1423.18 262.836,123.472 "></polyline>
<polyline clip-path="url(#clip822)" style="stroke:#000000; stroke-linecap:round; stroke-linejoin:round; stroke-width:2; stroke-opacity:0.1; fill:none" points="772.722,1423.18 772.722,123.472 "></polyline>
<polyline clip-path="url(#clip822)" style="stroke:#000000; stroke-linecap:round; stroke-linejoin:round; stroke-width:2; stroke-opacity:0.1; fill:none" points="1282.61,1423.18 1282.61,123.472 "></polyline>
<polyline clip-path="url(#clip822)" style="stroke:#000000; stroke-linecap:round; stroke-linejoin:round; stroke-width:2; stroke-opacity:0.1; fill:none" points="1792.49,1423.18 1792.49,123.472 "></polyline>
<polyline clip-path="url(#clip822)" style="stroke:#000000; stroke-linecap:round; stroke-linejoin:round; stroke-width:2; stroke-opacity:0.1; fill:none" points="2302.38,1423.18 2302.38,123.472 "></polyline>
<polyline clip-path="url(#clip820)" style="stroke:#000000; stroke-linecap:round; stroke-linejoin:round; stroke-width:4; stroke-opacity:1; fill:none" points="212.459,1423.18 2352.76,1423.18 "></polyline>
<polyline clip-path="url(#clip820)" style="stroke:#000000; stroke-linecap:round; stroke-linejoin:round; stroke-width:4; stroke-opacity:1; fill:none" points="262.836,1423.18 262.836,1404.28 "></polyline>
<polyline clip-path="url(#clip820)" style="stroke:#000000; stroke-linecap:round; stroke-linejoin:round; stroke-width:4; stroke-opacity:1; fill:none" points="772.722,1423.18 772.722,1404.28 "></polyline>
<polyline clip-path="url(#clip820)" style="stroke:#000000; stroke-linecap:round; stroke-linejoin:round; stroke-width:4; stroke-opacity:1; fill:none" points="1282.61,1423.18 1282.61,1404.28 "></polyline>
<polyline clip-path="url(#clip820)" style="stroke:#000000; stroke-linecap:round; stroke-linejoin:round; stroke-width:4; stroke-opacity:1; fill:none" points="1792.49,1423.18 1792.49,1404.28 "></polyline>
<polyline clip-path="url(#clip820)" style="stroke:#000000; stroke-linecap:round; stroke-linejoin:round; stroke-width:4; stroke-opacity:1; fill:none" points="2302.38,1423.18 2302.38,1404.28 "></polyline>
<path clip-path="url(#clip820)" d="M262.836 1454.1 Q259.225 1454.1 257.396 1457.66 Q255.59 1461.2 255.59 1468.33 Q255.59 1475.44 257.396 1479.01 Q259.225 1482.55 262.836 1482.55 Q266.47 1482.55 268.275 1479.01 Q270.104 1475.44 270.104 1468.33 Q270.104 1461.2 268.275 1457.66 Q266.47 1454.1 262.836 1454.1 M262.836 1450.39 Q268.646 1450.39 271.701 1455 Q274.78 1459.58 274.78 1468.33 Q274.78 1477.06 271.701 1481.67 Q268.646 1486.25 262.836 1486.25 Q257.025 1486.25 253.947 1481.67 Q250.891 1477.06 250.891 1468.33 Q250.891 1459.58 253.947 1455 Q257.025 1450.39 262.836 1450.39 Z" fill="#000000" fill-rule="nonzero" fill-opacity="1"></path><path clip-path="url(#clip820)" d="M747.421 1451.02 L765.777 1451.02 L765.777 1454.96 L751.703 1454.96 L751.703 1463.43 Q752.722 1463.08 753.74 1462.92 Q754.759 1462.73 755.777 1462.73 Q761.564 1462.73 764.944 1465.9 Q768.323 1469.08 768.323 1474.49 Q768.323 1480.07 764.851 1483.17 Q761.379 1486.25 755.06 1486.25 Q752.884 1486.25 750.615 1485.88 Q748.37 1485.51 745.962 1484.77 L745.962 1480.07 Q748.046 1481.2 750.268 1481.76 Q752.49 1482.32 754.967 1482.32 Q758.972 1482.32 761.31 1480.21 Q763.647 1478.1 763.647 1474.49 Q763.647 1470.88 761.31 1468.77 Q758.972 1466.67 754.967 1466.67 Q753.092 1466.67 751.217 1467.08 Q749.365 1467.5 747.421 1468.38 L747.421 1451.02 Z" fill="#000000" fill-rule="nonzero" fill-opacity="1"></path><path clip-path="url(#clip820)" d="M787.536 1454.1 Q783.925 1454.1 782.096 1457.66 Q780.291 1461.2 780.291 1468.33 Q780.291 1475.44 782.096 1479.01 Q783.925 1482.55 787.536 1482.55 Q791.17 1482.55 792.976 1479.01 Q794.805 1475.44 794.805 1468.33 Q794.805 1461.2 792.976 1457.66 Q791.17 1454.1 787.536 1454.1 M787.536 1450.39 Q793.346 1450.39 796.402 1455 Q799.481 1459.58 799.481 1468.33 Q799.481 1477.06 796.402 1481.67 Q793.346 1486.25 787.536 1486.25 Q781.726 1486.25 778.647 1481.67 Q775.592 1477.06 775.592 1468.33 Q775.592 1459.58 778.647 1455 Q781.726 1450.39 787.536 1450.39 Z" fill="#000000" fill-rule="nonzero" fill-opacity="1"></path><path clip-path="url(#clip820)" d="M1242.21 1481.64 L1249.85 1481.64 L1249.85 1455.28 L1241.54 1456.95 L1241.54 1452.69 L1249.81 1451.02 L1254.48 1451.02 L1254.48 1481.64 L1262.12 1481.64 L1262.12 1485.58 L1242.21 1485.58 L1242.21 1481.64 Z" fill="#000000" fill-rule="nonzero" fill-opacity="1"></path><path clip-path="url(#clip820)" d="M1281.57 1454.1 Q1277.95 1454.1 1276.13 1457.66 Q1274.32 1461.2 1274.32 1468.33 Q1274.32 1475.44 1276.13 1479.01 Q1277.95 1482.55 1281.57 1482.55 Q1285.2 1482.55 1287.01 1479.01 Q1288.83 1475.44 1288.83 1468.33 Q1288.83 1461.2 1287.01 1457.66 Q1285.2 1454.1 1281.57 1454.1 M1281.57 1450.39 Q1287.38 1450.39 1290.43 1455 Q1293.51 1459.58 1293.51 1468.33 Q1293.51 1477.06 1290.43 1481.67 Q1287.38 1486.25 1281.57 1486.25 Q1275.76 1486.25 1272.68 1481.67 Q1269.62 1477.06 1269.62 1468.33 Q1269.62 1459.58 1272.68 1455 Q1275.76 1450.39 1281.57 1450.39 Z" fill="#000000" fill-rule="nonzero" fill-opacity="1"></path><path clip-path="url(#clip820)" d="M1311.73 1454.1 Q1308.12 1454.1 1306.29 1457.66 Q1304.48 1461.2 1304.48 1468.33 Q1304.48 1475.44 1306.29 1479.01 Q1308.12 1482.55 1311.73 1482.55 Q1315.36 1482.55 1317.17 1479.01 Q1319 1475.44 1319 1468.33 Q1319 1461.2 1317.17 1457.66 Q1315.36 1454.1 1311.73 1454.1 M1311.73 1450.39 Q1317.54 1450.39 1320.59 1455 Q1323.67 1459.58 1323.67 1468.33 Q1323.67 1477.06 1320.59 1481.67 Q1317.54 1486.25 1311.73 1486.25 Q1305.92 1486.25 1302.84 1481.67 Q1299.78 1477.06 1299.78 1468.33 Q1299.78 1459.58 1302.84 1455 Q1305.92 1450.39 1311.73 1450.39 Z" fill="#000000" fill-rule="nonzero" fill-opacity="1"></path><path clip-path="url(#clip820)" d="M1752.1 1481.64 L1759.74 1481.64 L1759.74 1455.28 L1751.43 1456.95 L1751.43 1452.69 L1759.69 1451.02 L1764.37 1451.02 L1764.37 1481.64 L1772.01 1481.64 L1772.01 1485.58 L1752.1 1485.58 L1752.1 1481.64 Z" fill="#000000" fill-rule="nonzero" fill-opacity="1"></path><path clip-path="url(#clip820)" d="M1781.5 1451.02 L1799.85 1451.02 L1799.85 1454.96 L1785.78 1454.96 L1785.78 1463.43 Q1786.8 1463.08 1787.82 1462.92 Q1788.84 1462.73 1789.85 1462.73 Q1795.64 1462.73 1799.02 1465.9 Q1802.4 1469.08 1802.4 1474.49 Q1802.4 1480.07 1798.93 1483.17 Q1795.46 1486.25 1789.14 1486.25 Q1786.96 1486.25 1784.69 1485.88 Q1782.45 1485.51 1780.04 1484.77 L1780.04 1480.07 Q1782.12 1481.2 1784.35 1481.76 Q1786.57 1482.32 1789.04 1482.32 Q1793.05 1482.32 1795.39 1480.21 Q1797.72 1478.1 1797.72 1474.49 Q1797.72 1470.88 1795.39 1468.77 Q1793.05 1466.67 1789.04 1466.67 Q1787.17 1466.67 1785.29 1467.08 Q1783.44 1467.5 1781.5 1468.38 L1781.5 1451.02 Z" fill="#000000" fill-rule="nonzero" fill-opacity="1"></path><path clip-path="url(#clip820)" d="M1821.61 1454.1 Q1818 1454.1 1816.17 1457.66 Q1814.37 1461.2 1814.37 1468.33 Q1814.37 1475.44 1816.17 1479.01 Q1818 1482.55 1821.61 1482.55 Q1825.25 1482.55 1827.05 1479.01 Q1828.88 1475.44 1828.88 1468.33 Q1828.88 1461.2 1827.05 1457.66 Q1825.25 1454.1 1821.61 1454.1 M1821.61 1450.39 Q1827.42 1450.39 1830.48 1455 Q1833.56 1459.58 1833.56 1468.33 Q1833.56 1477.06 1830.48 1481.67 Q1827.42 1486.25 1821.61 1486.25 Q1815.8 1486.25 1812.72 1481.67 Q1809.67 1477.06 1809.67 1468.33 Q1809.67 1459.58 1812.72 1455 Q1815.8 1450.39 1821.61 1450.39 Z" fill="#000000" fill-rule="nonzero" fill-opacity="1"></path><path clip-path="url(#clip820)" d="M2266.07 1481.64 L2282.39 1481.64 L2282.39 1485.58 L2260.45 1485.58 L2260.45 1481.64 Q2263.11 1478.89 2267.69 1474.26 Q2272.3 1469.61 2273.48 1468.27 Q2275.72 1465.74 2276.6 1464.01 Q2277.51 1462.25 2277.51 1460.56 Q2277.51 1457.8 2275.56 1456.07 Q2273.64 1454.33 2270.54 1454.33 Q2268.34 1454.33 2265.89 1455.09 Q2263.46 1455.86 2260.68 1457.41 L2260.68 1452.69 Q2263.5 1451.55 2265.96 1450.97 Q2268.41 1450.39 2270.45 1450.39 Q2275.82 1450.39 2279.01 1453.08 Q2282.21 1455.77 2282.21 1460.26 Q2282.21 1462.39 2281.4 1464.31 Q2280.61 1466.2 2278.5 1468.8 Q2277.92 1469.47 2274.82 1472.69 Q2271.72 1475.88 2266.07 1481.64 Z" fill="#000000" fill-rule="nonzero" fill-opacity="1"></path><path clip-path="url(#clip820)" d="M2302.21 1454.1 Q2298.59 1454.1 2296.77 1457.66 Q2294.96 1461.2 2294.96 1468.33 Q2294.96 1475.44 2296.77 1479.01 Q2298.59 1482.55 2302.21 1482.55 Q2305.84 1482.55 2307.65 1479.01 Q2309.47 1475.44 2309.47 1468.33 Q2309.47 1461.2 2307.65 1457.66 Q2305.84 1454.1 2302.21 1454.1 M2302.21 1450.39 Q2308.02 1450.39 2311.07 1455 Q2314.15 1459.58 2314.15 1468.33 Q2314.15 1477.06 2311.07 1481.67 Q2308.02 1486.25 2302.21 1486.25 Q2296.4 1486.25 2293.32 1481.67 Q2290.26 1477.06 2290.26 1468.33 Q2290.26 1459.58 2293.32 1455 Q2296.4 1450.39 2302.21 1450.39 Z" fill="#000000" fill-rule="nonzero" fill-opacity="1"></path><path clip-path="url(#clip820)" d="M2332.37 1454.1 Q2328.76 1454.1 2326.93 1457.66 Q2325.12 1461.2 2325.12 1468.33 Q2325.12 1475.44 2326.93 1479.01 Q2328.76 1482.55 2332.37 1482.55 Q2336 1482.55 2337.81 1479.01 Q2339.64 1475.44 2339.64 1468.33 Q2339.64 1461.2 2337.81 1457.66 Q2336 1454.1 2332.37 1454.1 M2332.37 1450.39 Q2338.18 1450.39 2341.23 1455 Q2344.31 1459.58 2344.31 1468.33 Q2344.31 1477.06 2341.23 1481.67 Q2338.18 1486.25 2332.37 1486.25 Q2326.56 1486.25 2323.48 1481.67 Q2320.42 1477.06 2320.42 1468.33 Q2320.42 1459.58 2323.48 1455 Q2326.56 1450.39 2332.37 1450.39 Z" fill="#000000" fill-rule="nonzero" fill-opacity="1"></path><path clip-path="url(#clip820)" d="M1266.79 1518.52 L1272.68 1518.52 L1272.68 1547.77 L1290.15 1532.4 L1297.63 1532.4 L1278.72 1549.07 L1298.43 1568.04 L1290.79 1568.04 L1272.68 1550.63 L1272.68 1568.04 L1266.79 1568.04 L1266.79 1518.52 Z" fill="#000000" fill-rule="nonzero" fill-opacity="1"></path><polyline clip-path="url(#clip822)" style="stroke:#000000; stroke-linecap:round; stroke-linejoin:round; stroke-width:2; stroke-opacity:0.1; fill:none" points="212.459,1376.99 2352.76,1376.99 "></polyline>
<polyline clip-path="url(#clip822)" style="stroke:#000000; stroke-linecap:round; stroke-linejoin:round; stroke-width:2; stroke-opacity:0.1; fill:none" points="212.459,1083.71 2352.76,1083.71 "></polyline>
<polyline clip-path="url(#clip822)" style="stroke:#000000; stroke-linecap:round; stroke-linejoin:round; stroke-width:2; stroke-opacity:0.1; fill:none" points="212.459,790.431 2352.76,790.431 "></polyline>
<polyline clip-path="url(#clip822)" style="stroke:#000000; stroke-linecap:round; stroke-linejoin:round; stroke-width:2; stroke-opacity:0.1; fill:none" points="212.459,497.149 2352.76,497.149 "></polyline>
<polyline clip-path="url(#clip822)" style="stroke:#000000; stroke-linecap:round; stroke-linejoin:round; stroke-width:2; stroke-opacity:0.1; fill:none" points="212.459,203.868 2352.76,203.868 "></polyline>
<polyline clip-path="url(#clip820)" style="stroke:#000000; stroke-linecap:round; stroke-linejoin:round; stroke-width:4; stroke-opacity:1; fill:none" points="212.459,1423.18 212.459,123.472 "></polyline>
<polyline clip-path="url(#clip820)" style="stroke:#000000; stroke-linecap:round; stroke-linejoin:round; stroke-width:4; stroke-opacity:1; fill:none" points="212.459,1376.99 231.357,1376.99 "></polyline>
<polyline clip-path="url(#clip820)" style="stroke:#000000; stroke-linecap:round; stroke-linejoin:round; stroke-width:4; stroke-opacity:1; fill:none" points="212.459,1083.71 231.357,1083.71 "></polyline>
<polyline clip-path="url(#clip820)" style="stroke:#000000; stroke-linecap:round; stroke-linejoin:round; stroke-width:4; stroke-opacity:1; fill:none" points="212.459,790.431 231.357,790.431 "></polyline>
<polyline clip-path="url(#clip820)" style="stroke:#000000; stroke-linecap:round; stroke-linejoin:round; stroke-width:4; stroke-opacity:1; fill:none" points="212.459,497.149 231.357,497.149 "></polyline>
<polyline clip-path="url(#clip820)" style="stroke:#000000; stroke-linecap:round; stroke-linejoin:round; stroke-width:4; stroke-opacity:1; fill:none" points="212.459,203.868 231.357,203.868 "></polyline>
<path clip-path="url(#clip820)" d="M114.26 1377.45 L143.936 1377.45 L143.936 1381.38 L114.26 1381.38 L114.26 1377.45 Z" fill="#000000" fill-rule="nonzero" fill-opacity="1"></path><path clip-path="url(#clip820)" d="M166.876 1363.79 L155.07 1382.24 L166.876 1382.24 L166.876 1363.79 M165.649 1359.71 L171.528 1359.71 L171.528 1382.24 L176.459 1382.24 L176.459 1386.13 L171.528 1386.13 L171.528 1394.27 L166.876 1394.27 L166.876 1386.13 L151.274 1386.13 L151.274 1381.61 L165.649 1359.71 Z" fill="#000000" fill-rule="nonzero" fill-opacity="1"></path><path clip-path="url(#clip820)" d="M116.343 1084.16 L146.019 1084.16 L146.019 1088.1 L116.343 1088.1 L116.343 1084.16 Z" fill="#000000" fill-rule="nonzero" fill-opacity="1"></path><path clip-path="url(#clip820)" d="M160.14 1097.06 L176.459 1097.06 L176.459 1100.99 L154.515 1100.99 L154.515 1097.06 Q157.177 1094.3 161.76 1089.67 Q166.366 1085.02 167.547 1083.68 Q169.792 1081.15 170.672 1079.42 Q171.575 1077.66 171.575 1075.97 Q171.575 1073.21 169.63 1071.48 Q167.709 1069.74 164.607 1069.74 Q162.408 1069.74 159.954 1070.51 Q157.524 1071.27 154.746 1072.82 L154.746 1068.1 Q157.57 1066.96 160.024 1066.39 Q162.477 1065.81 164.515 1065.81 Q169.885 1065.81 173.079 1068.49 Q176.274 1071.18 176.274 1075.67 Q176.274 1077.8 175.464 1079.72 Q174.677 1081.62 172.57 1084.21 Q171.991 1084.88 168.889 1088.1 Q165.788 1091.29 160.14 1097.06 Z" fill="#000000" fill-rule="nonzero" fill-opacity="1"></path><path clip-path="url(#clip820)" d="M164.515 776.229 Q160.903 776.229 159.075 779.794 Q157.269 783.336 157.269 790.465 Q157.269 797.572 159.075 801.137 Q160.903 804.678 164.515 804.678 Q168.149 804.678 169.954 801.137 Q171.783 797.572 171.783 790.465 Q171.783 783.336 169.954 779.794 Q168.149 776.229 164.515 776.229 M164.515 772.526 Q170.325 772.526 173.38 777.132 Q176.459 781.716 176.459 790.465 Q176.459 799.192 173.38 803.799 Q170.325 808.382 164.515 808.382 Q158.704 808.382 155.626 803.799 Q152.57 799.192 152.57 790.465 Q152.57 781.716 155.626 777.132 Q158.704 772.526 164.515 772.526 Z" fill="#000000" fill-rule="nonzero" fill-opacity="1"></path><path clip-path="url(#clip820)" d="M160.14 510.494 L176.459 510.494 L176.459 514.429 L154.515 514.429 L154.515 510.494 Q157.177 507.739 161.76 503.11 Q166.366 498.457 167.547 497.114 Q169.792 494.591 170.672 492.855 Q171.575 491.096 171.575 489.406 Q171.575 486.652 169.63 484.915 Q167.709 483.179 164.607 483.179 Q162.408 483.179 159.954 483.943 Q157.524 484.707 154.746 486.258 L154.746 481.536 Q157.57 480.402 160.024 479.823 Q162.477 479.244 164.515 479.244 Q169.885 479.244 173.079 481.929 Q176.274 484.615 176.274 489.105 Q176.274 491.235 175.464 493.156 Q174.677 495.054 172.57 497.647 Q171.991 498.318 168.889 501.536 Q165.788 504.73 160.14 510.494 Z" fill="#000000" fill-rule="nonzero" fill-opacity="1"></path><path clip-path="url(#clip820)" d="M166.876 190.662 L155.07 209.111 L166.876 209.111 L166.876 190.662 M165.649 186.588 L171.528 186.588 L171.528 209.111 L176.459 209.111 L176.459 213 L171.528 213 L171.528 221.148 L166.876 221.148 L166.876 213 L151.274 213 L151.274 208.486 L165.649 186.588 Z" fill="#000000" fill-rule="nonzero" fill-opacity="1"></path><path clip-path="url(#clip820)" d="M28.3562 1050.54 L28.3562 1044.68 L56.1743 1037.36 L28.3562 1030.07 L28.3562 1023.16 L56.1743 1015.84 L28.3562 1008.55 L28.3562 1002.7 L64.0042 1012.02 L64.0042 1018.93 L34.7856 1026.6 L64.0042 1034.3 L64.0042 1041.21 L28.3562 1050.54 Z" fill="#000000" fill-rule="nonzero" fill-opacity="1"></path><path clip-path="url(#clip820)" d="M28.3562 993.818 L28.3562 987.962 L64.0042 987.962 L64.0042 993.818 L28.3562 993.818 M14.479 993.818 L14.479 987.962 L21.895 987.962 L21.895 993.818 L14.479 993.818 Z" fill="#000000" fill-rule="nonzero" fill-opacity="1"></path><path clip-path="url(#clip820)" d="M42.4881 946.075 L64.0042 946.075 L64.0042 951.932 L42.679 951.932 Q37.6183 951.932 35.1038 953.905 Q32.5894 955.879 32.5894 959.825 Q32.5894 964.568 35.6131 967.305 Q38.6368 970.042 43.8567 970.042 L64.0042 970.042 L64.0042 975.931 L28.3562 975.931 L28.3562 970.042 L33.8944 970.042 Q30.6797 967.942 29.0883 965.109 Q27.4968 962.244 27.4968 958.52 Q27.4968 952.377 31.3163 949.226 Q35.1038 946.075 42.4881 946.075 Z" fill="#000000" fill-rule="nonzero" fill-opacity="1"></path><path clip-path="url(#clip820)" d="M33.7671 910.937 L14.479 910.937 L14.479 905.08 L64.0042 905.08 L64.0042 910.937 L58.657 910.937 Q61.8398 912.783 63.3994 915.615 Q64.9272 918.416 64.9272 922.363 Q64.9272 928.824 59.771 932.898 Q54.6147 936.941 46.212 936.941 Q37.8093 936.941 32.6531 932.898 Q27.4968 928.824 27.4968 922.363 Q27.4968 918.416 29.0564 915.615 Q30.5842 912.783 33.7671 910.937 M46.212 930.893 Q52.6732 930.893 56.3653 928.251 Q60.0256 925.578 60.0256 920.931 Q60.0256 916.284 56.3653 913.61 Q52.6732 910.937 46.212 910.937 Q39.7508 910.937 36.0905 913.61 Q32.3984 916.284 32.3984 920.931 Q32.3984 925.578 36.0905 928.251 Q39.7508 930.893 46.212 930.893 Z" fill="#000000" fill-rule="nonzero" fill-opacity="1"></path><path clip-path="url(#clip820)" d="M29.4065 849.571 L34.9447 849.571 Q33.6716 852.054 33.035 854.727 Q32.3984 857.401 32.3984 860.266 Q32.3984 864.626 33.7352 866.822 Q35.072 868.987 37.7456 868.987 Q39.7826 868.987 40.9603 867.427 Q42.1061 865.867 43.1565 861.157 L43.6021 859.152 Q44.9389 852.913 47.3897 850.303 Q49.8086 847.662 54.1691 847.662 Q59.1344 847.662 62.0308 851.608 Q64.9272 855.523 64.9272 862.398 Q64.9272 865.263 64.3543 868.382 Q63.8132 871.469 62.6992 874.907 L56.6518 874.907 Q58.3387 871.66 59.198 868.509 Q60.0256 865.358 60.0256 862.271 Q60.0256 858.133 58.6251 855.905 Q57.1929 853.677 54.6147 853.677 Q52.2276 853.677 50.9545 855.3 Q49.6813 856.892 48.5037 862.334 L48.0262 864.372 Q46.8804 869.814 44.5251 872.233 Q42.138 874.652 38.0002 874.652 Q32.9713 874.652 30.2341 871.087 Q27.4968 867.523 27.4968 860.966 Q27.4968 857.719 27.9743 854.855 Q28.4517 851.99 29.4065 849.571 Z" fill="#000000" fill-rule="nonzero" fill-opacity="1"></path><path clip-path="url(#clip820)" d="M58.657 832.67 L77.5631 832.67 L77.5631 838.559 L28.3562 838.559 L28.3562 832.67 L33.7671 832.67 Q30.5842 830.824 29.0564 828.023 Q27.4968 825.191 27.4968 821.276 Q27.4968 814.783 32.6531 810.74 Q37.8093 806.666 46.212 806.666 Q54.6147 806.666 59.771 810.74 Q64.9272 814.783 64.9272 821.276 Q64.9272 825.191 63.3994 828.023 Q61.8398 830.824 58.657 832.67 M46.212 812.746 Q39.7508 812.746 36.0905 815.419 Q32.3984 818.061 32.3984 822.708 Q32.3984 827.355 36.0905 830.029 Q39.7508 832.67 46.212 832.67 Q52.6732 832.67 56.3653 830.029 Q60.0256 827.355 60.0256 822.708 Q60.0256 818.061 56.3653 815.419 Q52.6732 812.746 46.212 812.746 Z" fill="#000000" fill-rule="nonzero" fill-opacity="1"></path><path clip-path="url(#clip820)" d="M44.7161 766.467 L47.5806 766.467 L47.5806 793.394 Q53.6281 793.012 56.8109 789.765 Q59.9619 786.487 59.9619 780.662 Q59.9619 777.289 59.1344 774.138 Q58.3069 770.955 56.6518 767.836 L62.1899 767.836 Q63.5267 770.987 64.227 774.297 Q64.9272 777.607 64.9272 781.013 Q64.9272 789.543 59.9619 794.54 Q54.9967 799.505 46.5303 799.505 Q37.7774 799.505 32.6531 794.794 Q27.4968 790.052 27.4968 782.031 Q27.4968 774.838 32.1438 770.668 Q36.7589 766.467 44.7161 766.467 M42.9973 772.323 Q38.1912 772.387 35.3266 775.029 Q32.4621 777.639 32.4621 781.967 Q32.4621 786.869 35.2312 789.829 Q38.0002 792.757 43.0292 793.203 L42.9973 772.323 Z" fill="#000000" fill-rule="nonzero" fill-opacity="1"></path><path clip-path="url(#clip820)" d="M44.7161 726.363 L47.5806 726.363 L47.5806 753.29 Q53.6281 752.908 56.8109 749.661 Q59.9619 746.383 59.9619 740.559 Q59.9619 737.185 59.1344 734.034 Q58.3069 730.851 56.6518 727.732 L62.1899 727.732 Q63.5267 730.883 64.227 734.193 Q64.9272 737.503 64.9272 740.909 Q64.9272 749.439 59.9619 754.436 Q54.9967 759.401 46.5303 759.401 Q37.7774 759.401 32.6531 754.69 Q27.4968 749.948 27.4968 741.927 Q27.4968 734.734 32.1438 730.564 Q36.7589 726.363 44.7161 726.363 M42.9973 732.219 Q38.1912 732.283 35.3266 734.925 Q32.4621 737.535 32.4621 741.863 Q32.4621 746.765 35.2312 749.725 Q38.0002 752.653 43.0292 753.099 L42.9973 732.219 Z" fill="#000000" fill-rule="nonzero" fill-opacity="1"></path><path clip-path="url(#clip820)" d="M33.7671 693.293 L14.479 693.293 L14.479 687.437 L64.0042 687.437 L64.0042 693.293 L58.657 693.293 Q61.8398 695.139 63.3994 697.972 Q64.9272 700.773 64.9272 704.72 Q64.9272 711.181 59.771 715.255 Q54.6147 719.297 46.212 719.297 Q37.8093 719.297 32.6531 715.255 Q27.4968 711.181 27.4968 704.72 Q27.4968 700.773 29.0564 697.972 Q30.5842 695.139 33.7671 693.293 M46.212 713.25 Q52.6732 713.25 56.3653 710.608 Q60.0256 707.934 60.0256 703.287 Q60.0256 698.64 56.3653 695.967 Q52.6732 693.293 46.212 693.293 Q39.7508 693.293 36.0905 695.967 Q32.3984 698.64 32.3984 703.287 Q32.3984 707.934 36.0905 710.608 Q39.7508 713.25 46.212 713.25 Z" fill="#000000" fill-rule="nonzero" fill-opacity="1"></path><path clip-path="url(#clip820)" d="M14.5426 640.585 Q21.8632 644.85 29.0246 646.919 Q36.186 648.988 43.5384 648.988 Q50.8908 648.988 58.1159 646.919 Q65.3091 644.818 72.5979 640.585 L72.5979 645.678 Q65.1182 650.452 57.8931 652.839 Q50.668 655.194 43.5384 655.194 Q36.4406 655.194 29.2474 652.839 Q22.0542 650.484 14.5426 645.678 L14.5426 640.585 Z" fill="#000000" fill-rule="nonzero" fill-opacity="1"></path><path clip-path="url(#clip820)" d="M35.1993 601.468 Q31.2526 599.272 29.3747 596.216 Q27.4968 593.161 27.4968 589.023 Q27.4968 583.453 31.4117 580.429 Q35.2948 577.405 42.4881 577.405 L64.0042 577.405 L64.0042 583.294 L42.679 583.294 Q37.5546 583.294 35.072 585.108 Q32.5894 586.922 32.5894 590.646 Q32.5894 595.198 35.6131 597.839 Q38.6368 600.481 43.8567 600.481 L64.0042 600.481 L64.0042 606.369 L42.679 606.369 Q37.5228 606.369 35.072 608.184 Q32.5894 609.998 32.5894 613.785 Q32.5894 618.273 35.6449 620.915 Q38.6686 623.557 43.8567 623.557 L64.0042 623.557 L64.0042 629.445 L28.3562 629.445 L28.3562 623.557 L33.8944 623.557 Q30.616 621.552 29.0564 618.751 Q27.4968 615.95 27.4968 612.099 Q27.4968 608.215 29.4702 605.51 Q31.4436 602.773 35.1993 601.468 Z" fill="#000000" fill-rule="nonzero" fill-opacity="1"></path><path clip-path="url(#clip820)" d="M16.4842 555.316 L16.4842 549.906 L70.0516 566.456 L70.0516 571.867 L16.4842 555.316 Z" fill="#000000" fill-rule="nonzero" fill-opacity="1"></path><path clip-path="url(#clip820)" d="M29.4065 521.037 L34.9447 521.037 Q33.6716 523.52 33.035 526.193 Q32.3984 528.867 32.3984 531.732 Q32.3984 536.092 33.7352 538.288 Q35.072 540.453 37.7456 540.453 Q39.7826 540.453 40.9603 538.893 Q42.1061 537.333 43.1565 532.623 L43.6021 530.618 Q44.9389 524.379 47.3897 521.769 Q49.8086 519.127 54.1691 519.127 Q59.1344 519.127 62.0308 523.074 Q64.9272 526.989 64.9272 533.864 Q64.9272 536.729 64.3543 539.848 Q63.8132 542.935 62.6992 546.373 L56.6518 546.373 Q58.3387 543.126 59.198 539.975 Q60.0256 536.824 60.0256 533.737 Q60.0256 529.599 58.6251 527.371 Q57.1929 525.143 54.6147 525.143 Q52.2276 525.143 50.9545 526.766 Q49.6813 528.358 48.5037 533.8 L48.0262 535.837 Q46.8804 541.28 44.5251 543.699 Q42.138 546.118 38.0002 546.118 Q32.9713 546.118 30.2341 542.553 Q27.4968 538.988 27.4968 532.432 Q27.4968 529.185 27.9743 526.321 Q28.4517 523.456 29.4065 521.037 Z" fill="#000000" fill-rule="nonzero" fill-opacity="1"></path><path clip-path="url(#clip820)" d="M14.5426 510.725 L14.5426 505.632 Q22.0542 500.858 29.2474 498.503 Q36.4406 496.115 43.5384 496.115 Q50.668 496.115 57.8931 498.503 Q65.1182 500.858 72.5979 505.632 L72.5979 510.725 Q65.3091 506.491 58.1159 504.423 Q50.8908 502.322 43.5384 502.322 Q36.186 502.322 29.0246 504.423 Q21.8632 506.491 14.5426 510.725 Z" fill="#000000" fill-rule="nonzero" fill-opacity="1"></path><path clip-path="url(#clip820)" d="M1252.16 27.2059 L1259.62 27.2059 L1268.94 62.6108 L1278.21 27.2059 L1287 27.2059 L1296.32 62.6108 L1305.6 27.2059 L1313.05 27.2059 L1301.18 72.576 L1292.39 72.576 L1282.63 35.3887 L1272.82 72.576 L1264.03 72.576 L1252.16 27.2059 Z" fill="#000000" fill-rule="nonzero" fill-opacity="1"></path><polyline clip-path="url(#clip822)" style="stroke:#009af9; stroke-linecap:round; stroke-linejoin:round; stroke-width:4; stroke-opacity:1; fill:none" points="273.033,490.3 283.231,423.984 293.429,450.604 303.626,586.243 313.824,471.936 324.022,501.524 334.22,543.121 344.417,443.001 354.615,345.403 364.813,493.525 375.011,367.46 385.208,313.07 395.406,188.853 405.604,339.234 415.801,453.33 425.999,419.039 436.197,332.915 446.395,367.656 456.592,330.476 466.79,462.121 476.988,503.985 487.185,544.979 497.383,549.554 507.581,734.248 517.779,829.393 527.976,722.543 538.174,733.629 548.372,661.956 558.569,444.725 568.767,364.317 578.965,386.383 589.163,405.716 599.36,652.951 609.558,675.011 619.756,647.916 629.953,819.176 640.151,842.542 650.349,892.155 660.547,891.637 670.744,934.962 680.942,735.224 691.14,858.388 701.337,841.464 711.535,988.052 721.733,907.757 731.931,948.254 742.128,982.44 752.326,912.616 762.524,834.476 772.722,928.122 782.919,1095.07 793.117,875.171 803.315,824.739 813.512,892.58 823.71,756.236 833.908,803.247 844.106,843.792 854.303,953.214 864.501,779.009 874.699,828.303 884.896,890.347 895.094,845.6 905.292,845.839 915.49,827.512 925.687,1009.2 935.885,663.843 946.083,557.185 956.28,464.822 966.478,588.808 976.676,643.348 986.874,719.455 997.071,786.479 1007.27,785.693 1017.47,647.142 1027.66,565.666 1037.86,638.926 1048.06,594.097 1058.26,616.968 1068.46,523.388 1078.65,665.162 1088.85,747.398 1099.05,811.897 1109.25,885.428 1119.44,811.234 1129.64,782.344 1139.84,823.163 1150.04,799.392 1160.23,802.186 1170.43,567.943 1180.63,721.845 1190.83,661.435 1201.03,659.663 1211.22,591.248 1221.42,660.952 1231.62,818.838 1241.82,779.443 1252.01,680.911 1262.21,830.68 1272.41,852.642 1282.61,806.135 1292.81,884.127 1303,877.975 1313.2,904.343 1323.4,954.39 1333.6,926.687 1343.79,874.316 1353.99,933.888 1364.19,1025.5 1374.39,1048.42 1384.58,1090.79 1394.78,948.298 1404.98,823.435 1415.18,858.322 1425.38,772.742 1435.57,1026.84 1445.77,1025.85 1455.97,827.234 1466.17,772.101 1476.36,499.674 1486.56,615.055 1496.76,749.148 1506.96,410.469 1517.15,461.091 1527.35,471.149 1537.55,640.228 1547.75,691.794 1557.95,815.912 1568.14,848.233 1578.34,663.621 1588.54,652.211 1598.74,635.895 1608.93,559.738 1619.13,491.051 1629.33,663.373 1639.53,341.472 1649.73,289.07 1659.92,329.205 1670.12,375.421 1680.32,439.92 1690.52,463.04 1700.71,466.821 1710.91,582.85 1721.11,472.689 1731.31,627.928 1741.5,694.98 1751.7,843.142 1761.9,906.346 1772.1,953.392 1782.3,954.681 1792.49,813.518 1802.69,864.624 1812.89,878.292 1823.09,900.201 1833.28,936.247 1843.48,1012.22 1853.68,1133.94 1863.88,966.686 1874.08,992.835 1884.27,953.821 1894.47,940.964 1904.67,897.615 1914.87,984.6 1925.06,993.872 1935.26,895.132 1945.46,960.993 1955.66,1062.79 1965.85,1013.45 1976.05,773.393 1986.25,718.788 1996.45,794.78 2006.65,794.939 2016.84,851.233 2027.04,995.489 2037.24,848.922 2047.44,816.673 2057.63,940.544 2067.83,1045.17 2078.03,1060.06 2088.23,1013.64 2098.42,1041.12 2108.62,1054.79 2118.82,967.122 2129.02,843.515 2139.22,785.782 2149.41,733.81 2159.61,744.621 2169.81,649.106 2180.01,751.835 2190.2,634.781 2200.4,591.275 2210.6,628.54 2220.8,737.866 2231,733.65 2241.19,880.416 2251.39,902.679 2261.59,878.708 2271.79,770.316 2281.98,649.93 2292.18,613.54 "></polyline>
<polyline clip-path="url(#clip822)" style="stroke:#e26f46; stroke-linecap:round; stroke-linejoin:round; stroke-width:4; stroke-opacity:1; fill:none" points="273.033,784.183 283.231,863.172 293.429,759.202 303.626,499.987 313.824,563.188 324.022,683.838 334.22,537.936 344.417,395.474 354.615,339.282 364.813,318.973 375.011,253.157 385.208,257.11 395.406,388.437 405.604,466.489 415.801,644.226 425.999,882.414 436.197,818.656 446.395,1077.69 456.592,1307.3 466.79,1096.68 476.988,846.636 487.185,1044.17 497.383,1068.53 507.581,1013.16 517.779,1015.92 527.976,964.141 538.174,1053.29 548.372,1013.19 558.569,1129.64 568.767,1187.9 578.965,1180.82 589.163,1211.43 599.36,1278.24 609.558,1068.13 619.756,900.593 629.953,811.884 640.151,803.514 650.349,815.756 660.547,903.607 670.744,886.973 680.942,799.701 691.14,934.542 701.337,1005.11 711.535,1199.14 721.733,1090.98 731.931,941.927 742.128,828.802 752.326,803.169 762.524,885.153 772.722,847.581 782.919,831.48 793.117,779.151 803.315,860.855 813.512,929.189 823.71,905.318 833.908,1038.27 844.106,876.753 854.303,973.089 864.501,996.446 874.699,962.676 884.896,937.021 895.094,824.191 905.292,919.608 915.49,1156.15 925.687,1232.48 935.885,1190.05 946.083,1179.03 956.28,1298.12 966.478,1289.65 976.676,1281.31 986.874,1187.25 997.071,1296.14 1007.27,1386.4 1017.47,1378.7 1027.66,1310.84 1037.86,1327.83 1048.06,1239.21 1058.26,1242.65 1068.46,1122.21 1078.65,1125.21 1088.85,1147.86 1099.05,1221.78 1109.25,1046.69 1119.44,999.655 1129.64,788.851 1139.84,895.911 1150.04,894.889 1160.23,969.094 1170.43,1129.75 1180.63,1131.97 1190.83,1102.74 1201.03,964.373 1211.22,963.81 1221.42,918.476 1231.62,947.493 1241.82,804.982 1252.01,814.027 1262.21,768.248 1272.41,635.379 1282.61,469.567 1292.81,384.721 1303,220.388 1313.2,278.392 1323.4,341.177 1333.6,366.9 1343.79,259.575 1353.99,197.334 1364.19,362.09 1374.39,316.309 1384.58,160.256 1394.78,383.636 1404.98,402.275 1415.18,598.991 1425.38,726.459 1435.57,801.033 1445.77,989.675 1455.97,921.504 1466.17,844.86 1476.36,779.947 1486.56,882.001 1496.76,771.018 1506.96,920.584 1517.15,868.11 1527.35,726.977 1537.55,685.972 1547.75,675.382 1557.95,654.897 1568.14,564.076 1578.34,577.686 1588.54,738.22 1598.74,675.682 1608.93,821.345 1619.13,848.449 1629.33,686.178 1639.53,589.598 1649.73,665.042 1659.92,725.616 1670.12,930.645 1680.32,781.481 1690.52,803.809 1700.71,807.613 1710.91,824.385 1721.11,752.183 1731.31,844.369 1741.5,752.113 1751.7,675.722 1761.9,648.471 1772.1,774.253 1782.3,581.763 1792.49,802.041 1802.69,856.361 1812.89,881.126 1823.09,892.296 1833.28,881.383 1843.48,930.541 1853.68,999.229 1863.88,1082.71 1874.08,1038.38 1884.27,935.717 1894.47,822.506 1904.67,996.991 1914.87,1107.7 1925.06,1183.41 1935.26,1271.59 1945.46,1122.28 1955.66,1125.94 1965.85,1072.14 1976.05,1108.81 1986.25,1278.07 1996.45,1162.07 2006.65,1096.93 2016.84,1107.75 2027.04,893.876 2037.24,911.363 2047.44,842.751 2057.63,1025.77 2067.83,1017.26 2078.03,1092.44 2088.23,1113.84 2098.42,1140.34 2108.62,1271.16 2118.82,1158.42 2129.02,900.716 2139.22,1067.2 2149.41,976.377 2159.61,952.659 2169.81,967.285 2180.01,871.069 2190.2,932.534 2200.4,1013.85 2210.6,1057.6 2220.8,987.56 2231,1033.41 2241.19,913.049 2251.39,818.213 2261.59,882.673 2271.79,867.653 2281.98,802.522 2292.18,836.274 "></polyline>
<path clip-path="url(#clip820)" d="M1920.88 322.316 L2281.41 322.316 L2281.41 166.796 L1920.88 166.796  Z" fill="#ffffff" fill-rule="evenodd" fill-opacity="1"></path>
<polyline clip-path="url(#clip820)" style="stroke:#000000; stroke-linecap:round; stroke-linejoin:round; stroke-width:4; stroke-opacity:1; fill:none" points="1920.88,322.316 2281.41,322.316 2281.41,166.796 1920.88,166.796 1920.88,322.316 "></polyline>
<polyline clip-path="url(#clip820)" style="stroke:#009af9; stroke-linecap:round; stroke-linejoin:round; stroke-width:4; stroke-opacity:1; fill:none" points="1944.66,218.636 2087.35,218.636 "></polyline>
<path clip-path="url(#clip820)" d="M2126.28 205.102 Q2126.28 205.774 2125.78 206.331 Q2125.28 206.889 2124.46 206.889 Q2123.72 206.889 2123.21 206.348 Q2122.68 205.79 2122.68 205.102 Q2122.68 204.413 2123.18 203.872 Q2123.67 203.331 2124.49 203.331 Q2125.23 203.331 2125.75 203.872 Q2126.28 204.413 2126.28 205.102 Z" fill="#000000" fill-rule="nonzero" fill-opacity="1"></path><path clip-path="url(#clip820)" d="M2135.02 215.148 Q2135.02 216.46 2134.2 217.209 Q2133.38 217.935 2132.44 217.935 Q2131.55 217.935 2131.08 217.42 Q2130.62 216.905 2130.62 216.249 Q2130.62 215.359 2131.27 214.586 Q2131.93 213.813 2132.91 213.649 Q2131.95 213.04 2130.52 213.04 Q2129.59 213.04 2128.77 213.532 Q2127.97 214.024 2127.48 214.656 Q2127.01 215.288 2126.59 216.202 Q2126.19 217.092 2126.03 217.631 Q2125.88 218.146 2125.77 218.708 L2124.13 225.266 Q2123.33 228.382 2123.33 229.482 Q2123.33 230.841 2123.99 231.754 Q2124.64 232.645 2125.96 232.645 Q2126.47 232.645 2127.06 232.504 Q2127.64 232.34 2128.39 231.918 Q2129.16 231.473 2129.84 230.818 Q2130.55 230.138 2131.23 228.991 Q2131.9 227.843 2132.35 226.367 Q2132.49 225.852 2132.96 225.852 Q2133.54 225.852 2133.54 226.32 Q2133.54 226.719 2133.22 227.562 Q2132.91 228.382 2132.23 229.459 Q2131.58 230.513 2130.71 231.473 Q2129.84 232.41 2128.56 233.066 Q2127.27 233.722 2125.86 233.722 Q2123.85 233.722 2122.51 232.645 Q2121.18 231.567 2120.69 230.068 Q2120.57 230.279 2120.4 230.56 Q2120.24 230.841 2119.75 231.473 Q2119.28 232.082 2118.74 232.551 Q2118.2 232.996 2117.36 233.347 Q2116.54 233.722 2115.65 233.722 Q2114.53 233.722 2113.52 233.394 Q2112.53 233.066 2111.83 232.317 Q2111.13 231.567 2111.13 230.536 Q2111.13 229.389 2111.9 228.592 Q2112.7 227.773 2113.78 227.773 Q2114.45 227.773 2114.99 228.171 Q2115.56 228.569 2115.56 229.436 Q2115.56 230.396 2114.9 231.122 Q2114.24 231.848 2113.31 232.036 Q2114.27 232.645 2115.7 232.645 Q2117.24 232.645 2118.46 231.286 Q2119.68 229.927 2120.26 227.656 Q2121.72 222.198 2122.28 219.762 Q2122.84 217.303 2122.84 216.249 Q2122.84 215.265 2122.58 214.586 Q2122.32 213.907 2121.88 213.602 Q2121.46 213.274 2121.06 213.157 Q2120.69 213.04 2120.26 213.04 Q2119.56 213.04 2118.76 213.321 Q2117.99 213.602 2117.05 214.258 Q2116.14 214.89 2115.27 216.202 Q2114.41 217.514 2113.82 219.317 Q2113.71 219.856 2113.19 219.856 Q2112.63 219.832 2112.63 219.364 Q2112.63 218.966 2112.93 218.146 Q2113.26 217.303 2113.92 216.249 Q2114.6 215.195 2115.46 214.258 Q2116.35 213.298 2117.64 212.642 Q2118.95 211.986 2120.36 211.986 Q2120.99 211.986 2121.6 212.126 Q2122.23 212.244 2122.98 212.595 Q2123.75 212.946 2124.43 213.719 Q2125.11 214.492 2125.53 215.616 Q2125.81 215.078 2126.19 214.562 Q2126.59 214.047 2127.2 213.415 Q2127.83 212.759 2128.7 212.384 Q2129.59 211.986 2130.57 211.986 Q2131.53 211.986 2132.47 212.244 Q2133.4 212.478 2134.2 213.251 Q2135.02 214 2135.02 215.148 Z" fill="#000000" fill-rule="nonzero" fill-opacity="1"></path><path clip-path="url(#clip820)" d="M2151.85 207.257 L2156.1 207.257 L2161.43 227.489 L2166.73 207.257 L2171.75 207.257 L2177.08 227.489 L2182.38 207.257 L2186.64 207.257 L2179.85 233.183 L2174.83 233.183 L2169.25 211.933 L2163.65 233.183 L2158.63 233.183 L2151.85 207.257 Z" fill="#000000" fill-rule="nonzero" fill-opacity="1"></path><path clip-path="url(#clip820)" d="M2193.09 207.257 L2197.35 207.257 L2197.35 233.183 L2193.09 233.183 L2193.09 207.257 M2193.09 197.165 L2197.35 197.165 L2197.35 202.558 L2193.09 202.558 L2193.09 197.165 Z" fill="#000000" fill-rule="nonzero" fill-opacity="1"></path><path clip-path="url(#clip820)" d="M2227.82 217.535 L2227.82 233.183 L2223.56 233.183 L2223.56 217.674 Q2223.56 213.994 2222.12 212.165 Q2220.69 210.336 2217.82 210.336 Q2214.37 210.336 2212.38 212.535 Q2210.39 214.734 2210.39 218.531 L2210.39 233.183 L2206.1 233.183 L2206.1 207.257 L2210.39 207.257 L2210.39 211.285 Q2211.91 208.947 2213.97 207.79 Q2216.06 206.632 2218.77 206.632 Q2223.23 206.632 2225.53 209.41 Q2227.82 212.165 2227.82 217.535 Z" fill="#000000" fill-rule="nonzero" fill-opacity="1"></path><path clip-path="url(#clip820)" d="M2253.37 211.193 L2253.37 197.165 L2257.63 197.165 L2257.63 233.183 L2253.37 233.183 L2253.37 229.294 Q2252.03 231.609 2249.97 232.743 Q2247.93 233.855 2245.06 233.855 Q2240.36 233.855 2237.4 230.105 Q2234.46 226.355 2234.46 220.243 Q2234.46 214.132 2237.4 210.382 Q2240.36 206.632 2245.06 206.632 Q2247.93 206.632 2249.97 207.767 Q2252.03 208.878 2253.37 211.193 M2238.86 220.243 Q2238.86 224.943 2240.78 227.628 Q2242.72 230.29 2246.1 230.29 Q2249.48 230.29 2251.43 227.628 Q2253.37 224.943 2253.37 220.243 Q2253.37 215.544 2251.43 212.882 Q2249.48 210.197 2246.1 210.197 Q2242.72 210.197 2240.78 212.882 Q2238.86 215.544 2238.86 220.243 Z" fill="#000000" fill-rule="nonzero" fill-opacity="1"></path><polyline clip-path="url(#clip820)" style="stroke:#e26f46; stroke-linecap:round; stroke-linejoin:round; stroke-width:4; stroke-opacity:1; fill:none" points="1944.66,270.476 2087.35,270.476 "></polyline>
<path clip-path="url(#clip820)" d="M2125.28 256.942 Q2125.28 257.614 2124.78 258.171 Q2124.28 258.729 2123.46 258.729 Q2122.72 258.729 2122.21 258.188 Q2121.68 257.63 2121.68 256.942 Q2121.68 256.253 2122.18 255.712 Q2122.67 255.171 2123.49 255.171 Q2124.23 255.171 2124.75 255.712 Q2125.28 256.253 2125.28 256.942 Z" fill="#000000" fill-rule="nonzero" fill-opacity="1"></path><path clip-path="url(#clip820)" d="M2131.46 264.294 Q2131.46 264.458 2131.06 265.161 Q2130.69 265.84 2129.3 267.55 Q2127.92 269.26 2125.86 271.251 Q2125.09 272.024 2123.92 273.101 Q2122.75 274.179 2121.95 274.881 L2121.15 275.584 Q2118.11 278.16 2115.44 281.041 Q2115.63 280.971 2115.95 280.948 Q2116.28 280.901 2116.52 280.901 L2116.75 280.901 Q2117.97 280.901 2120.1 281.721 Q2121.97 282.33 2122.93 282.33 Q2123.87 282.33 2124.9 282.002 Q2125.93 281.674 2127.06 280.713 Q2128.18 279.753 2128.7 278.301 Q2128.79 278.067 2128.84 277.996 Q2128.88 277.903 2129.02 277.809 Q2129.16 277.692 2129.35 277.692 Q2129.61 277.692 2129.77 277.833 Q2129.94 277.973 2129.94 278.16 Q2129.94 278.582 2129.61 279.425 Q2129.3 280.268 2128.63 281.322 Q2127.97 282.376 2127.1 283.337 Q2126.26 284.274 2124.99 284.93 Q2123.73 285.562 2122.39 285.562 Q2121.43 285.562 2120.73 285.093 Q2120.03 284.648 2119.33 283.782 Q2118.37 282.681 2117.85 282.33 Q2117.34 281.955 2116.54 281.955 Q2114.41 281.955 2112.46 284.93 Q2112.25 285.351 2112.11 285.445 Q2112 285.562 2111.71 285.562 Q2111.13 285.539 2111.13 285.07 Q2111.13 284.883 2111.64 284.063 Q2112.18 283.22 2113.38 281.744 Q2114.6 280.268 2116.07 278.793 L2120.38 274.764 Q2125.16 270.736 2127.06 268.464 Q2126.26 268.464 2125.91 268.44 Q2125.58 268.417 2124.92 268.276 Q2124.27 268.112 2123.36 267.761 Q2121.22 267.035 2120.33 267.035 Q2120.1 267.035 2119.84 267.058 Q2119.58 267.082 2119 267.199 Q2118.44 267.316 2117.97 267.55 Q2117.5 267.761 2117.01 268.229 Q2116.52 268.674 2116.26 269.283 Q2116.19 269.471 2116.14 269.564 Q2116.09 269.658 2115.95 269.752 Q2115.84 269.822 2115.65 269.822 Q2115.37 269.822 2115.2 269.658 Q2115.06 269.494 2115.06 269.283 Q2115.06 268.862 2115.49 267.995 Q2115.91 267.128 2116.61 266.192 Q2117.31 265.231 2118.46 264.529 Q2119.61 263.826 2120.87 263.826 Q2121.62 263.826 2122.25 264.154 Q2122.91 264.482 2123.24 264.833 Q2123.59 265.161 2124.18 265.887 Q2124.67 266.449 2124.9 266.683 Q2125.14 266.918 2125.6 267.175 Q2126.1 267.41 2126.63 267.41 Q2127.52 267.41 2128.34 266.73 Q2129.16 266.028 2130.22 264.341 Q2130.5 263.826 2130.94 263.826 Q2131.46 263.826 2131.46 264.294 Z" fill="#000000" fill-rule="nonzero" fill-opacity="1"></path><path clip-path="url(#clip820)" d="M2148.31 259.097 L2152.57 259.097 L2157.9 279.329 L2163.2 259.097 L2168.22 259.097 L2173.55 279.329 L2178.85 259.097 L2183.11 259.097 L2176.32 285.023 L2171.3 285.023 L2165.72 263.773 L2160.12 285.023 L2155.1 285.023 L2148.31 259.097 Z" fill="#000000" fill-rule="nonzero" fill-opacity="1"></path><path clip-path="url(#clip820)" d="M2189.56 259.097 L2193.82 259.097 L2193.82 285.023 L2189.56 285.023 L2189.56 259.097 M2189.56 249.005 L2193.82 249.005 L2193.82 254.398 L2189.56 254.398 L2189.56 249.005 Z" fill="#000000" fill-rule="nonzero" fill-opacity="1"></path><path clip-path="url(#clip820)" d="M2224.29 269.375 L2224.29 285.023 L2220.03 285.023 L2220.03 269.514 Q2220.03 265.834 2218.59 264.005 Q2217.16 262.176 2214.29 262.176 Q2210.84 262.176 2208.85 264.375 Q2206.86 266.574 2206.86 270.371 L2206.86 285.023 L2202.57 285.023 L2202.57 259.097 L2206.86 259.097 L2206.86 263.125 Q2208.38 260.787 2210.44 259.63 Q2212.53 258.472 2215.23 258.472 Q2219.7 258.472 2221.99 261.25 Q2224.29 264.005 2224.29 269.375 Z" fill="#000000" fill-rule="nonzero" fill-opacity="1"></path><path clip-path="url(#clip820)" d="M2249.84 263.033 L2249.84 249.005 L2254.1 249.005 L2254.1 285.023 L2249.84 285.023 L2249.84 281.134 Q2248.5 283.449 2246.44 284.583 Q2244.4 285.695 2241.53 285.695 Q2236.83 285.695 2233.87 281.945 Q2230.93 278.195 2230.93 272.083 Q2230.93 265.972 2233.87 262.222 Q2236.83 258.472 2241.53 258.472 Q2244.4 258.472 2246.44 259.607 Q2248.5 260.718 2249.84 263.033 M2235.33 272.083 Q2235.33 276.783 2237.25 279.468 Q2239.19 282.13 2242.57 282.13 Q2245.95 282.13 2247.9 279.468 Q2249.84 276.783 2249.84 272.083 Q2249.84 267.384 2247.9 264.722 Q2245.95 262.037 2242.57 262.037 Q2239.19 262.037 2237.25 264.722 Q2235.33 267.384 2235.33 272.083 Z" fill="#000000" fill-rule="nonzero" fill-opacity="1"></path></svg>