<?xml version="1.0" encoding="utf-8"?>
<svg xmlns="http://www.w3.org/2000/svg" xmlns:xlink="http://www.w3.org/1999/xlink" width="600" height="400" viewBox="0 0 2400 1600">
<defs>
  <clipPath id="clip700">
    <rect x="0" y="0" width="2400" height="1600"/>
  </clipPath>
</defs>
<path clip-path="url(#clip700)" d="M0 1600 L2400 1600 L2400 0 L0 0  Z" fill="#ffffff" fill-rule="evenodd" fill-opacity="1"/>
<defs>
  <clipPath id="clip701">
    <rect x="480" y="0" width="1681" height="1600"/>
  </clipPath>
</defs>
<path clip-path="url(#clip700)" d="M272.297 1423.18 L2352.76 1423.18 L2352.76 123.472 L272.297 123.472  Z" fill="#ffffff" fill-rule="evenodd" fill-opacity="1"/>
<defs>
  <clipPath id="clip702">
    <rect x="272" y="123" width="2081" height="1301"/>
  </clipPath>
</defs>
<polyline clip-path="url(#clip702)" style="stroke:#000000; stroke-linecap:round; stroke-linejoin:round; stroke-width:2; stroke-opacity:0.1; fill:none" points="331.177,1423.18 331.177,123.472 "/>
<polyline clip-path="url(#clip702)" style="stroke:#000000; stroke-linecap:round; stroke-linejoin:round; stroke-width:2; stroke-opacity:0.1; fill:none" points="777.345,1423.18 777.345,123.472 "/>
<polyline clip-path="url(#clip702)" style="stroke:#000000; stroke-linecap:round; stroke-linejoin:round; stroke-width:2; stroke-opacity:0.1; fill:none" points="1223.51,1423.18 1223.51,123.472 "/>
<polyline clip-path="url(#clip702)" style="stroke:#000000; stroke-linecap:round; stroke-linejoin:round; stroke-width:2; stroke-opacity:0.1; fill:none" points="1669.68,1423.18 1669.68,123.472 "/>
<polyline clip-path="url(#clip702)" style="stroke:#000000; stroke-linecap:round; stroke-linejoin:round; stroke-width:2; stroke-opacity:0.1; fill:none" points="2115.85,1423.18 2115.85,123.472 "/>
<polyline clip-path="url(#clip700)" style="stroke:#000000; stroke-linecap:round; stroke-linejoin:round; stroke-width:4; stroke-opacity:1; fill:none" points="272.297,1423.18 2352.76,1423.18 "/>
<polyline clip-path="url(#clip700)" style="stroke:#000000; stroke-linecap:round; stroke-linejoin:round; stroke-width:4; stroke-opacity:1; fill:none" points="331.177,1423.18 331.177,1404.28 "/>
<polyline clip-path="url(#clip700)" style="stroke:#000000; stroke-linecap:round; stroke-linejoin:round; stroke-width:4; stroke-opacity:1; fill:none" points="777.345,1423.18 777.345,1404.28 "/>
<polyline clip-path="url(#clip700)" style="stroke:#000000; stroke-linecap:round; stroke-linejoin:round; stroke-width:4; stroke-opacity:1; fill:none" points="1223.51,1423.18 1223.51,1404.28 "/>
<polyline clip-path="url(#clip700)" style="stroke:#000000; stroke-linecap:round; stroke-linejoin:round; stroke-width:4; stroke-opacity:1; fill:none" points="1669.68,1423.18 1669.68,1404.28 "/>
<polyline clip-path="url(#clip700)" style="stroke:#000000; stroke-linecap:round; stroke-linejoin:round; stroke-width:4; stroke-opacity:1; fill:none" points="2115.85,1423.18 2115.85,1404.28 "/>
<path clip-path="url(#clip700)" d="M331.177 1454.1 Q327.566 1454.1 325.738 1457.66 Q323.932 1461.2 323.932 1468.33 Q323.932 1475.44 325.738 1479.01 Q327.566 1482.55 331.177 1482.55 Q334.812 1482.55 336.617 1479.01 Q338.446 1475.44 338.446 1468.33 Q338.446 1461.2 336.617 1457.66 Q334.812 1454.1 331.177 1454.1 M331.177 1450.39 Q336.988 1450.39 340.043 1455 Q343.122 1459.58 343.122 1468.33 Q343.122 1477.06 340.043 1481.67 Q336.988 1486.25 331.177 1486.25 Q325.367 1486.25 322.289 1481.67 Q319.233 1477.06 319.233 1468.33 Q319.233 1459.58 322.289 1455 Q325.367 1450.39 331.177 1450.39 Z" fill="#000000" fill-rule="nonzero" fill-opacity="1" /><path clip-path="url(#clip700)" d="M736.963 1451.02 L755.319 1451.02 L755.319 1454.96 L741.245 1454.96 L741.245 1463.43 Q742.264 1463.08 743.282 1462.92 Q744.301 1462.73 745.319 1462.73 Q751.106 1462.73 754.486 1465.9 Q757.866 1469.08 757.866 1474.49 Q757.866 1480.07 754.393 1483.17 Q750.921 1486.25 744.602 1486.25 Q742.426 1486.25 740.157 1485.88 Q737.912 1485.51 735.505 1484.77 L735.505 1480.07 Q737.588 1481.2 739.81 1481.76 Q742.032 1482.32 744.509 1482.32 Q748.514 1482.32 750.852 1480.21 Q753.19 1478.1 753.19 1474.49 Q753.19 1470.88 750.852 1468.77 Q748.514 1466.67 744.509 1466.67 Q742.634 1466.67 740.759 1467.08 Q738.907 1467.5 736.963 1468.38 L736.963 1451.02 Z" fill="#000000" fill-rule="nonzero" fill-opacity="1" /><path clip-path="url(#clip700)" d="M777.078 1454.1 Q773.467 1454.1 771.639 1457.66 Q769.833 1461.2 769.833 1468.33 Q769.833 1475.44 771.639 1479.01 Q773.467 1482.55 777.078 1482.55 Q780.713 1482.55 782.518 1479.01 Q784.347 1475.44 784.347 1468.33 Q784.347 1461.2 782.518 1457.66 Q780.713 1454.1 777.078 1454.1 M777.078 1450.39 Q782.889 1450.39 785.944 1455 Q789.023 1459.58 789.023 1468.33 Q789.023 1477.06 785.944 1481.67 Q782.889 1486.25 777.078 1486.25 Q771.268 1486.25 768.19 1481.67 Q765.134 1477.06 765.134 1468.33 Q765.134 1459.58 768.19 1455 Q771.268 1450.39 777.078 1450.39 Z" fill="#000000" fill-rule="nonzero" fill-opacity="1" /><path clip-path="url(#clip700)" d="M807.24 1454.1 Q803.629 1454.1 801.801 1457.66 Q799.995 1461.2 799.995 1468.33 Q799.995 1475.44 801.801 1479.01 Q803.629 1482.55 807.24 1482.55 Q810.875 1482.55 812.68 1479.01 Q814.509 1475.44 814.509 1468.33 Q814.509 1461.2 812.68 1457.66 Q810.875 1454.1 807.24 1454.1 M807.24 1450.39 Q813.05 1450.39 816.106 1455 Q819.185 1459.58 819.185 1468.33 Q819.185 1477.06 816.106 1481.67 Q813.05 1486.25 807.24 1486.25 Q801.43 1486.25 798.351 1481.67 Q795.296 1477.06 795.296 1468.33 Q795.296 1459.58 798.351 1455 Q801.43 1450.39 807.24 1450.39 Z" fill="#000000" fill-rule="nonzero" fill-opacity="1" /><path clip-path="url(#clip700)" d="M1168.04 1481.64 L1175.68 1481.64 L1175.68 1455.28 L1167.37 1456.95 L1167.37 1452.69 L1175.63 1451.02 L1180.31 1451.02 L1180.31 1481.64 L1187.94 1481.64 L1187.94 1485.58 L1168.04 1485.58 L1168.04 1481.64 Z" fill="#000000" fill-rule="nonzero" fill-opacity="1" /><path clip-path="url(#clip700)" d="M1207.39 1454.1 Q1203.78 1454.1 1201.95 1457.66 Q1200.14 1461.2 1200.14 1468.33 Q1200.14 1475.44 1201.95 1479.01 Q1203.78 1482.55 1207.39 1482.55 Q1211.02 1482.55 1212.83 1479.01 Q1214.66 1475.44 1214.66 1468.33 Q1214.66 1461.2 1212.83 1457.66 Q1211.02 1454.1 1207.39 1454.1 M1207.39 1450.39 Q1213.2 1450.39 1216.25 1455 Q1219.33 1459.58 1219.33 1468.33 Q1219.33 1477.06 1216.25 1481.67 Q1213.2 1486.25 1207.39 1486.25 Q1201.58 1486.25 1198.5 1481.67 Q1195.44 1477.06 1195.44 1468.33 Q1195.44 1459.58 1198.5 1455 Q1201.58 1450.39 1207.39 1450.39 Z" fill="#000000" fill-rule="nonzero" fill-opacity="1" /><path clip-path="url(#clip700)" d="M1237.55 1454.1 Q1233.94 1454.1 1232.11 1457.66 Q1230.31 1461.2 1230.31 1468.33 Q1230.31 1475.44 1232.11 1479.01 Q1233.94 1482.55 1237.55 1482.55 Q1241.19 1482.55 1242.99 1479.01 Q1244.82 1475.44 1244.82 1468.33 Q1244.82 1461.2 1242.99 1457.66 Q1241.19 1454.1 1237.55 1454.1 M1237.55 1450.39 Q1243.36 1450.39 1246.42 1455 Q1249.5 1459.58 1249.5 1468.33 Q1249.5 1477.06 1246.42 1481.67 Q1243.36 1486.25 1237.55 1486.25 Q1231.74 1486.25 1228.66 1481.67 Q1225.61 1477.06 1225.61 1468.33 Q1225.61 1459.58 1228.66 1455 Q1231.74 1450.39 1237.55 1450.39 Z" fill="#000000" fill-rule="nonzero" fill-opacity="1" /><path clip-path="url(#clip700)" d="M1267.71 1454.1 Q1264.1 1454.1 1262.27 1457.66 Q1260.47 1461.2 1260.47 1468.33 Q1260.47 1475.44 1262.27 1479.01 Q1264.1 1482.55 1267.71 1482.55 Q1271.35 1482.55 1273.15 1479.01 Q1274.98 1475.44 1274.98 1468.33 Q1274.98 1461.2 1273.15 1457.66 Q1271.35 1454.1 1267.71 1454.1 M1267.71 1450.39 Q1273.52 1450.39 1276.58 1455 Q1279.66 1459.58 1279.66 1468.33 Q1279.66 1477.06 1276.58 1481.67 Q1273.52 1486.25 1267.71 1486.25 Q1261.9 1486.25 1258.82 1481.67 Q1255.77 1477.06 1255.77 1468.33 Q1255.77 1459.58 1258.82 1455 Q1261.9 1450.39 1267.71 1450.39 Z" fill="#000000" fill-rule="nonzero" fill-opacity="1" /><path clip-path="url(#clip700)" d="M1614.2 1481.64 L1621.84 1481.64 L1621.84 1455.28 L1613.53 1456.95 L1613.53 1452.69 L1621.8 1451.02 L1626.47 1451.02 L1626.47 1481.64 L1634.11 1481.64 L1634.11 1485.58 L1614.2 1485.58 L1614.2 1481.64 Z" fill="#000000" fill-rule="nonzero" fill-opacity="1" /><path clip-path="url(#clip700)" d="M1643.6 1451.02 L1661.96 1451.02 L1661.96 1454.96 L1647.89 1454.96 L1647.89 1463.43 Q1648.9 1463.08 1649.92 1462.92 Q1650.94 1462.73 1651.96 1462.73 Q1657.75 1462.73 1661.13 1465.9 Q1664.51 1469.08 1664.51 1474.49 Q1664.51 1480.07 1661.03 1483.17 Q1657.56 1486.25 1651.24 1486.25 Q1649.07 1486.25 1646.8 1485.88 Q1644.55 1485.51 1642.14 1484.77 L1642.14 1480.07 Q1644.23 1481.2 1646.45 1481.76 Q1648.67 1482.32 1651.15 1482.32 Q1655.15 1482.32 1657.49 1480.21 Q1659.83 1478.1 1659.83 1474.49 Q1659.83 1470.88 1657.49 1468.77 Q1655.15 1466.67 1651.15 1466.67 Q1649.27 1466.67 1647.4 1467.08 Q1645.55 1467.5 1643.6 1468.38 L1643.6 1451.02 Z" fill="#000000" fill-rule="nonzero" fill-opacity="1" /><path clip-path="url(#clip700)" d="M1683.72 1454.1 Q1680.11 1454.1 1678.28 1457.66 Q1676.47 1461.2 1676.47 1468.33 Q1676.47 1475.44 1678.28 1479.01 Q1680.11 1482.55 1683.72 1482.55 Q1687.35 1482.55 1689.16 1479.01 Q1690.99 1475.44 1690.99 1468.33 Q1690.99 1461.2 1689.16 1457.66 Q1687.35 1454.1 1683.72 1454.1 M1683.72 1450.39 Q1689.53 1450.39 1692.58 1455 Q1695.66 1459.58 1695.66 1468.33 Q1695.66 1477.06 1692.58 1481.67 Q1689.53 1486.25 1683.72 1486.25 Q1677.91 1486.25 1674.83 1481.67 Q1671.77 1477.06 1671.77 1468.33 Q1671.77 1459.58 1674.83 1455 Q1677.91 1450.39 1683.72 1450.39 Z" fill="#000000" fill-rule="nonzero" fill-opacity="1" /><path clip-path="url(#clip700)" d="M1713.88 1454.1 Q1710.27 1454.1 1708.44 1457.66 Q1706.63 1461.2 1706.63 1468.33 Q1706.63 1475.44 1708.44 1479.01 Q1710.27 1482.55 1713.88 1482.55 Q1717.51 1482.55 1719.32 1479.01 Q1721.15 1475.44 1721.15 1468.33 Q1721.15 1461.2 1719.32 1457.66 Q1717.51 1454.1 1713.88 1454.1 M1713.88 1450.39 Q1719.69 1450.39 1722.75 1455 Q1725.82 1459.58 1725.82 1468.33 Q1725.82 1477.06 1722.75 1481.67 Q1719.69 1486.25 1713.88 1486.25 Q1708.07 1486.25 1704.99 1481.67 Q1701.94 1477.06 1701.94 1468.33 Q1701.94 1459.58 1704.99 1455 Q1708.07 1450.39 1713.88 1450.39 Z" fill="#000000" fill-rule="nonzero" fill-opacity="1" /><path clip-path="url(#clip700)" d="M2064.46 1481.64 L2080.78 1481.64 L2080.78 1485.58 L2058.83 1485.58 L2058.83 1481.64 Q2061.49 1478.89 2066.08 1474.26 Q2070.68 1469.61 2071.86 1468.27 Q2074.11 1465.74 2074.99 1464.01 Q2075.89 1462.25 2075.89 1460.56 Q2075.89 1457.8 2073.95 1456.07 Q2072.03 1454.33 2068.93 1454.33 Q2066.73 1454.33 2064.27 1455.09 Q2061.84 1455.86 2059.06 1457.41 L2059.06 1452.69 Q2061.89 1451.55 2064.34 1450.97 Q2066.8 1450.39 2068.83 1450.39 Q2074.2 1450.39 2077.4 1453.08 Q2080.59 1455.77 2080.59 1460.26 Q2080.59 1462.39 2079.78 1464.31 Q2078.99 1466.2 2076.89 1468.8 Q2076.31 1469.47 2073.21 1472.69 Q2070.11 1475.88 2064.46 1481.64 Z" fill="#000000" fill-rule="nonzero" fill-opacity="1" /><path clip-path="url(#clip700)" d="M2100.59 1454.1 Q2096.98 1454.1 2095.15 1457.66 Q2093.35 1461.2 2093.35 1468.33 Q2093.35 1475.44 2095.15 1479.01 Q2096.98 1482.55 2100.59 1482.55 Q2104.23 1482.55 2106.03 1479.01 Q2107.86 1475.44 2107.86 1468.33 Q2107.86 1461.2 2106.03 1457.66 Q2104.23 1454.1 2100.59 1454.1 M2100.59 1450.39 Q2106.4 1450.39 2109.46 1455 Q2112.54 1459.58 2112.54 1468.33 Q2112.54 1477.06 2109.46 1481.67 Q2106.4 1486.25 2100.59 1486.25 Q2094.78 1486.25 2091.7 1481.67 Q2088.65 1477.06 2088.65 1468.33 Q2088.65 1459.58 2091.7 1455 Q2094.78 1450.39 2100.59 1450.39 Z" fill="#000000" fill-rule="nonzero" fill-opacity="1" /><path clip-path="url(#clip700)" d="M2130.75 1454.1 Q2127.14 1454.1 2125.31 1457.66 Q2123.51 1461.2 2123.51 1468.33 Q2123.51 1475.44 2125.31 1479.01 Q2127.14 1482.55 2130.75 1482.55 Q2134.39 1482.55 2136.19 1479.01 Q2138.02 1475.44 2138.02 1468.33 Q2138.02 1461.2 2136.19 1457.66 Q2134.39 1454.1 2130.75 1454.1 M2130.75 1450.39 Q2136.56 1450.39 2139.62 1455 Q2142.7 1459.58 2142.7 1468.33 Q2142.7 1477.06 2139.62 1481.67 Q2136.56 1486.25 2130.75 1486.25 Q2124.94 1486.25 2121.86 1481.67 Q2118.81 1477.06 2118.81 1468.33 Q2118.81 1459.58 2121.86 1455 Q2124.94 1450.39 2130.75 1450.39 Z" fill="#000000" fill-rule="nonzero" fill-opacity="1" /><path clip-path="url(#clip700)" d="M2160.92 1454.1 Q2157.3 1454.1 2155.48 1457.66 Q2153.67 1461.2 2153.67 1468.33 Q2153.67 1475.44 2155.48 1479.01 Q2157.3 1482.55 2160.92 1482.55 Q2164.55 1482.55 2166.36 1479.01 Q2168.18 1475.44 2168.18 1468.33 Q2168.18 1461.2 2166.36 1457.66 Q2164.55 1454.1 2160.92 1454.1 M2160.92 1450.39 Q2166.73 1450.39 2169.78 1455 Q2172.86 1459.58 2172.86 1468.33 Q2172.86 1477.06 2169.78 1481.67 Q2166.73 1486.25 2160.92 1486.25 Q2155.11 1486.25 2152.03 1481.67 Q2148.97 1477.06 2148.97 1468.33 Q2148.97 1459.58 2152.03 1455 Q2155.11 1450.39 2160.92 1450.39 Z" fill="#000000" fill-rule="nonzero" fill-opacity="1" /><path clip-path="url(#clip700)" d="M1263.34 1532.4 L1250.44 1549.74 L1264 1568.04 L1257.1 1568.04 L1246.72 1554.04 L1236.34 1568.04 L1229.44 1568.04 L1243.28 1549.39 L1230.62 1532.4 L1237.52 1532.4 L1246.98 1545.1 L1256.43 1532.4 L1263.34 1532.4 Z" fill="#000000" fill-rule="nonzero" fill-opacity="1" /><path clip-path="url(#clip700)" d="M1292.46 1518.52 L1305.95 1518.52 L1305.95 1523.07 L1298.31 1523.07 L1298.31 1572.09 L1305.95 1572.09 L1305.95 1576.64 L1292.46 1576.64 L1292.46 1518.52 Z" fill="#000000" fill-rule="nonzero" fill-opacity="1" /><path clip-path="url(#clip700)" d="M1346.18 1539.24 Q1348.38 1535.29 1351.44 1533.41 Q1354.49 1531.54 1358.63 1531.54 Q1364.2 1531.54 1367.22 1535.45 Q1370.25 1539.33 1370.25 1546.53 L1370.25 1568.04 L1364.36 1568.04 L1364.36 1546.72 Q1364.36 1541.59 1362.54 1539.11 Q1360.73 1536.63 1357.01 1536.63 Q1352.46 1536.63 1349.81 1539.65 Q1347.17 1542.68 1347.17 1547.9 L1347.17 1568.04 L1341.28 1568.04 L1341.28 1546.72 Q1341.28 1541.56 1339.47 1539.11 Q1337.65 1536.63 1333.87 1536.63 Q1329.38 1536.63 1326.74 1539.68 Q1324.1 1542.71 1324.1 1547.9 L1324.1 1568.04 L1318.21 1568.04 L1318.21 1532.4 L1324.1 1532.4 L1324.1 1537.93 Q1326.1 1534.66 1328.9 1533.1 Q1331.7 1531.54 1335.55 1531.54 Q1339.44 1531.54 1342.14 1533.51 Q1344.88 1535.48 1346.18 1539.24 Z" fill="#000000" fill-rule="nonzero" fill-opacity="1" /><path clip-path="url(#clip700)" d="M1395.61 1518.52 L1395.61 1576.64 L1382.12 1576.64 L1382.12 1572.09 L1389.73 1572.09 L1389.73 1523.07 L1382.12 1523.07 L1382.12 1518.52 L1395.61 1518.52 Z" fill="#000000" fill-rule="nonzero" fill-opacity="1" /><polyline clip-path="url(#clip702)" style="stroke:#000000; stroke-linecap:round; stroke-linejoin:round; stroke-width:2; stroke-opacity:0.1; fill:none" points="272.297,1255.11 2352.76,1255.11 "/>
<polyline clip-path="url(#clip702)" style="stroke:#000000; stroke-linecap:round; stroke-linejoin:round; stroke-width:2; stroke-opacity:0.1; fill:none" points="272.297,1049.4 2352.76,1049.4 "/>
<polyline clip-path="url(#clip702)" style="stroke:#000000; stroke-linecap:round; stroke-linejoin:round; stroke-width:2; stroke-opacity:0.1; fill:none" points="272.297,843.682 2352.76,843.682 "/>
<polyline clip-path="url(#clip702)" style="stroke:#000000; stroke-linecap:round; stroke-linejoin:round; stroke-width:2; stroke-opacity:0.1; fill:none" points="272.297,637.966 2352.76,637.966 "/>
<polyline clip-path="url(#clip702)" style="stroke:#000000; stroke-linecap:round; stroke-linejoin:round; stroke-width:2; stroke-opacity:0.1; fill:none" points="272.297,432.251 2352.76,432.251 "/>
<polyline clip-path="url(#clip702)" style="stroke:#000000; stroke-linecap:round; stroke-linejoin:round; stroke-width:2; stroke-opacity:0.1; fill:none" points="272.297,226.536 2352.76,226.536 "/>
<polyline clip-path="url(#clip700)" style="stroke:#000000; stroke-linecap:round; stroke-linejoin:round; stroke-width:4; stroke-opacity:1; fill:none" points="272.297,1423.18 272.297,123.472 "/>
<polyline clip-path="url(#clip700)" style="stroke:#000000; stroke-linecap:round; stroke-linejoin:round; stroke-width:4; stroke-opacity:1; fill:none" points="272.297,1255.11 291.194,1255.11 "/>
<polyline clip-path="url(#clip700)" style="stroke:#000000; stroke-linecap:round; stroke-linejoin:round; stroke-width:4; stroke-opacity:1; fill:none" points="272.297,1049.4 291.194,1049.4 "/>
<polyline clip-path="url(#clip700)" style="stroke:#000000; stroke-linecap:round; stroke-linejoin:round; stroke-width:4; stroke-opacity:1; fill:none" points="272.297,843.682 291.194,843.682 "/>
<polyline clip-path="url(#clip700)" style="stroke:#000000; stroke-linecap:round; stroke-linejoin:round; stroke-width:4; stroke-opacity:1; fill:none" points="272.297,637.966 291.194,637.966 "/>
<polyline clip-path="url(#clip700)" style="stroke:#000000; stroke-linecap:round; stroke-linejoin:round; stroke-width:4; stroke-opacity:1; fill:none" points="272.297,432.251 291.194,432.251 "/>
<polyline clip-path="url(#clip700)" style="stroke:#000000; stroke-linecap:round; stroke-linejoin:round; stroke-width:4; stroke-opacity:1; fill:none" points="272.297,226.536 291.194,226.536 "/>
<path clip-path="url(#clip700)" d="M114.26 1255.56 L143.936 1255.56 L143.936 1259.5 L114.26 1259.5 L114.26 1255.56 Z" fill="#000000" fill-rule="nonzero" fill-opacity="1" /><path clip-path="url(#clip700)" d="M158.056 1268.46 L174.376 1268.46 L174.376 1272.39 L152.431 1272.39 L152.431 1268.46 Q155.093 1265.7 159.677 1261.07 Q164.283 1256.42 165.464 1255.08 Q167.709 1252.55 168.589 1250.82 Q169.491 1249.06 169.491 1247.37 Q169.491 1244.61 167.547 1242.88 Q165.626 1241.14 162.524 1241.14 Q160.325 1241.14 157.871 1241.91 Q155.44 1242.67 152.663 1244.22 L152.663 1239.5 Q155.487 1238.36 157.94 1237.79 Q160.394 1237.21 162.431 1237.21 Q167.802 1237.21 170.996 1239.89 Q174.19 1242.58 174.19 1247.07 Q174.19 1249.2 173.38 1251.12 Q172.593 1253.02 170.487 1255.61 Q169.908 1256.28 166.806 1259.5 Q163.704 1262.69 158.056 1268.46 Z" fill="#000000" fill-rule="nonzero" fill-opacity="1" /><path clip-path="url(#clip700)" d="M194.19 1240.91 Q190.579 1240.91 188.75 1244.48 Q186.945 1248.02 186.945 1255.15 Q186.945 1262.25 188.75 1265.82 Q190.579 1269.36 194.19 1269.36 Q197.825 1269.36 199.63 1265.82 Q201.459 1262.25 201.459 1255.15 Q201.459 1248.02 199.63 1244.48 Q197.825 1240.91 194.19 1240.91 M194.19 1237.21 Q200 1237.21 203.056 1241.81 Q206.135 1246.4 206.135 1255.15 Q206.135 1263.87 203.056 1268.48 Q200 1273.06 194.19 1273.06 Q188.38 1273.06 185.301 1268.48 Q182.246 1263.87 182.246 1255.15 Q182.246 1246.4 185.301 1241.81 Q188.38 1237.21 194.19 1237.21 Z" fill="#000000" fill-rule="nonzero" fill-opacity="1" /><path clip-path="url(#clip700)" d="M224.352 1240.91 Q220.741 1240.91 218.912 1244.48 Q217.107 1248.02 217.107 1255.15 Q217.107 1262.25 218.912 1265.82 Q220.741 1269.36 224.352 1269.36 Q227.986 1269.36 229.792 1265.82 Q231.621 1262.25 231.621 1255.15 Q231.621 1248.02 229.792 1244.48 Q227.986 1240.91 224.352 1240.91 M224.352 1237.21 Q230.162 1237.21 233.218 1241.81 Q236.297 1246.4 236.297 1255.15 Q236.297 1263.87 233.218 1268.48 Q230.162 1273.06 224.352 1273.06 Q218.542 1273.06 215.463 1268.48 Q212.408 1263.87 212.408 1255.15 Q212.408 1246.4 215.463 1241.81 Q218.542 1237.21 224.352 1237.21 Z" fill="#000000" fill-rule="nonzero" fill-opacity="1" /><path clip-path="url(#clip700)" d="M114.26 1049.85 L143.936 1049.85 L143.936 1053.78 L114.26 1053.78 L114.26 1049.85 Z" fill="#000000" fill-rule="nonzero" fill-opacity="1" /><path clip-path="url(#clip700)" d="M154.839 1062.74 L162.477 1062.74 L162.477 1036.38 L154.167 1038.04 L154.167 1033.78 L162.431 1032.12 L167.107 1032.12 L167.107 1062.74 L174.746 1062.74 L174.746 1066.68 L154.839 1066.68 L154.839 1062.74 Z" fill="#000000" fill-rule="nonzero" fill-opacity="1" /><path clip-path="url(#clip700)" d="M194.19 1035.2 Q190.579 1035.2 188.75 1038.76 Q186.945 1042.3 186.945 1049.43 Q186.945 1056.54 188.75 1060.1 Q190.579 1063.64 194.19 1063.64 Q197.825 1063.64 199.63 1060.1 Q201.459 1056.54 201.459 1049.43 Q201.459 1042.3 199.63 1038.76 Q197.825 1035.2 194.19 1035.2 M194.19 1031.49 Q200 1031.49 203.056 1036.1 Q206.135 1040.68 206.135 1049.43 Q206.135 1058.16 203.056 1062.76 Q200 1067.35 194.19 1067.35 Q188.38 1067.35 185.301 1062.76 Q182.246 1058.16 182.246 1049.43 Q182.246 1040.68 185.301 1036.1 Q188.38 1031.49 194.19 1031.49 Z" fill="#000000" fill-rule="nonzero" fill-opacity="1" /><path clip-path="url(#clip700)" d="M224.352 1035.2 Q220.741 1035.2 218.912 1038.76 Q217.107 1042.3 217.107 1049.43 Q217.107 1056.54 218.912 1060.1 Q220.741 1063.64 224.352 1063.64 Q227.986 1063.64 229.792 1060.1 Q231.621 1056.54 231.621 1049.43 Q231.621 1042.3 229.792 1038.76 Q227.986 1035.2 224.352 1035.2 M224.352 1031.49 Q230.162 1031.49 233.218 1036.1 Q236.297 1040.68 236.297 1049.43 Q236.297 1058.16 233.218 1062.76 Q230.162 1067.35 224.352 1067.35 Q218.542 1067.35 215.463 1062.76 Q212.408 1058.16 212.408 1049.43 Q212.408 1040.68 215.463 1036.1 Q218.542 1031.49 224.352 1031.49 Z" fill="#000000" fill-rule="nonzero" fill-opacity="1" /><path clip-path="url(#clip700)" d="M224.352 829.48 Q220.741 829.48 218.912 833.045 Q217.107 836.587 217.107 843.716 Q217.107 850.823 218.912 854.388 Q220.741 857.929 224.352 857.929 Q227.986 857.929 229.792 854.388 Q231.621 850.823 231.621 843.716 Q231.621 836.587 229.792 833.045 Q227.986 829.48 224.352 829.48 M224.352 825.777 Q230.162 825.777 233.218 830.383 Q236.297 834.966 236.297 843.716 Q236.297 852.443 233.218 857.05 Q230.162 861.633 224.352 861.633 Q218.542 861.633 215.463 857.05 Q212.408 852.443 212.408 843.716 Q212.408 834.966 215.463 830.383 Q218.542 825.777 224.352 825.777 Z" fill="#000000" fill-rule="nonzero" fill-opacity="1" /><path clip-path="url(#clip700)" d="M154.839 651.311 L162.477 651.311 L162.477 624.946 L154.167 626.612 L154.167 622.353 L162.431 620.686 L167.107 620.686 L167.107 651.311 L174.746 651.311 L174.746 655.246 L154.839 655.246 L154.839 651.311 Z" fill="#000000" fill-rule="nonzero" fill-opacity="1" /><path clip-path="url(#clip700)" d="M194.19 623.765 Q190.579 623.765 188.75 627.33 Q186.945 630.871 186.945 638.001 Q186.945 645.107 188.75 648.672 Q190.579 652.214 194.19 652.214 Q197.825 652.214 199.63 648.672 Q201.459 645.107 201.459 638.001 Q201.459 630.871 199.63 627.33 Q197.825 623.765 194.19 623.765 M194.19 620.061 Q200 620.061 203.056 624.668 Q206.135 629.251 206.135 638.001 Q206.135 646.728 203.056 651.334 Q200 655.918 194.19 655.918 Q188.38 655.918 185.301 651.334 Q182.246 646.728 182.246 638.001 Q182.246 629.251 185.301 624.668 Q188.38 620.061 194.19 620.061 Z" fill="#000000" fill-rule="nonzero" fill-opacity="1" /><path clip-path="url(#clip700)" d="M224.352 623.765 Q220.741 623.765 218.912 627.33 Q217.107 630.871 217.107 638.001 Q217.107 645.107 218.912 648.672 Q220.741 652.214 224.352 652.214 Q227.986 652.214 229.792 648.672 Q231.621 645.107 231.621 638.001 Q231.621 630.871 229.792 627.33 Q227.986 623.765 224.352 623.765 M224.352 620.061 Q230.162 620.061 233.218 624.668 Q236.297 629.251 236.297 638.001 Q236.297 646.728 233.218 651.334 Q230.162 655.918 224.352 655.918 Q218.542 655.918 215.463 651.334 Q212.408 646.728 212.408 638.001 Q212.408 629.251 215.463 624.668 Q218.542 620.061 224.352 620.061 Z" fill="#000000" fill-rule="nonzero" fill-opacity="1" /><path clip-path="url(#clip700)" d="M158.056 445.596 L174.376 445.596 L174.376 449.531 L152.431 449.531 L152.431 445.596 Q155.093 442.841 159.677 438.212 Q164.283 433.559 165.464 432.216 Q167.709 429.693 168.589 427.957 Q169.491 426.198 169.491 424.508 Q169.491 421.753 167.547 420.017 Q165.626 418.281 162.524 418.281 Q160.325 418.281 157.871 419.045 Q155.44 419.809 152.663 421.36 L152.663 416.638 Q155.487 415.504 157.94 414.925 Q160.394 414.346 162.431 414.346 Q167.802 414.346 170.996 417.031 Q174.19 419.716 174.19 424.207 Q174.19 426.337 173.38 428.258 Q172.593 430.156 170.487 432.749 Q169.908 433.42 166.806 436.638 Q163.704 439.832 158.056 445.596 Z" fill="#000000" fill-rule="nonzero" fill-opacity="1" /><path clip-path="url(#clip700)" d="M194.19 418.05 Q190.579 418.05 188.75 421.615 Q186.945 425.156 186.945 432.286 Q186.945 439.392 188.75 442.957 Q190.579 446.499 194.19 446.499 Q197.825 446.499 199.63 442.957 Q201.459 439.392 201.459 432.286 Q201.459 425.156 199.63 421.615 Q197.825 418.05 194.19 418.05 M194.19 414.346 Q200 414.346 203.056 418.953 Q206.135 423.536 206.135 432.286 Q206.135 441.013 203.056 445.619 Q200 450.202 194.19 450.202 Q188.38 450.202 185.301 445.619 Q182.246 441.013 182.246 432.286 Q182.246 423.536 185.301 418.953 Q188.38 414.346 194.19 414.346 Z" fill="#000000" fill-rule="nonzero" fill-opacity="1" /><path clip-path="url(#clip700)" d="M224.352 418.05 Q220.741 418.05 218.912 421.615 Q217.107 425.156 217.107 432.286 Q217.107 439.392 218.912 442.957 Q220.741 446.499 224.352 446.499 Q227.986 446.499 229.792 442.957 Q231.621 439.392 231.621 432.286 Q231.621 425.156 229.792 421.615 Q227.986 418.05 224.352 418.05 M224.352 414.346 Q230.162 414.346 233.218 418.953 Q236.297 423.536 236.297 432.286 Q236.297 441.013 233.218 445.619 Q230.162 450.202 224.352 450.202 Q218.542 450.202 215.463 445.619 Q212.408 441.013 212.408 432.286 Q212.408 423.536 215.463 418.953 Q218.542 414.346 224.352 414.346 Z" fill="#000000" fill-rule="nonzero" fill-opacity="1" /><path clip-path="url(#clip700)" d="M168.195 225.182 Q171.552 225.899 173.427 228.168 Q175.325 230.436 175.325 233.77 Q175.325 238.885 171.806 241.686 Q168.288 244.487 161.806 244.487 Q159.63 244.487 157.315 244.047 Q155.024 243.631 152.57 242.774 L152.57 238.26 Q154.515 239.395 156.829 239.973 Q159.144 240.552 161.667 240.552 Q166.065 240.552 168.357 238.816 Q170.672 237.08 170.672 233.77 Q170.672 230.714 168.519 229.001 Q166.39 227.265 162.57 227.265 L158.542 227.265 L158.542 223.422 L162.755 223.422 Q166.204 223.422 168.033 222.057 Q169.862 220.668 169.862 218.075 Q169.862 215.413 167.964 214.001 Q166.089 212.566 162.57 212.566 Q160.649 212.566 158.45 212.983 Q156.251 213.399 153.612 214.279 L153.612 210.112 Q156.274 209.372 158.589 209.001 Q160.927 208.631 162.987 208.631 Q168.311 208.631 171.413 211.061 Q174.514 213.469 174.514 217.589 Q174.514 220.46 172.871 222.45 Q171.227 224.418 168.195 225.182 Z" fill="#000000" fill-rule="nonzero" fill-opacity="1" /><path clip-path="url(#clip700)" d="M194.19 212.335 Q190.579 212.335 188.75 215.899 Q186.945 219.441 186.945 226.571 Q186.945 233.677 188.75 237.242 Q190.579 240.783 194.19 240.783 Q197.825 240.783 199.63 237.242 Q201.459 233.677 201.459 226.571 Q201.459 219.441 199.63 215.899 Q197.825 212.335 194.19 212.335 M194.19 208.631 Q200 208.631 203.056 213.237 Q206.135 217.821 206.135 226.571 Q206.135 235.297 203.056 239.904 Q200 244.487 194.19 244.487 Q188.38 244.487 185.301 239.904 Q182.246 235.297 182.246 226.571 Q182.246 217.821 185.301 213.237 Q188.38 208.631 194.19 208.631 Z" fill="#000000" fill-rule="nonzero" fill-opacity="1" /><path clip-path="url(#clip700)" d="M224.352 212.335 Q220.741 212.335 218.912 215.899 Q217.107 219.441 217.107 226.571 Q217.107 233.677 218.912 237.242 Q220.741 240.783 224.352 240.783 Q227.986 240.783 229.792 237.242 Q231.621 233.677 231.621 226.571 Q231.621 219.441 229.792 215.899 Q227.986 212.335 224.352 212.335 M224.352 208.631 Q230.162 208.631 233.218 213.237 Q236.297 217.821 236.297 226.571 Q236.297 235.297 233.218 239.904 Q230.162 244.487 224.352 244.487 Q218.542 244.487 215.463 239.904 Q212.408 235.297 212.408 226.571 Q212.408 217.821 215.463 213.237 Q218.542 208.631 224.352 208.631 Z" fill="#000000" fill-rule="nonzero" fill-opacity="1" /><path clip-path="url(#clip700)" d="M28.3562 852.977 L28.3562 825.159 L33.7034 825.159 L59.3254 847.184 L59.3254 825.159 L64.0042 825.159 L64.0042 853.773 L58.657 853.773 L33.035 831.747 L33.035 852.977 L28.3562 852.977 Z" fill="#000000" fill-rule="nonzero" fill-opacity="1" /><path clip-path="url(#clip700)" d="M14.479 796.036 L14.479 782.54 L19.0304 782.54 L19.0304 790.179 L68.0464 790.179 L68.0464 782.54 L72.5979 782.54 L72.5979 796.036 L14.479 796.036 Z" fill="#000000" fill-rule="nonzero" fill-opacity="1" /><path clip-path="url(#clip700)" d="M35.1993 742.309 Q31.2526 740.113 29.3747 737.057 Q27.4968 734.002 27.4968 729.864 Q27.4968 724.294 31.4117 721.27 Q35.2948 718.247 42.4881 718.247 L64.0042 718.247 L64.0042 724.135 L42.679 724.135 Q37.5546 724.135 35.072 725.949 Q32.5894 727.763 32.5894 731.487 Q32.5894 736.039 35.6131 738.681 Q38.6368 741.322 43.8567 741.322 L64.0042 741.322 L64.0042 747.211 L42.679 747.211 Q37.5228 747.211 35.072 749.025 Q32.5894 750.839 32.5894 754.627 Q32.5894 759.115 35.6449 761.756 Q38.6686 764.398 43.8567 764.398 L64.0042 764.398 L64.0042 770.286 L28.3562 770.286 L28.3562 764.398 L33.8944 764.398 Q30.616 762.393 29.0564 759.592 Q27.4968 756.791 27.4968 752.94 Q27.4968 749.057 29.4702 746.351 Q31.4436 743.614 35.1993 742.309 Z" fill="#000000" fill-rule="nonzero" fill-opacity="1" /><path clip-path="url(#clip700)" d="M14.479 692.879 L72.5979 692.879 L72.5979 706.375 L68.0464 706.375 L68.0464 698.768 L19.0304 698.768 L19.0304 706.375 L14.479 706.375 L14.479 692.879 Z" fill="#000000" fill-rule="nonzero" fill-opacity="1" /><path clip-path="url(#clip700)" d="M886.553 12.096 L924.794 12.096 L924.794 18.9825 L894.736 18.9825 L894.736 36.8875 L923.538 36.8875 L923.538 43.7741 L894.736 43.7741 L894.736 65.6895 L925.523 65.6895 L925.523 72.576 L886.553 72.576 L886.553 12.096 Z" fill="#000000" fill-rule="nonzero" fill-opacity="1" /><path clip-path="url(#clip700)" d="M976.362 27.2059 L959.956 49.2833 L977.213 72.576 L968.422 72.576 L955.216 54.752 L942.01 72.576 L933.22 72.576 L950.841 48.8377 L934.719 27.2059 L943.509 27.2059 L955.54 43.369 L967.571 27.2059 L976.362 27.2059 Z" fill="#000000" fill-rule="nonzero" fill-opacity="1" /><path clip-path="url(#clip700)" d="M1008.36 49.7694 Q999.331 49.7694 995.847 51.8354 Q992.363 53.9013 992.363 58.8839 Q992.363 62.8538 994.956 65.2034 Q997.589 67.5124 1002.09 67.5124 Q1008.28 67.5124 1012.01 63.1374 Q1015.78 58.7219 1015.78 51.4303 L1015.78 49.7694 L1008.36 49.7694 M1023.23 46.6907 L1023.23 72.576 L1015.78 72.576 L1015.78 65.6895 Q1013.23 69.8214 1009.42 71.8063 Q1005.61 73.7508 1000.1 73.7508 Q993.133 73.7508 989.001 69.8619 Q984.909 65.9325 984.909 59.3701 Q984.909 51.7138 990.013 47.825 Q995.158 43.9361 1005.33 43.9361 L1015.78 43.9361 L1015.78 43.2069 Q1015.78 38.0623 1012.37 35.2672 Q1009.01 32.4315 1002.9 32.4315 Q999.006 32.4315 995.32 33.3632 Q991.634 34.295 988.231 36.1584 L988.231 29.2718 Q992.322 27.692 996.171 26.9223 Q1000.02 26.1121 1003.67 26.1121 Q1013.51 26.1121 1018.37 31.2163 Q1023.23 36.3204 1023.23 46.6907 Z" fill="#000000" fill-rule="nonzero" fill-opacity="1" /><path clip-path="url(#clip700)" d="M1073.91 35.9153 Q1076.7 30.8922 1080.59 28.5022 Q1084.48 26.1121 1089.75 26.1121 Q1096.84 26.1121 1100.68 31.0947 Q1104.53 36.0368 1104.53 45.1919 L1104.53 72.576 L1097.04 72.576 L1097.04 45.4349 Q1097.04 38.913 1094.73 35.7533 Q1092.42 32.5936 1087.68 32.5936 Q1081.89 32.5936 1078.53 36.4419 Q1075.16 40.2903 1075.16 46.9338 L1075.16 72.576 L1067.67 72.576 L1067.67 45.4349 Q1067.67 38.8725 1065.36 35.7533 Q1063.05 32.5936 1058.23 32.5936 Q1052.52 32.5936 1049.16 36.4824 Q1045.79 40.3308 1045.79 46.9338 L1045.79 72.576 L1038.3 72.576 L1038.3 27.2059 L1045.79 27.2059 L1045.79 34.2544 Q1048.35 30.082 1051.91 28.0971 Q1055.48 26.1121 1060.38 26.1121 Q1065.32 26.1121 1068.76 28.6237 Q1072.25 31.1352 1073.91 35.9153 Z" fill="#000000" fill-rule="nonzero" fill-opacity="1" /><path clip-path="url(#clip700)" d="M1126.61 65.7705 L1126.61 89.8329 L1119.12 89.8329 L1119.12 27.2059 L1126.61 27.2059 L1126.61 34.0924 Q1128.96 30.0415 1132.52 28.0971 Q1136.13 26.1121 1141.11 26.1121 Q1149.38 26.1121 1154.52 32.6746 Q1159.71 39.2371 1159.71 49.9314 Q1159.71 60.6258 1154.52 67.1883 Q1149.38 73.7508 1141.11 73.7508 Q1136.13 73.7508 1132.52 71.8063 Q1128.96 69.8214 1126.61 65.7705 M1151.97 49.9314 Q1151.97 41.7081 1148.57 37.0496 Q1145.2 32.3505 1139.29 32.3505 Q1133.37 32.3505 1129.97 37.0496 Q1126.61 41.7081 1126.61 49.9314 Q1126.61 58.1548 1129.97 62.8538 Q1133.37 67.5124 1139.29 67.5124 Q1145.2 67.5124 1148.57 62.8538 Q1151.97 58.1548 1151.97 49.9314 Z" fill="#000000" fill-rule="nonzero" fill-opacity="1" /><path clip-path="url(#clip700)" d="M1172.06 9.54393 L1179.51 9.54393 L1179.51 72.576 L1172.06 72.576 L1172.06 9.54393 Z" fill="#000000" fill-rule="nonzero" fill-opacity="1" /><path clip-path="url(#clip700)" d="M1233.92 48.0275 L1233.92 51.6733 L1199.65 51.6733 Q1200.13 59.3701 1204.27 63.421 Q1208.44 67.4314 1215.85 67.4314 Q1220.15 67.4314 1224.16 66.3781 Q1228.21 65.3249 1232.18 63.2184 L1232.18 70.267 Q1228.17 71.9684 1223.95 72.8596 Q1219.74 73.7508 1215.41 73.7508 Q1204.55 73.7508 1198.19 67.4314 Q1191.87 61.1119 1191.87 50.3365 Q1191.87 39.1965 1197.87 32.6746 Q1203.9 26.1121 1214.11 26.1121 Q1223.26 26.1121 1228.57 32.0264 Q1233.92 37.9003 1233.92 48.0275 M1226.46 45.84 Q1226.38 39.7232 1223.02 36.0774 Q1219.7 32.4315 1214.19 32.4315 Q1207.95 32.4315 1204.18 35.9558 Q1200.46 39.4801 1199.89 45.8805 L1226.46 45.84 Z" fill="#000000" fill-rule="nonzero" fill-opacity="1" /><path clip-path="url(#clip700)" d="M1264.46 12.096 L1315.63 12.096 L1315.63 18.9825 L1294.16 18.9825 L1294.16 72.576 L1285.93 72.576 L1285.93 18.9825 L1264.46 18.9825 L1264.46 12.096 Z" fill="#000000" fill-rule="nonzero" fill-opacity="1" /><path clip-path="url(#clip700)" d="M1337.3 34.1734 Q1336.04 33.4443 1334.54 33.1202 Q1333.08 32.7556 1331.3 32.7556 Q1324.98 32.7556 1321.58 36.8875 Q1318.22 40.9789 1318.22 48.6757 L1318.22 72.576 L1310.72 72.576 L1310.72 27.2059 L1318.22 27.2059 L1318.22 34.2544 Q1320.57 30.1225 1324.33 28.1376 Q1328.1 26.1121 1333.49 26.1121 Q1334.26 26.1121 1335.19 26.2337 Q1336.12 26.3147 1337.26 26.5172 L1337.3 34.1734 Z" fill="#000000" fill-rule="nonzero" fill-opacity="1" /><path clip-path="url(#clip700)" d="M1365.73 49.7694 Q1356.7 49.7694 1353.22 51.8354 Q1349.73 53.9013 1349.73 58.8839 Q1349.73 62.8538 1352.33 65.2034 Q1354.96 67.5124 1359.46 67.5124 Q1365.65 67.5124 1369.38 63.1374 Q1373.15 58.7219 1373.15 51.4303 L1373.15 49.7694 L1365.73 49.7694 M1380.6 46.6907 L1380.6 72.576 L1373.15 72.576 L1373.15 65.6895 Q1370.6 69.8214 1366.79 71.8063 Q1362.98 73.7508 1357.47 73.7508 Q1350.5 73.7508 1346.37 69.8619 Q1342.28 65.9325 1342.28 59.3701 Q1342.28 51.7138 1347.38 47.825 Q1352.53 43.9361 1362.7 43.9361 L1373.15 43.9361 L1373.15 43.2069 Q1373.15 38.0623 1369.75 35.2672 Q1366.38 32.4315 1360.27 32.4315 Q1356.38 32.4315 1352.69 33.3632 Q1349 34.295 1345.6 36.1584 L1345.6 29.2718 Q1349.69 27.692 1353.54 26.9223 Q1357.39 26.1121 1361.04 26.1121 Q1370.88 26.1121 1375.74 31.2163 Q1380.6 36.3204 1380.6 46.6907 Z" fill="#000000" fill-rule="nonzero" fill-opacity="1" /><path clip-path="url(#clip700)" d="M1395.95 27.2059 L1403.41 27.2059 L1403.41 73.3862 Q1403.41 82.0551 1400.09 85.944 Q1396.81 89.8329 1389.47 89.8329 L1386.64 89.8329 L1386.64 83.5134 L1388.62 83.5134 Q1392.88 83.5134 1394.42 81.5285 Q1395.95 79.5841 1395.95 73.3862 L1395.95 27.2059 M1395.95 9.54393 L1403.41 9.54393 L1403.41 18.9825 L1395.95 18.9825 L1395.95 9.54393 Z" fill="#000000" fill-rule="nonzero" fill-opacity="1" /><path clip-path="url(#clip700)" d="M1457.81 48.0275 L1457.81 51.6733 L1423.54 51.6733 Q1424.03 59.3701 1428.16 63.421 Q1432.33 67.4314 1439.74 67.4314 Q1444.04 67.4314 1448.05 66.3781 Q1452.1 65.3249 1456.07 63.2184 L1456.07 70.267 Q1452.06 71.9684 1447.85 72.8596 Q1443.63 73.7508 1439.3 73.7508 Q1428.44 73.7508 1422.08 67.4314 Q1415.76 61.1119 1415.76 50.3365 Q1415.76 39.1965 1421.76 32.6746 Q1427.79 26.1121 1438 26.1121 Q1447.16 26.1121 1452.46 32.0264 Q1457.81 37.9003 1457.81 48.0275 M1450.36 45.84 Q1450.28 39.7232 1446.91 36.0774 Q1443.59 32.4315 1438.08 32.4315 Q1431.85 32.4315 1428.08 35.9558 Q1424.35 39.4801 1423.78 45.8805 L1450.36 45.84 Z" fill="#000000" fill-rule="nonzero" fill-opacity="1" /><path clip-path="url(#clip700)" d="M1502.7 28.9478 L1502.7 35.9153 Q1499.54 34.1734 1496.34 33.3227 Q1493.18 32.4315 1489.94 32.4315 Q1482.68 32.4315 1478.67 37.0496 Q1474.66 41.6271 1474.66 49.9314 Q1474.66 58.2358 1478.67 62.8538 Q1482.68 67.4314 1489.94 67.4314 Q1493.18 67.4314 1496.34 66.5807 Q1499.54 65.6895 1502.7 63.9476 L1502.7 70.8341 Q1499.58 72.2924 1496.21 73.0216 Q1492.89 73.7508 1489.13 73.7508 Q1478.88 73.7508 1472.84 67.3098 Q1466.8 60.8689 1466.8 49.9314 Q1466.8 38.832 1472.88 32.472 Q1479 26.1121 1489.61 26.1121 Q1493.05 26.1121 1496.34 26.8413 Q1499.62 27.5299 1502.7 28.9478 Z" fill="#000000" fill-rule="nonzero" fill-opacity="1" /><path clip-path="url(#clip700)" d="M1523.03 14.324 L1523.03 27.2059 L1538.38 27.2059 L1538.38 32.9987 L1523.03 32.9987 L1523.03 57.6282 Q1523.03 63.1779 1524.53 64.7578 Q1526.07 66.3376 1530.73 66.3376 L1538.38 66.3376 L1538.38 72.576 L1530.73 72.576 Q1522.1 72.576 1518.82 69.3758 Q1515.54 66.1351 1515.54 57.6282 L1515.54 32.9987 L1510.07 32.9987 L1510.07 27.2059 L1515.54 27.2059 L1515.54 14.324 L1523.03 14.324 Z" fill="#000000" fill-rule="nonzero" fill-opacity="1" /><path clip-path="url(#clip700)" d="M1565.77 32.4315 Q1559.77 32.4315 1556.29 37.1306 Q1552.81 41.7891 1552.81 49.9314 Q1552.81 58.0738 1556.25 62.7728 Q1559.73 67.4314 1565.77 67.4314 Q1571.72 67.4314 1575.21 62.7323 Q1578.69 58.0333 1578.69 49.9314 Q1578.69 41.8701 1575.21 37.1711 Q1571.72 32.4315 1565.77 32.4315 M1565.77 26.1121 Q1575.49 26.1121 1581.04 32.4315 Q1586.59 38.7509 1586.59 49.9314 Q1586.59 61.0714 1581.04 67.4314 Q1575.49 73.7508 1565.77 73.7508 Q1556.01 73.7508 1550.46 67.4314 Q1544.95 61.0714 1544.95 49.9314 Q1544.95 38.7509 1550.46 32.4315 Q1556.01 26.1121 1565.77 26.1121 Z" fill="#000000" fill-rule="nonzero" fill-opacity="1" /><path clip-path="url(#clip700)" d="M1625.24 34.1734 Q1623.98 33.4443 1622.48 33.1202 Q1621.02 32.7556 1619.24 32.7556 Q1612.92 32.7556 1609.52 36.8875 Q1606.16 40.9789 1606.16 48.6757 L1606.16 72.576 L1598.66 72.576 L1598.66 27.2059 L1606.16 27.2059 L1606.16 34.2544 Q1608.51 30.1225 1612.27 28.1376 Q1616.04 26.1121 1621.43 26.1121 Q1622.2 26.1121 1623.13 26.2337 Q1624.06 26.3147 1625.2 26.5172 L1625.24 34.1734 Z" fill="#000000" fill-rule="nonzero" fill-opacity="1" /><path clip-path="url(#clip700)" d="M1633.05 27.2059 L1640.51 27.2059 L1640.51 72.576 L1633.05 72.576 L1633.05 27.2059 M1633.05 9.54393 L1640.51 9.54393 L1640.51 18.9825 L1633.05 18.9825 L1633.05 9.54393 Z" fill="#000000" fill-rule="nonzero" fill-opacity="1" /><path clip-path="url(#clip700)" d="M1694.91 48.0275 L1694.91 51.6733 L1660.64 51.6733 Q1661.13 59.3701 1665.26 63.421 Q1669.43 67.4314 1676.84 67.4314 Q1681.14 67.4314 1685.15 66.3781 Q1689.2 65.3249 1693.17 63.2184 L1693.17 70.267 Q1689.16 71.9684 1684.95 72.8596 Q1680.73 73.7508 1676.4 73.7508 Q1665.54 73.7508 1659.18 67.4314 Q1652.86 61.1119 1652.86 50.3365 Q1652.86 39.1965 1658.86 32.6746 Q1664.89 26.1121 1675.1 26.1121 Q1684.26 26.1121 1689.56 32.0264 Q1694.91 37.9003 1694.91 48.0275 M1687.46 45.84 Q1687.38 39.7232 1684.01 36.0774 Q1680.69 32.4315 1675.18 32.4315 Q1668.95 32.4315 1665.18 35.9558 Q1661.45 39.4801 1660.88 45.8805 L1687.46 45.84 Z" fill="#000000" fill-rule="nonzero" fill-opacity="1" /><path clip-path="url(#clip700)" d="M1736.07 28.5427 L1736.07 35.5912 Q1732.91 33.9709 1729.51 33.1607 Q1726.1 32.3505 1722.46 32.3505 Q1716.91 32.3505 1714.11 34.0519 Q1711.36 35.7533 1711.36 39.156 Q1711.36 41.7486 1713.34 43.2475 Q1715.33 44.7058 1721.32 46.0426 L1723.88 46.6097 Q1731.82 48.3111 1735.14 51.4303 Q1738.5 54.509 1738.5 60.0587 Q1738.5 66.3781 1733.48 70.0644 Q1728.49 73.7508 1719.74 73.7508 Q1716.1 73.7508 1712.13 73.0216 Q1708.2 72.3329 1703.82 70.9151 L1703.82 63.2184 Q1707.96 65.3654 1711.97 66.4591 Q1715.98 67.5124 1719.91 67.5124 Q1725.17 67.5124 1728.01 65.73 Q1730.84 63.9071 1730.84 60.6258 Q1730.84 57.5877 1728.78 55.9673 Q1726.75 54.3469 1719.82 52.8481 L1717.23 52.2405 Q1710.3 50.7821 1707.23 47.7845 Q1704.15 44.7463 1704.15 39.4801 Q1704.15 33.0797 1708.68 29.5959 Q1713.22 26.1121 1721.57 26.1121 Q1725.7 26.1121 1729.34 26.7198 Q1732.99 27.3274 1736.07 28.5427 Z" fill="#000000" fill-rule="nonzero" fill-opacity="1" /><polyline clip-path="url(#clip702)" style="stroke:#009af9; stroke-linecap:round; stroke-linejoin:round; stroke-width:4; stroke-opacity:1; fill:none" points="331.177,740.824 341.673,740.99 351.681,741.466 362.458,741.995 372.921,742.402 382.493,742.649 391.867,742.293 402.151,741.75 413.058,741.232 423.988,740.697 434.174,740.413 444.148,740.077 454.44,740.036 465.056,740.245 475.689,740.781 486.175,741.38 496.552,741.899 506.982,742.99 517.458,744.539 527.408,745.991 537.261,747.344 547.379,749.141 557.508,751.823 567.644,755.436 577.691,759.192 588.598,763.061 599.487,766.624 609.826,770.158 619.907,774.133 630.365,778.528 640.413,783.173 649.739,787.94 659.06,793.029 668.675,798.37 678.506,803.673 688.81,809.216 698.41,814.926 707.742,820.696 716.466,826.257 725.314,832.138 734.688,838.575 744.282,845.603 754.028,852.73 762.816,858.784 771.224,864.348 780.28,869.668 790.641,874.643 801.298,879.895 811.992,885.609 822.406,891.436 832.334,896.741 842.323,901.876 851.916,907.339 861.305,913.251 870.21,918.812 878.829,923.437 888.471,928.14 898.794,932.893 908.788,936.867 918.546,940.132 928.465,943.676 937.686,947.743 946.677,952.427 955.99,957.424 965.566,962.097 975.37,966.845 985.208,971.38 994.302,975.784 1003.06,980.468 1012.01,985.103 1021.6,989.907 1031.52,994.739 1041.08,998.963 1050.92,1002.97 1060.98,1007.02 1070.46,1010.56 1079.31,1013.65 1088.04,1016.7 1097.1,1019.59 1106.37,1022.19 1115.11,1024.86 1123.94,1028.09 1133.36,1032.27 1143.06,1036.78 1152.91,1041.53 1162.73,1046.88 1172.29,1052.8 1181.45,1059.18 1191.45,1066.16 1201.83,1072.83 1211.63,1078.78 1221.21,1084.76 1231.02,1091.5 1241.15,1099.12 1251.31,1106.75 1261.25,1114.15 1271.06,1121.38 1280.62,1128.22 1289.71,1134.6 1299.02,1140.92 1307.92,1147.09 1316.76,1153.43 1325.31,1159.78 1333.44,1166.24 1342.11,1173.6 1350.46,1180.57 1358.01,1186.55 1365.38,1192.64 1374.14,1199.74 1383.75,1206.67 1393.45,1213.46 1403.27,1220.72 1413.23,1228.67 1422.38,1236.39 1430.61,1243.03 1439.04,1249.11 1448.29,1254.7 1458.39,1260.07 1468.43,1265.09 1478.87,1268.99 1489.56,1271.91 1500.63,1275.13 1511.58,1278.55 1521.94,1281.67 1532.33,1284.89 1541.93,1288.32 1550.78,1291.98 1560.72,1296.27 1570.86,1300.53 1581.03,1304.67 1591.08,1309.08 1601.15,1314.39 1610.7,1319.23 1620.1,1323.08 1629.42,1327.01 1639.15,1331.54 1649.06,1335.56 1659.04,1339.17 1669.2,1342.88 1678.88,1346.52 1689.4,1350.17 1700.53,1353.59 1710.91,1356.77 1720.55,1359.08 1730.77,1361.28 1741.72,1363.93 1752.73,1366.48 1762.89,1368.69 1772.54,1370.68 1782.28,1372.16 1791.83,1372.51 1801.39,1372.64 1811.33,1373.26 1821.45,1373.41 1830.95,1373.17 1840.21,1373.5 1849.49,1374.13 1858.87,1374.69 1869.11,1375.65 1880.2,1377.09 1891.21,1378.39 1901.16,1378.94 1910.86,1379.4 1920.68,1379.87 1930.56,1379.98 1939.93,1379.99 1950.54,1379.99 1961.58,1380.46 1971.39,1381.2 1980.96,1382.18 1991.22,1383.38 2001.92,1384.45 2012.13,1385.65 2021.79,1386.4 2031.73,1386.12 2043.27,1385.41 2054.91,1384.79 2065.73,1383.52 2075.35,1381.31 2084.38,1378.46 2093.95,1375.34 2104.12,1372.15 2114.16,1368.77 2123.67,1365.24 2132.56,1361.68 2141.83,1357.84 2151.55,1353.88 2161.52,1350.2 2171.65,1346.36 2181.98,1342.4 2192.11,1338.81 2201.86,1336.05 2211.68,1334.44 2221.33,1333.39 2230.94,1332.26 2241.57,1331.27 2252.71,1329.92 2263.46,1328.18 2273.84,1326.69 2284.09,1324.65 2293.87,1321.76 "/>
<polyline clip-path="url(#clip702)" style="stroke:#e26f46; stroke-linecap:round; stroke-linejoin:round; stroke-width:4; stroke-opacity:1; fill:none" points="331.177,740.824 342.082,740.901 352.249,740.89 361.775,740.834 371.728,740.33 381.314,739.198 389.789,738.014 398.731,737.016 408.378,735.848 417.817,734.193 427.407,732.322 437.695,730.292 448.055,727.911 458.142,725.128 467.528,722.256 476.698,719.401 486.039,716.692 495.951,713.748 505.589,711.18 514.446,709.307 523.663,707.685 533.487,706.067 543.945,703.398 554.321,700.311 563.911,697.477 573.043,694.228 582.416,690.999 591.941,688.318 601.522,686.162 611.123,684.57 620.822,682.999 630.582,681.162 639.912,679.638 649.283,677.828 658.908,675.231 668.824,672.717 678.639,670.551 688.933,668.448 699.819,666.236 710.103,663.593 720.129,660.511 730.507,657.45 740.076,654.421 748.597,651.561 756.892,649.088 765.36,646.785 774.272,645.05 783.715,643.575 793.737,641.429 803.287,639.36 812.719,637.529 822.389,634.996 832.706,632.365 843.487,630.427 854.206,629.02 864.398,627.801 874.238,626.987 883.983,626.888 894.108,626.989 904.419,626.823 914.59,626.357 924.879,625.96 935.363,625.638 945.896,625.391 956.343,624.971 967.024,624.434 977.781,624.138 987.913,623.521 998.215,622.198 1008.9,620.656 1018.85,619.406 1028.23,618.481 1037.97,617.758 1048.04,617.454 1058.43,617.363 1069.26,617.27 1079.71,616.87 1089.33,616.185 1099.1,615.39 1108.81,614.272 1118.33,612.807 1128.11,611.347 1138.93,610.121 1149.85,608.391 1159.74,606.585 1170.06,605.247 1180.34,604.516 1189.95,604.272 1199.16,603.807 1208.07,602.977 1217.64,602.169 1228.06,601.63 1238.55,601.118 1249.44,600.811 1260.52,600.614 1270.61,600.027 1280.93,600.009 1291.73,600.823 1302.88,601.748 1313.64,602.927 1324.06,604.7 1334.47,606.533 1344.75,607.998 1353.69,601.073 1360.7,587.43 1368.01,573.519 1375.16,559.675 1382.32,545.406 1389.75,529.534 1396.91,513.683 1403.74,498.454 1410.55,482.917 1417.9,466.246 1425.76,449.171 1433.2,434.318 1440.14,420.437 1447.11,405.654 1454.06,390.725 1460.87,375.587 1467.96,359.962 1475.49,344.438 1483.21,328.697 1490.86,312.667 1497.82,298.27 1504.76,284.558 1512.27,269.958 1519.02,256.777 1525.65,243.691 1533,228.731 1540.33,213.25 1547.82,197.725 1555.28,182.849 1562.86,167.632 1572.3,160.256 1582.75,161.913 1592.87,163.13 1603.16,163.94 1612.37,164.622 1620.8,165.673 1630,167.172 1639.8,168.468 1649.74,169.601 1659.78,170.547 1669.78,171.549 1679.53,173.276 1689.2,175.49 1699.7,177.92 1709.92,180.161 1719.18,182.085 1728.59,183.51 1737.9,184.394 1746.92,185.39 1756.34,186.367 1766.44,187.414 1776.34,188.806 1785.71,190.177 1794.91,191.218 1804.68,192.079 1815.2,192.821 1825.48,193.869 1835.25,195.516 1845.56,197.212 1855.09,198.134 1863.78,199.014 1872.84,200.448 1882.56,201.963 1892.18,203.411 1901.35,204.559 1909.82,205.006 1918.88,205.299 1929.39,205.361 1940.55,204.355 1951.1,202.681 1961.98,200.907 1972.79,199.087 1982.92,196.809 1992.98,194.864 2003.36,193.667 2013.13,192.313 2022.3,190.822 2031.94,189.125 2042.49,187.264 2052.42,185.929 2062.05,184.895 2072.04,184.155 2082.36,183.52 2093.09,183.039 2103.91,182.41 2114.31,181.582 2124.8,181.371 2135.12,181.496 2144.64,181.593 2153.96,181.902 2163.55,182.019 2173.05,181.735 2182.42,181.507 2192.82,181.564 2203.43,182.476 2213.15,183.755 2222.25,184.451 2231.91,185.225 "/>
<path clip-path="url(#clip700)" d="M341.645 322.316 L797.792 322.316 L797.792 166.796 L341.645 166.796  Z" fill="#ffffff" fill-rule="evenodd" fill-opacity="1"/>
<polyline clip-path="url(#clip700)" style="stroke:#000000; stroke-linecap:round; stroke-linejoin:round; stroke-width:4; stroke-opacity:1; fill:none" points="341.645,322.316 797.792,322.316 797.792,166.796 341.645,166.796 341.645,322.316 "/>
<polyline clip-path="url(#clip700)" style="stroke:#009af9; stroke-linecap:round; stroke-linejoin:round; stroke-width:4; stroke-opacity:1; fill:none" points="364.761,218.636 503.459,218.636 "/>
<path clip-path="url(#clip700)" d="M526.575 201.356 L546.436 201.356 L546.436 205.291 L531.251 205.291 L531.251 215.476 L544.954 215.476 L544.954 219.411 L531.251 219.411 L531.251 235.916 L526.575 235.916 L526.575 201.356 Z" fill="#000000" fill-rule="nonzero" fill-opacity="1" /><path clip-path="url(#clip700)" d="M550.209 209.99 L554.468 209.99 L554.468 235.916 L550.209 235.916 L550.209 209.99 M550.209 199.897 L554.468 199.897 L554.468 205.291 L550.209 205.291 L550.209 199.897 Z" fill="#000000" fill-rule="nonzero" fill-opacity="1" /><path clip-path="url(#clip700)" d="M584.931 209.99 L575.556 222.606 L585.417 235.916 L580.394 235.916 L572.848 225.731 L565.302 235.916 L560.278 235.916 L570.348 222.351 L561.135 209.99 L566.158 209.99 L573.033 219.226 L579.908 209.99 L584.931 209.99 Z" fill="#000000" fill-rule="nonzero" fill-opacity="1" /><path clip-path="url(#clip700)" d="M612.153 221.888 L612.153 223.971 L592.57 223.971 Q592.848 228.369 595.209 230.684 Q597.593 232.976 601.829 232.976 Q604.283 232.976 606.574 232.374 Q608.889 231.772 611.158 230.569 L611.158 234.596 Q608.866 235.568 606.459 236.078 Q604.051 236.587 601.575 236.587 Q595.371 236.587 591.737 232.976 Q588.126 229.365 588.126 223.207 Q588.126 216.842 591.551 213.115 Q595 209.365 600.834 209.365 Q606.065 209.365 609.098 212.745 Q612.153 216.101 612.153 221.888 M607.894 220.638 Q607.848 217.143 605.926 215.059 Q604.028 212.976 600.88 212.976 Q597.315 212.976 595.163 214.99 Q593.033 217.004 592.709 220.661 L607.894 220.638 Z" fill="#000000" fill-rule="nonzero" fill-opacity="1" /><path clip-path="url(#clip700)" d="M636.204 213.925 L636.204 199.897 L640.463 199.897 L640.463 235.916 L636.204 235.916 L636.204 232.027 Q634.861 234.342 632.801 235.476 Q630.764 236.587 627.894 236.587 Q623.195 236.587 620.232 232.837 Q617.292 229.087 617.292 222.976 Q617.292 216.865 620.232 213.115 Q623.195 209.365 627.894 209.365 Q630.764 209.365 632.801 210.499 Q634.861 211.61 636.204 213.925 M621.69 222.976 Q621.69 227.675 623.611 230.36 Q625.556 233.022 628.935 233.022 Q632.315 233.022 634.26 230.36 Q636.204 227.675 636.204 222.976 Q636.204 218.277 634.26 215.615 Q632.315 212.93 628.935 212.93 Q625.556 212.93 623.611 215.615 Q621.69 218.277 621.69 222.976 Z" fill="#000000" fill-rule="nonzero" fill-opacity="1" /><path clip-path="url(#clip700)" d="M661.412 201.356 L666.134 201.356 L673.403 230.569 L680.648 201.356 L685.903 201.356 L693.171 230.569 L700.417 201.356 L705.162 201.356 L696.481 235.916 L690.602 235.916 L683.31 205.916 L675.949 235.916 L670.07 235.916 L661.412 201.356 Z" fill="#000000" fill-rule="nonzero" fill-opacity="1" /><path clip-path="url(#clip700)" d="M710.139 209.99 L714.398 209.99 L714.398 235.916 L710.139 235.916 L710.139 209.99 M710.139 199.897 L714.398 199.897 L714.398 205.291 L710.139 205.291 L710.139 199.897 Z" fill="#000000" fill-rule="nonzero" fill-opacity="1" /><path clip-path="url(#clip700)" d="M744.861 220.268 L744.861 235.916 L740.602 235.916 L740.602 220.407 Q740.602 216.726 739.166 214.897 Q737.731 213.069 734.861 213.069 Q731.412 213.069 729.421 215.268 Q727.43 217.467 727.43 221.263 L727.43 235.916 L723.148 235.916 L723.148 209.99 L727.43 209.99 L727.43 214.018 Q728.958 211.68 731.018 210.522 Q733.102 209.365 735.81 209.365 Q740.277 209.365 742.569 212.143 Q744.861 214.897 744.861 220.268 Z" fill="#000000" fill-rule="nonzero" fill-opacity="1" /><path clip-path="url(#clip700)" d="M770.416 222.652 Q770.416 218.022 768.495 215.476 Q766.597 212.93 763.148 212.93 Q759.722 212.93 757.801 215.476 Q755.902 218.022 755.902 222.652 Q755.902 227.258 757.801 229.805 Q759.722 232.351 763.148 232.351 Q766.597 232.351 768.495 229.805 Q770.416 227.258 770.416 222.652 M774.675 232.698 Q774.675 239.318 771.736 242.536 Q768.796 245.777 762.731 245.777 Q760.486 245.777 758.495 245.43 Q756.504 245.105 754.629 244.411 L754.629 240.268 Q756.504 241.286 758.333 241.772 Q760.162 242.258 762.06 242.258 Q766.25 242.258 768.333 240.059 Q770.416 237.883 770.416 233.462 L770.416 231.356 Q769.097 233.647 767.037 234.781 Q764.976 235.916 762.106 235.916 Q757.338 235.916 754.421 232.281 Q751.504 228.647 751.504 222.652 Q751.504 216.633 754.421 212.999 Q757.338 209.365 762.106 209.365 Q764.976 209.365 767.037 210.499 Q769.097 211.633 770.416 213.925 L770.416 209.99 L774.675 209.99 L774.675 232.698 Z" fill="#000000" fill-rule="nonzero" fill-opacity="1" /><polyline clip-path="url(#clip700)" style="stroke:#e26f46; stroke-linecap:round; stroke-linejoin:round; stroke-width:4; stroke-opacity:1; fill:none" points="364.761,270.476 503.459,270.476 "/>
<path clip-path="url(#clip700)" d="M526.575 253.196 L533.542 253.196 L542.362 276.714 L551.228 253.196 L558.195 253.196 L558.195 287.756 L553.635 287.756 L553.635 257.409 L544.723 281.112 L540.024 281.112 L531.112 257.409 L531.112 287.756 L526.575 287.756 L526.575 253.196 Z" fill="#000000" fill-rule="nonzero" fill-opacity="1" /><path clip-path="url(#clip700)" d="M566.852 277.524 L566.852 261.83 L571.112 261.83 L571.112 277.362 Q571.112 281.043 572.547 282.895 Q573.982 284.723 576.852 284.723 Q580.301 284.723 582.292 282.524 Q584.306 280.325 584.306 276.529 L584.306 261.83 L588.565 261.83 L588.565 287.756 L584.306 287.756 L584.306 283.774 Q582.755 286.135 580.695 287.293 Q578.658 288.427 575.95 288.427 Q571.482 288.427 569.167 285.649 Q566.852 282.871 566.852 277.524 M577.57 261.205 L577.57 261.205 Z" fill="#000000" fill-rule="nonzero" fill-opacity="1" /><path clip-path="url(#clip700)" d="M597.338 251.737 L601.598 251.737 L601.598 287.756 L597.338 287.756 L597.338 251.737 Z" fill="#000000" fill-rule="nonzero" fill-opacity="1" /><path clip-path="url(#clip700)" d="M614.723 254.469 L614.723 261.83 L623.496 261.83 L623.496 265.14 L614.723 265.14 L614.723 279.214 Q614.723 282.385 615.579 283.288 Q616.459 284.191 619.121 284.191 L623.496 284.191 L623.496 287.756 L619.121 287.756 Q614.19 287.756 612.315 285.927 Q610.44 284.075 610.44 279.214 L610.44 265.14 L607.315 265.14 L607.315 261.83 L610.44 261.83 L610.44 254.469 L614.723 254.469 Z" fill="#000000" fill-rule="nonzero" fill-opacity="1" /><path clip-path="url(#clip700)" d="M629.098 261.83 L633.357 261.83 L633.357 287.756 L629.098 287.756 L629.098 261.83 M629.098 251.737 L633.357 251.737 L633.357 257.131 L629.098 257.131 L629.098 251.737 Z" fill="#000000" fill-rule="nonzero" fill-opacity="1" /><path clip-path="url(#clip700)" d="M657.292 265.811 Q656.574 265.395 655.718 265.21 Q654.884 265.001 653.866 265.001 Q650.255 265.001 648.31 267.362 Q646.389 269.7 646.389 274.098 L646.389 287.756 L642.107 287.756 L642.107 261.83 L646.389 261.83 L646.389 265.858 Q647.732 263.497 649.884 262.362 Q652.037 261.205 655.116 261.205 Q655.556 261.205 656.088 261.274 Q656.621 261.321 657.269 261.436 L657.292 265.811 Z" fill="#000000" fill-rule="nonzero" fill-opacity="1" /><path clip-path="url(#clip700)" d="M670.764 264.816 Q667.338 264.816 665.347 267.501 Q663.357 270.163 663.357 274.816 Q663.357 279.469 665.324 282.154 Q667.315 284.816 670.764 284.816 Q674.167 284.816 676.157 282.131 Q678.148 279.446 678.148 274.816 Q678.148 270.21 676.157 267.524 Q674.167 264.816 670.764 264.816 M670.764 261.205 Q676.319 261.205 679.491 264.816 Q682.662 268.427 682.662 274.816 Q682.662 281.182 679.491 284.816 Q676.319 288.427 670.764 288.427 Q665.185 288.427 662.014 284.816 Q658.866 281.182 658.866 274.816 Q658.866 268.427 662.014 264.816 Q665.185 261.205 670.764 261.205 Z" fill="#000000" fill-rule="nonzero" fill-opacity="1" /><path clip-path="url(#clip700)" d="M693.935 254.469 L693.935 261.83 L702.708 261.83 L702.708 265.14 L693.935 265.14 L693.935 279.214 Q693.935 282.385 694.792 283.288 Q695.671 284.191 698.333 284.191 L702.708 284.191 L702.708 287.756 L698.333 287.756 Q693.403 287.756 691.528 285.927 Q689.653 284.075 689.653 279.214 L689.653 265.14 L686.528 265.14 L686.528 261.83 L689.653 261.83 L689.653 254.469 L693.935 254.469 Z" fill="#000000" fill-rule="nonzero" fill-opacity="1" /><path clip-path="url(#clip700)" d="M718.356 264.816 Q714.93 264.816 712.94 267.501 Q710.949 270.163 710.949 274.816 Q710.949 279.469 712.917 282.154 Q714.907 284.816 718.356 284.816 Q721.759 284.816 723.75 282.131 Q725.741 279.446 725.741 274.816 Q725.741 270.21 723.75 267.524 Q721.759 264.816 718.356 264.816 M718.356 261.205 Q723.912 261.205 727.083 264.816 Q730.254 268.427 730.254 274.816 Q730.254 281.182 727.083 284.816 Q723.912 288.427 718.356 288.427 Q712.778 288.427 709.606 284.816 Q706.458 281.182 706.458 274.816 Q706.458 268.427 709.606 264.816 Q712.778 261.205 718.356 261.205 Z" fill="#000000" fill-rule="nonzero" fill-opacity="1" /><path clip-path="url(#clip700)" d="M752.338 265.811 Q751.62 265.395 750.764 265.21 Q749.93 265.001 748.912 265.001 Q745.301 265.001 743.356 267.362 Q741.435 269.7 741.435 274.098 L741.435 287.756 L737.152 287.756 L737.152 261.83 L741.435 261.83 L741.435 265.858 Q742.777 263.497 744.93 262.362 Q747.083 261.205 750.162 261.205 Q750.601 261.205 751.134 261.274 Q751.666 261.321 752.314 261.436 L752.338 265.811 Z" fill="#000000" fill-rule="nonzero" fill-opacity="1" /></svg>
