<?xml version="1.0" encoding="utf-8"?>
<svg xmlns="http://www.w3.org/2000/svg" xmlns:xlink="http://www.w3.org/1999/xlink" width="600" height="400" viewBox="0 0 2400 1600">
<defs>
  <clipPath id="clip830">
    <rect x="0" y="0" width="2400" height="1600"/>
  </clipPath>
</defs>
<path clip-path="url(#clip830)" d="M0 1600 L2400 1600 L2400 0 L0 0  Z" fill="#ffffff" fill-rule="evenodd" fill-opacity="1"/>
<defs>
  <clipPath id="clip831">
    <rect x="480" y="0" width="1681" height="1600"/>
  </clipPath>
</defs>
<path clip-path="url(#clip830)" d="M272.297 1423.18 L2352.76 1423.18 L2352.76 123.472 L272.297 123.472  Z" fill="#ffffff" fill-rule="evenodd" fill-opacity="1"/>
<defs>
  <clipPath id="clip832">
    <rect x="272" y="123" width="2081" height="1301"/>
  </clipPath>
</defs>
<polyline clip-path="url(#clip832)" style="stroke:#000000; stroke-linecap:round; stroke-linejoin:round; stroke-width:2; stroke-opacity:0.1; fill:none" points="331.177,1423.18 331.177,123.472 "/>
<polyline clip-path="url(#clip832)" style="stroke:#000000; stroke-linecap:round; stroke-linejoin:round; stroke-width:2; stroke-opacity:0.1; fill:none" points="787.328,1423.18 787.328,123.472 "/>
<polyline clip-path="url(#clip832)" style="stroke:#000000; stroke-linecap:round; stroke-linejoin:round; stroke-width:2; stroke-opacity:0.1; fill:none" points="1243.48,1423.18 1243.48,123.472 "/>
<polyline clip-path="url(#clip832)" style="stroke:#000000; stroke-linecap:round; stroke-linejoin:round; stroke-width:2; stroke-opacity:0.1; fill:none" points="1699.63,1423.18 1699.63,123.472 "/>
<polyline clip-path="url(#clip832)" style="stroke:#000000; stroke-linecap:round; stroke-linejoin:round; stroke-width:2; stroke-opacity:0.1; fill:none" points="2155.78,1423.18 2155.78,123.472 "/>
<polyline clip-path="url(#clip830)" style="stroke:#000000; stroke-linecap:round; stroke-linejoin:round; stroke-width:4; stroke-opacity:1; fill:none" points="272.297,1423.18 2352.76,1423.18 "/>
<polyline clip-path="url(#clip830)" style="stroke:#000000; stroke-linecap:round; stroke-linejoin:round; stroke-width:4; stroke-opacity:1; fill:none" points="331.177,1423.18 331.177,1404.28 "/>
<polyline clip-path="url(#clip830)" style="stroke:#000000; stroke-linecap:round; stroke-linejoin:round; stroke-width:4; stroke-opacity:1; fill:none" points="787.328,1423.18 787.328,1404.28 "/>
<polyline clip-path="url(#clip830)" style="stroke:#000000; stroke-linecap:round; stroke-linejoin:round; stroke-width:4; stroke-opacity:1; fill:none" points="1243.48,1423.18 1243.48,1404.28 "/>
<polyline clip-path="url(#clip830)" style="stroke:#000000; stroke-linecap:round; stroke-linejoin:round; stroke-width:4; stroke-opacity:1; fill:none" points="1699.63,1423.18 1699.63,1404.28 "/>
<polyline clip-path="url(#clip830)" style="stroke:#000000; stroke-linecap:round; stroke-linejoin:round; stroke-width:4; stroke-opacity:1; fill:none" points="2155.78,1423.18 2155.78,1404.28 "/>
<path clip-path="url(#clip830)" d="M331.177 1454.1 Q327.566 1454.1 325.738 1457.66 Q323.932 1461.2 323.932 1468.33 Q323.932 1475.44 325.738 1479.01 Q327.566 1482.55 331.177 1482.55 Q334.812 1482.55 336.617 1479.01 Q338.446 1475.44 338.446 1468.33 Q338.446 1461.2 336.617 1457.66 Q334.812 1454.1 331.177 1454.1 M331.177 1450.39 Q336.988 1450.39 340.043 1455 Q343.122 1459.58 343.122 1468.33 Q343.122 1477.06 340.043 1481.67 Q336.988 1486.25 331.177 1486.25 Q325.367 1486.25 322.289 1481.67 Q319.233 1477.06 319.233 1468.33 Q319.233 1459.58 322.289 1455 Q325.367 1450.39 331.177 1450.39 Z" fill="#000000" fill-rule="nonzero" fill-opacity="1" /><path clip-path="url(#clip830)" d="M746.946 1451.02 L765.303 1451.02 L765.303 1454.96 L751.229 1454.96 L751.229 1463.43 Q752.247 1463.08 753.266 1462.92 Q754.284 1462.73 755.303 1462.73 Q761.09 1462.73 764.469 1465.9 Q767.849 1469.08 767.849 1474.49 Q767.849 1480.07 764.377 1483.17 Q760.905 1486.25 754.585 1486.25 Q752.409 1486.25 750.141 1485.88 Q747.896 1485.51 745.488 1484.77 L745.488 1480.07 Q747.571 1481.2 749.794 1481.76 Q752.016 1482.32 754.493 1482.32 Q758.497 1482.32 760.835 1480.21 Q763.173 1478.1 763.173 1474.49 Q763.173 1470.88 760.835 1468.77 Q758.497 1466.67 754.493 1466.67 Q752.618 1466.67 750.743 1467.08 Q748.891 1467.5 746.946 1468.38 L746.946 1451.02 Z" fill="#000000" fill-rule="nonzero" fill-opacity="1" /><path clip-path="url(#clip830)" d="M787.062 1454.1 Q783.451 1454.1 781.622 1457.66 Q779.817 1461.2 779.817 1468.33 Q779.817 1475.44 781.622 1479.01 Q783.451 1482.55 787.062 1482.55 Q790.696 1482.55 792.502 1479.01 Q794.33 1475.44 794.33 1468.33 Q794.33 1461.2 792.502 1457.66 Q790.696 1454.1 787.062 1454.1 M787.062 1450.39 Q792.872 1450.39 795.928 1455 Q799.006 1459.58 799.006 1468.33 Q799.006 1477.06 795.928 1481.67 Q792.872 1486.25 787.062 1486.25 Q781.252 1486.25 778.173 1481.67 Q775.118 1477.06 775.118 1468.33 Q775.118 1459.58 778.173 1455 Q781.252 1450.39 787.062 1450.39 Z" fill="#000000" fill-rule="nonzero" fill-opacity="1" /><path clip-path="url(#clip830)" d="M817.224 1454.1 Q813.613 1454.1 811.784 1457.66 Q809.979 1461.2 809.979 1468.33 Q809.979 1475.44 811.784 1479.01 Q813.613 1482.55 817.224 1482.55 Q820.858 1482.55 822.664 1479.01 Q824.492 1475.44 824.492 1468.33 Q824.492 1461.2 822.664 1457.66 Q820.858 1454.1 817.224 1454.1 M817.224 1450.39 Q823.034 1450.39 826.09 1455 Q829.168 1459.58 829.168 1468.33 Q829.168 1477.06 826.09 1481.67 Q823.034 1486.25 817.224 1486.25 Q811.414 1486.25 808.335 1481.67 Q805.279 1477.06 805.279 1468.33 Q805.279 1459.58 808.335 1455 Q811.414 1450.39 817.224 1450.39 Z" fill="#000000" fill-rule="nonzero" fill-opacity="1" /><path clip-path="url(#clip830)" d="M1188 1481.64 L1195.64 1481.64 L1195.64 1455.28 L1187.33 1456.95 L1187.33 1452.69 L1195.6 1451.02 L1200.27 1451.02 L1200.27 1481.64 L1207.91 1481.64 L1207.91 1485.58 L1188 1485.58 L1188 1481.64 Z" fill="#000000" fill-rule="nonzero" fill-opacity="1" /><path clip-path="url(#clip830)" d="M1227.36 1454.1 Q1223.75 1454.1 1221.92 1457.66 Q1220.11 1461.2 1220.11 1468.33 Q1220.11 1475.44 1221.92 1479.01 Q1223.75 1482.55 1227.36 1482.55 Q1230.99 1482.55 1232.8 1479.01 Q1234.62 1475.44 1234.62 1468.33 Q1234.62 1461.2 1232.8 1457.66 Q1230.99 1454.1 1227.36 1454.1 M1227.36 1450.39 Q1233.17 1450.39 1236.22 1455 Q1239.3 1459.58 1239.3 1468.33 Q1239.3 1477.06 1236.22 1481.67 Q1233.17 1486.25 1227.36 1486.25 Q1221.55 1486.25 1218.47 1481.67 Q1215.41 1477.06 1215.41 1468.33 Q1215.41 1459.58 1218.47 1455 Q1221.55 1450.39 1227.36 1450.39 Z" fill="#000000" fill-rule="nonzero" fill-opacity="1" /><path clip-path="url(#clip830)" d="M1257.52 1454.1 Q1253.91 1454.1 1252.08 1457.66 Q1250.27 1461.2 1250.27 1468.33 Q1250.27 1475.44 1252.08 1479.01 Q1253.91 1482.55 1257.52 1482.55 Q1261.15 1482.55 1262.96 1479.01 Q1264.79 1475.44 1264.79 1468.33 Q1264.79 1461.2 1262.96 1457.66 Q1261.15 1454.1 1257.52 1454.1 M1257.52 1450.39 Q1263.33 1450.39 1266.38 1455 Q1269.46 1459.58 1269.46 1468.33 Q1269.46 1477.06 1266.38 1481.67 Q1263.33 1486.25 1257.52 1486.25 Q1251.71 1486.25 1248.63 1481.67 Q1245.57 1477.06 1245.57 1468.33 Q1245.57 1459.58 1248.63 1455 Q1251.71 1450.39 1257.52 1450.39 Z" fill="#000000" fill-rule="nonzero" fill-opacity="1" /><path clip-path="url(#clip830)" d="M1287.68 1454.1 Q1284.07 1454.1 1282.24 1457.66 Q1280.43 1461.2 1280.43 1468.33 Q1280.43 1475.44 1282.24 1479.01 Q1284.07 1482.55 1287.68 1482.55 Q1291.31 1482.55 1293.12 1479.01 Q1294.95 1475.44 1294.95 1468.33 Q1294.95 1461.2 1293.12 1457.66 Q1291.31 1454.1 1287.68 1454.1 M1287.68 1450.39 Q1293.49 1450.39 1296.55 1455 Q1299.62 1459.58 1299.62 1468.33 Q1299.62 1477.06 1296.55 1481.67 Q1293.49 1486.25 1287.68 1486.25 Q1281.87 1486.25 1278.79 1481.67 Q1275.74 1477.06 1275.74 1468.33 Q1275.74 1459.58 1278.79 1455 Q1281.87 1450.39 1287.68 1450.39 Z" fill="#000000" fill-rule="nonzero" fill-opacity="1" /><path clip-path="url(#clip830)" d="M1644.16 1481.64 L1651.79 1481.64 L1651.79 1455.28 L1643.48 1456.95 L1643.48 1452.69 L1651.75 1451.02 L1656.42 1451.02 L1656.42 1481.64 L1664.06 1481.64 L1664.06 1485.58 L1644.16 1485.58 L1644.16 1481.64 Z" fill="#000000" fill-rule="nonzero" fill-opacity="1" /><path clip-path="url(#clip830)" d="M1673.55 1451.02 L1691.91 1451.02 L1691.91 1454.96 L1677.84 1454.96 L1677.84 1463.43 Q1678.85 1463.08 1679.87 1462.92 Q1680.89 1462.73 1681.91 1462.73 Q1687.7 1462.73 1691.08 1465.9 Q1694.46 1469.08 1694.46 1474.49 Q1694.46 1480.07 1690.98 1483.17 Q1687.51 1486.25 1681.19 1486.25 Q1679.02 1486.25 1676.75 1485.88 Q1674.5 1485.51 1672.09 1484.77 L1672.09 1480.07 Q1674.18 1481.2 1676.4 1481.76 Q1678.62 1482.32 1681.1 1482.32 Q1685.1 1482.32 1687.44 1480.21 Q1689.78 1478.1 1689.78 1474.49 Q1689.78 1470.88 1687.44 1468.77 Q1685.1 1466.67 1681.1 1466.67 Q1679.22 1466.67 1677.35 1467.08 Q1675.5 1467.5 1673.55 1468.38 L1673.55 1451.02 Z" fill="#000000" fill-rule="nonzero" fill-opacity="1" /><path clip-path="url(#clip830)" d="M1713.67 1454.1 Q1710.06 1454.1 1708.23 1457.66 Q1706.42 1461.2 1706.42 1468.33 Q1706.42 1475.44 1708.23 1479.01 Q1710.06 1482.55 1713.67 1482.55 Q1717.3 1482.55 1719.11 1479.01 Q1720.94 1475.44 1720.94 1468.33 Q1720.94 1461.2 1719.11 1457.66 Q1717.3 1454.1 1713.67 1454.1 M1713.67 1450.39 Q1719.48 1450.39 1722.53 1455 Q1725.61 1459.58 1725.61 1468.33 Q1725.61 1477.06 1722.53 1481.67 Q1719.48 1486.25 1713.67 1486.25 Q1707.86 1486.25 1704.78 1481.67 Q1701.72 1477.06 1701.72 1468.33 Q1701.72 1459.58 1704.78 1455 Q1707.86 1450.39 1713.67 1450.39 Z" fill="#000000" fill-rule="nonzero" fill-opacity="1" /><path clip-path="url(#clip830)" d="M1743.83 1454.1 Q1740.22 1454.1 1738.39 1457.66 Q1736.59 1461.2 1736.59 1468.33 Q1736.59 1475.44 1738.39 1479.01 Q1740.22 1482.55 1743.83 1482.55 Q1747.46 1482.55 1749.27 1479.01 Q1751.1 1475.44 1751.1 1468.33 Q1751.1 1461.2 1749.27 1457.66 Q1747.46 1454.1 1743.83 1454.1 M1743.83 1450.39 Q1749.64 1450.39 1752.7 1455 Q1755.78 1459.58 1755.78 1468.33 Q1755.78 1477.06 1752.7 1481.67 Q1749.64 1486.25 1743.83 1486.25 Q1738.02 1486.25 1734.94 1481.67 Q1731.89 1477.06 1731.89 1468.33 Q1731.89 1459.58 1734.94 1455 Q1738.02 1450.39 1743.83 1450.39 Z" fill="#000000" fill-rule="nonzero" fill-opacity="1" /><path clip-path="url(#clip830)" d="M2104.39 1481.64 L2120.71 1481.64 L2120.71 1485.58 L2098.77 1485.58 L2098.77 1481.64 Q2101.43 1478.89 2106.01 1474.26 Q2110.62 1469.61 2111.8 1468.27 Q2114.04 1465.74 2114.92 1464.01 Q2115.83 1462.25 2115.83 1460.56 Q2115.83 1457.8 2113.88 1456.07 Q2111.96 1454.33 2108.86 1454.33 Q2106.66 1454.33 2104.21 1455.09 Q2101.78 1455.86 2099 1457.41 L2099 1452.69 Q2101.82 1451.55 2104.28 1450.97 Q2106.73 1450.39 2108.77 1450.39 Q2114.14 1450.39 2117.33 1453.08 Q2120.53 1455.77 2120.53 1460.26 Q2120.53 1462.39 2119.72 1464.31 Q2118.93 1466.2 2116.82 1468.8 Q2116.24 1469.47 2113.14 1472.69 Q2110.04 1475.88 2104.39 1481.64 Z" fill="#000000" fill-rule="nonzero" fill-opacity="1" /><path clip-path="url(#clip830)" d="M2140.53 1454.1 Q2136.91 1454.1 2135.09 1457.66 Q2133.28 1461.2 2133.28 1468.33 Q2133.28 1475.44 2135.09 1479.01 Q2136.91 1482.55 2140.53 1482.55 Q2144.16 1482.55 2145.97 1479.01 Q2147.79 1475.44 2147.79 1468.33 Q2147.79 1461.2 2145.97 1457.66 Q2144.16 1454.1 2140.53 1454.1 M2140.53 1450.39 Q2146.34 1450.39 2149.39 1455 Q2152.47 1459.58 2152.47 1468.33 Q2152.47 1477.06 2149.39 1481.67 Q2146.34 1486.25 2140.53 1486.25 Q2134.72 1486.25 2131.64 1481.67 Q2128.58 1477.06 2128.58 1468.33 Q2128.58 1459.58 2131.64 1455 Q2134.72 1450.39 2140.53 1450.39 Z" fill="#000000" fill-rule="nonzero" fill-opacity="1" /><path clip-path="url(#clip830)" d="M2170.69 1454.1 Q2167.08 1454.1 2165.25 1457.66 Q2163.44 1461.2 2163.44 1468.33 Q2163.44 1475.44 2165.25 1479.01 Q2167.08 1482.55 2170.69 1482.55 Q2174.32 1482.55 2176.13 1479.01 Q2177.96 1475.44 2177.96 1468.33 Q2177.96 1461.2 2176.13 1457.66 Q2174.32 1454.1 2170.69 1454.1 M2170.69 1450.39 Q2176.5 1450.39 2179.55 1455 Q2182.63 1459.58 2182.63 1468.33 Q2182.63 1477.06 2179.55 1481.67 Q2176.5 1486.25 2170.69 1486.25 Q2164.88 1486.25 2161.8 1481.67 Q2158.74 1477.06 2158.74 1468.33 Q2158.74 1459.58 2161.8 1455 Q2164.88 1450.39 2170.69 1450.39 Z" fill="#000000" fill-rule="nonzero" fill-opacity="1" /><path clip-path="url(#clip830)" d="M2200.85 1454.1 Q2197.24 1454.1 2195.41 1457.66 Q2193.6 1461.2 2193.6 1468.33 Q2193.6 1475.44 2195.41 1479.01 Q2197.24 1482.55 2200.85 1482.55 Q2204.48 1482.55 2206.29 1479.01 Q2208.12 1475.44 2208.12 1468.33 Q2208.12 1461.2 2206.29 1457.66 Q2204.48 1454.1 2200.85 1454.1 M2200.85 1450.39 Q2206.66 1450.39 2209.72 1455 Q2212.79 1459.58 2212.79 1468.33 Q2212.79 1477.06 2209.72 1481.67 Q2206.66 1486.25 2200.85 1486.25 Q2195.04 1486.25 2191.96 1481.67 Q2188.91 1477.06 2188.91 1468.33 Q2188.91 1459.58 2191.96 1455 Q2195.04 1450.39 2200.85 1450.39 Z" fill="#000000" fill-rule="nonzero" fill-opacity="1" /><path clip-path="url(#clip830)" d="M1263.34 1532.4 L1250.44 1549.74 L1264 1568.04 L1257.1 1568.04 L1246.72 1554.04 L1236.34 1568.04 L1229.44 1568.04 L1243.28 1549.39 L1230.62 1532.4 L1237.52 1532.4 L1246.98 1545.1 L1256.43 1532.4 L1263.34 1532.4 Z" fill="#000000" fill-rule="nonzero" fill-opacity="1" /><path clip-path="url(#clip830)" d="M1292.46 1518.52 L1305.95 1518.52 L1305.95 1523.07 L1298.31 1523.07 L1298.31 1572.09 L1305.95 1572.09 L1305.95 1576.64 L1292.46 1576.64 L1292.46 1518.52 Z" fill="#000000" fill-rule="nonzero" fill-opacity="1" /><path clip-path="url(#clip830)" d="M1346.18 1539.24 Q1348.38 1535.29 1351.44 1533.41 Q1354.49 1531.54 1358.63 1531.54 Q1364.2 1531.54 1367.22 1535.45 Q1370.25 1539.33 1370.25 1546.53 L1370.25 1568.04 L1364.36 1568.04 L1364.36 1546.72 Q1364.36 1541.59 1362.54 1539.11 Q1360.73 1536.63 1357.01 1536.63 Q1352.46 1536.63 1349.81 1539.65 Q1347.17 1542.68 1347.17 1547.9 L1347.17 1568.04 L1341.28 1568.04 L1341.28 1546.72 Q1341.28 1541.56 1339.47 1539.11 Q1337.65 1536.63 1333.87 1536.63 Q1329.38 1536.63 1326.74 1539.68 Q1324.1 1542.71 1324.1 1547.9 L1324.1 1568.04 L1318.21 1568.04 L1318.21 1532.4 L1324.1 1532.4 L1324.1 1537.93 Q1326.1 1534.66 1328.9 1533.1 Q1331.7 1531.54 1335.55 1531.54 Q1339.44 1531.54 1342.14 1533.51 Q1344.88 1535.48 1346.18 1539.24 Z" fill="#000000" fill-rule="nonzero" fill-opacity="1" /><path clip-path="url(#clip830)" d="M1395.61 1518.52 L1395.61 1576.64 L1382.12 1576.64 L1382.12 1572.09 L1389.73 1572.09 L1389.73 1523.07 L1382.12 1523.07 L1382.12 1518.52 L1395.61 1518.52 Z" fill="#000000" fill-rule="nonzero" fill-opacity="1" /><polyline clip-path="url(#clip832)" style="stroke:#000000; stroke-linecap:round; stroke-linejoin:round; stroke-width:2; stroke-opacity:0.1; fill:none" points="272.297,1348.23 2352.76,1348.23 "/>
<polyline clip-path="url(#clip832)" style="stroke:#000000; stroke-linecap:round; stroke-linejoin:round; stroke-width:2; stroke-opacity:0.1; fill:none" points="272.297,1025.08 2352.76,1025.08 "/>
<polyline clip-path="url(#clip832)" style="stroke:#000000; stroke-linecap:round; stroke-linejoin:round; stroke-width:2; stroke-opacity:0.1; fill:none" points="272.297,701.938 2352.76,701.938 "/>
<polyline clip-path="url(#clip832)" style="stroke:#000000; stroke-linecap:round; stroke-linejoin:round; stroke-width:2; stroke-opacity:0.1; fill:none" points="272.297,378.794 2352.76,378.794 "/>
<polyline clip-path="url(#clip830)" style="stroke:#000000; stroke-linecap:round; stroke-linejoin:round; stroke-width:4; stroke-opacity:1; fill:none" points="272.297,1423.18 272.297,123.472 "/>
<polyline clip-path="url(#clip830)" style="stroke:#000000; stroke-linecap:round; stroke-linejoin:round; stroke-width:4; stroke-opacity:1; fill:none" points="272.297,1348.23 291.194,1348.23 "/>
<polyline clip-path="url(#clip830)" style="stroke:#000000; stroke-linecap:round; stroke-linejoin:round; stroke-width:4; stroke-opacity:1; fill:none" points="272.297,1025.08 291.194,1025.08 "/>
<polyline clip-path="url(#clip830)" style="stroke:#000000; stroke-linecap:round; stroke-linejoin:round; stroke-width:4; stroke-opacity:1; fill:none" points="272.297,701.938 291.194,701.938 "/>
<polyline clip-path="url(#clip830)" style="stroke:#000000; stroke-linecap:round; stroke-linejoin:round; stroke-width:4; stroke-opacity:1; fill:none" points="272.297,378.794 291.194,378.794 "/>
<path clip-path="url(#clip830)" d="M114.26 1348.68 L143.936 1348.68 L143.936 1352.61 L114.26 1352.61 L114.26 1348.68 Z" fill="#000000" fill-rule="nonzero" fill-opacity="1" /><path clip-path="url(#clip830)" d="M166.876 1335.02 L155.07 1353.47 L166.876 1353.47 L166.876 1335.02 M165.649 1330.95 L171.528 1330.95 L171.528 1353.47 L176.459 1353.47 L176.459 1357.36 L171.528 1357.36 L171.528 1365.51 L166.876 1365.51 L166.876 1357.36 L151.274 1357.36 L151.274 1352.85 L165.649 1330.95 Z" fill="#000000" fill-rule="nonzero" fill-opacity="1" /><path clip-path="url(#clip830)" d="M194.19 1334.03 Q190.579 1334.03 188.75 1337.59 Q186.945 1341.13 186.945 1348.26 Q186.945 1355.37 188.75 1358.93 Q190.579 1362.47 194.19 1362.47 Q197.825 1362.47 199.63 1358.93 Q201.459 1355.37 201.459 1348.26 Q201.459 1341.13 199.63 1337.59 Q197.825 1334.03 194.19 1334.03 M194.19 1330.32 Q200 1330.32 203.056 1334.93 Q206.135 1339.51 206.135 1348.26 Q206.135 1356.99 203.056 1361.6 Q200 1366.18 194.19 1366.18 Q188.38 1366.18 185.301 1361.6 Q182.246 1356.99 182.246 1348.26 Q182.246 1339.51 185.301 1334.93 Q188.38 1330.32 194.19 1330.32 Z" fill="#000000" fill-rule="nonzero" fill-opacity="1" /><path clip-path="url(#clip830)" d="M224.352 1334.03 Q220.741 1334.03 218.912 1337.59 Q217.107 1341.13 217.107 1348.26 Q217.107 1355.37 218.912 1358.93 Q220.741 1362.47 224.352 1362.47 Q227.986 1362.47 229.792 1358.93 Q231.621 1355.37 231.621 1348.26 Q231.621 1341.13 229.792 1337.59 Q227.986 1334.03 224.352 1334.03 M224.352 1330.32 Q230.162 1330.32 233.218 1334.93 Q236.297 1339.51 236.297 1348.26 Q236.297 1356.99 233.218 1361.6 Q230.162 1366.18 224.352 1366.18 Q218.542 1366.18 215.463 1361.6 Q212.408 1356.99 212.408 1348.26 Q212.408 1339.51 215.463 1334.93 Q218.542 1330.32 224.352 1330.32 Z" fill="#000000" fill-rule="nonzero" fill-opacity="1" /><path clip-path="url(#clip830)" d="M114.26 1025.53 L143.936 1025.53 L143.936 1029.47 L114.26 1029.47 L114.26 1025.53 Z" fill="#000000" fill-rule="nonzero" fill-opacity="1" /><path clip-path="url(#clip830)" d="M158.056 1038.43 L174.376 1038.43 L174.376 1042.36 L152.431 1042.36 L152.431 1038.43 Q155.093 1035.67 159.677 1031.04 Q164.283 1026.39 165.464 1025.05 Q167.709 1022.52 168.589 1020.79 Q169.491 1019.03 169.491 1017.34 Q169.491 1014.59 167.547 1012.85 Q165.626 1011.11 162.524 1011.11 Q160.325 1011.11 157.871 1011.88 Q155.44 1012.64 152.663 1014.19 L152.663 1009.47 Q155.487 1008.34 157.94 1007.76 Q160.394 1007.18 162.431 1007.18 Q167.802 1007.18 170.996 1009.86 Q174.19 1012.55 174.19 1017.04 Q174.19 1019.17 173.38 1021.09 Q172.593 1022.99 170.487 1025.58 Q169.908 1026.25 166.806 1029.47 Q163.704 1032.66 158.056 1038.43 Z" fill="#000000" fill-rule="nonzero" fill-opacity="1" /><path clip-path="url(#clip830)" d="M194.19 1010.88 Q190.579 1010.88 188.75 1014.45 Q186.945 1017.99 186.945 1025.12 Q186.945 1032.22 188.75 1035.79 Q190.579 1039.33 194.19 1039.33 Q197.825 1039.33 199.63 1035.79 Q201.459 1032.22 201.459 1025.12 Q201.459 1017.99 199.63 1014.45 Q197.825 1010.88 194.19 1010.88 M194.19 1007.18 Q200 1007.18 203.056 1011.78 Q206.135 1016.37 206.135 1025.12 Q206.135 1033.84 203.056 1038.45 Q200 1043.03 194.19 1043.03 Q188.38 1043.03 185.301 1038.45 Q182.246 1033.84 182.246 1025.12 Q182.246 1016.37 185.301 1011.78 Q188.38 1007.18 194.19 1007.18 Z" fill="#000000" fill-rule="nonzero" fill-opacity="1" /><path clip-path="url(#clip830)" d="M224.352 1010.88 Q220.741 1010.88 218.912 1014.45 Q217.107 1017.99 217.107 1025.12 Q217.107 1032.22 218.912 1035.79 Q220.741 1039.33 224.352 1039.33 Q227.986 1039.33 229.792 1035.79 Q231.621 1032.22 231.621 1025.12 Q231.621 1017.99 229.792 1014.45 Q227.986 1010.88 224.352 1010.88 M224.352 1007.18 Q230.162 1007.18 233.218 1011.78 Q236.297 1016.37 236.297 1025.12 Q236.297 1033.84 233.218 1038.45 Q230.162 1043.03 224.352 1043.03 Q218.542 1043.03 215.463 1038.45 Q212.408 1033.84 212.408 1025.12 Q212.408 1016.37 215.463 1011.78 Q218.542 1007.18 224.352 1007.18 Z" fill="#000000" fill-rule="nonzero" fill-opacity="1" /><path clip-path="url(#clip830)" d="M224.352 687.737 Q220.741 687.737 218.912 691.302 Q217.107 694.843 217.107 701.973 Q217.107 709.08 218.912 712.644 Q220.741 716.186 224.352 716.186 Q227.986 716.186 229.792 712.644 Q231.621 709.08 231.621 701.973 Q231.621 694.843 229.792 691.302 Q227.986 687.737 224.352 687.737 M224.352 684.033 Q230.162 684.033 233.218 688.64 Q236.297 693.223 236.297 701.973 Q236.297 710.7 233.218 715.306 Q230.162 719.89 224.352 719.89 Q218.542 719.89 215.463 715.306 Q212.408 710.7 212.408 701.973 Q212.408 693.223 215.463 688.64 Q218.542 684.033 224.352 684.033 Z" fill="#000000" fill-rule="nonzero" fill-opacity="1" /><path clip-path="url(#clip830)" d="M158.056 392.139 L174.376 392.139 L174.376 396.074 L152.431 396.074 L152.431 392.139 Q155.093 389.384 159.677 384.755 Q164.283 380.102 165.464 378.759 Q167.709 376.236 168.589 374.5 Q169.491 372.741 169.491 371.051 Q169.491 368.296 167.547 366.56 Q165.626 364.824 162.524 364.824 Q160.325 364.824 157.871 365.588 Q155.44 366.352 152.663 367.903 L152.663 363.181 Q155.487 362.046 157.94 361.468 Q160.394 360.889 162.431 360.889 Q167.802 360.889 170.996 363.574 Q174.19 366.259 174.19 370.75 Q174.19 372.88 173.38 374.801 Q172.593 376.699 170.487 379.292 Q169.908 379.963 166.806 383.181 Q163.704 386.375 158.056 392.139 Z" fill="#000000" fill-rule="nonzero" fill-opacity="1" /><path clip-path="url(#clip830)" d="M194.19 364.593 Q190.579 364.593 188.75 368.157 Q186.945 371.699 186.945 378.829 Q186.945 385.935 188.75 389.5 Q190.579 393.042 194.19 393.042 Q197.825 393.042 199.63 389.5 Q201.459 385.935 201.459 378.829 Q201.459 371.699 199.63 368.157 Q197.825 364.593 194.19 364.593 M194.19 360.889 Q200 360.889 203.056 365.495 Q206.135 370.079 206.135 378.829 Q206.135 387.555 203.056 392.162 Q200 396.745 194.19 396.745 Q188.38 396.745 185.301 392.162 Q182.246 387.555 182.246 378.829 Q182.246 370.079 185.301 365.495 Q188.38 360.889 194.19 360.889 Z" fill="#000000" fill-rule="nonzero" fill-opacity="1" /><path clip-path="url(#clip830)" d="M224.352 364.593 Q220.741 364.593 218.912 368.157 Q217.107 371.699 217.107 378.829 Q217.107 385.935 218.912 389.5 Q220.741 393.042 224.352 393.042 Q227.986 393.042 229.792 389.5 Q231.621 385.935 231.621 378.829 Q231.621 371.699 229.792 368.157 Q227.986 364.593 224.352 364.593 M224.352 360.889 Q230.162 360.889 233.218 365.495 Q236.297 370.079 236.297 378.829 Q236.297 387.555 233.218 392.162 Q230.162 396.745 224.352 396.745 Q218.542 396.745 215.463 392.162 Q212.408 387.555 212.408 378.829 Q212.408 370.079 215.463 365.495 Q218.542 360.889 224.352 360.889 Z" fill="#000000" fill-rule="nonzero" fill-opacity="1" /><path clip-path="url(#clip830)" d="M28.3562 852.977 L28.3562 825.159 L33.7034 825.159 L59.3254 847.184 L59.3254 825.159 L64.0042 825.159 L64.0042 853.773 L58.657 853.773 L33.035 831.747 L33.035 852.977 L28.3562 852.977 Z" fill="#000000" fill-rule="nonzero" fill-opacity="1" /><path clip-path="url(#clip830)" d="M14.479 796.036 L14.479 782.54 L19.0304 782.54 L19.0304 790.179 L68.0464 790.179 L68.0464 782.54 L72.5979 782.54 L72.5979 796.036 L14.479 796.036 Z" fill="#000000" fill-rule="nonzero" fill-opacity="1" /><path clip-path="url(#clip830)" d="M35.1993 742.309 Q31.2526 740.113 29.3747 737.057 Q27.4968 734.002 27.4968 729.864 Q27.4968 724.294 31.4117 721.27 Q35.2948 718.247 42.4881 718.247 L64.0042 718.247 L64.0042 724.135 L42.679 724.135 Q37.5546 724.135 35.072 725.949 Q32.5894 727.763 32.5894 731.487 Q32.5894 736.039 35.6131 738.681 Q38.6368 741.322 43.8567 741.322 L64.0042 741.322 L64.0042 747.211 L42.679 747.211 Q37.5228 747.211 35.072 749.025 Q32.5894 750.839 32.5894 754.627 Q32.5894 759.115 35.6449 761.756 Q38.6686 764.398 43.8567 764.398 L64.0042 764.398 L64.0042 770.286 L28.3562 770.286 L28.3562 764.398 L33.8944 764.398 Q30.616 762.393 29.0564 759.592 Q27.4968 756.791 27.4968 752.94 Q27.4968 749.057 29.4702 746.351 Q31.4436 743.614 35.1993 742.309 Z" fill="#000000" fill-rule="nonzero" fill-opacity="1" /><path clip-path="url(#clip830)" d="M14.479 692.879 L72.5979 692.879 L72.5979 706.375 L68.0464 706.375 L68.0464 698.768 L19.0304 698.768 L19.0304 706.375 L14.479 706.375 L14.479 692.879 Z" fill="#000000" fill-rule="nonzero" fill-opacity="1" /><path clip-path="url(#clip830)" d="M886.553 12.096 L924.794 12.096 L924.794 18.9825 L894.736 18.9825 L894.736 36.8875 L923.538 36.8875 L923.538 43.7741 L894.736 43.7741 L894.736 65.6895 L925.523 65.6895 L925.523 72.576 L886.553 72.576 L886.553 12.096 Z" fill="#000000" fill-rule="nonzero" fill-opacity="1" /><path clip-path="url(#clip830)" d="M976.362 27.2059 L959.956 49.2833 L977.213 72.576 L968.422 72.576 L955.216 54.752 L942.01 72.576 L933.22 72.576 L950.841 48.8377 L934.719 27.2059 L943.509 27.2059 L955.54 43.369 L967.571 27.2059 L976.362 27.2059 Z" fill="#000000" fill-rule="nonzero" fill-opacity="1" /><path clip-path="url(#clip830)" d="M1008.36 49.7694 Q999.331 49.7694 995.847 51.8354 Q992.363 53.9013 992.363 58.8839 Q992.363 62.8538 994.956 65.2034 Q997.589 67.5124 1002.09 67.5124 Q1008.28 67.5124 1012.01 63.1374 Q1015.78 58.7219 1015.78 51.4303 L1015.78 49.7694 L1008.36 49.7694 M1023.23 46.6907 L1023.23 72.576 L1015.78 72.576 L1015.78 65.6895 Q1013.23 69.8214 1009.42 71.8063 Q1005.61 73.7508 1000.1 73.7508 Q993.133 73.7508 989.001 69.8619 Q984.909 65.9325 984.909 59.3701 Q984.909 51.7138 990.013 47.825 Q995.158 43.9361 1005.33 43.9361 L1015.78 43.9361 L1015.78 43.2069 Q1015.78 38.0623 1012.37 35.2672 Q1009.01 32.4315 1002.9 32.4315 Q999.006 32.4315 995.32 33.3632 Q991.634 34.295 988.231 36.1584 L988.231 29.2718 Q992.322 27.692 996.171 26.9223 Q1000.02 26.1121 1003.67 26.1121 Q1013.51 26.1121 1018.37 31.2163 Q1023.23 36.3204 1023.23 46.6907 Z" fill="#000000" fill-rule="nonzero" fill-opacity="1" /><path clip-path="url(#clip830)" d="M1073.91 35.9153 Q1076.7 30.8922 1080.59 28.5022 Q1084.48 26.1121 1089.75 26.1121 Q1096.84 26.1121 1100.68 31.0947 Q1104.53 36.0368 1104.53 45.1919 L1104.53 72.576 L1097.04 72.576 L1097.04 45.4349 Q1097.04 38.913 1094.73 35.7533 Q1092.42 32.5936 1087.68 32.5936 Q1081.89 32.5936 1078.53 36.4419 Q1075.16 40.2903 1075.16 46.9338 L1075.16 72.576 L1067.67 72.576 L1067.67 45.4349 Q1067.67 38.8725 1065.36 35.7533 Q1063.05 32.5936 1058.23 32.5936 Q1052.52 32.5936 1049.16 36.4824 Q1045.79 40.3308 1045.79 46.9338 L1045.79 72.576 L1038.3 72.576 L1038.3 27.2059 L1045.79 27.2059 L1045.79 34.2544 Q1048.35 30.082 1051.91 28.0971 Q1055.48 26.1121 1060.38 26.1121 Q1065.32 26.1121 1068.76 28.6237 Q1072.25 31.1352 1073.91 35.9153 Z" fill="#000000" fill-rule="nonzero" fill-opacity="1" /><path clip-path="url(#clip830)" d="M1126.61 65.7705 L1126.61 89.8329 L1119.12 89.8329 L1119.12 27.2059 L1126.61 27.2059 L1126.61 34.0924 Q1128.96 30.0415 1132.52 28.0971 Q1136.13 26.1121 1141.11 26.1121 Q1149.38 26.1121 1154.52 32.6746 Q1159.71 39.2371 1159.71 49.9314 Q1159.71 60.6258 1154.52 67.1883 Q1149.38 73.7508 1141.11 73.7508 Q1136.13 73.7508 1132.52 71.8063 Q1128.96 69.8214 1126.61 65.7705 M1151.97 49.9314 Q1151.97 41.7081 1148.57 37.0496 Q1145.2 32.3505 1139.29 32.3505 Q1133.37 32.3505 1129.97 37.0496 Q1126.61 41.7081 1126.61 49.9314 Q1126.61 58.1548 1129.97 62.8538 Q1133.37 67.5124 1139.29 67.5124 Q1145.2 67.5124 1148.57 62.8538 Q1151.97 58.1548 1151.97 49.9314 Z" fill="#000000" fill-rule="nonzero" fill-opacity="1" /><path clip-path="url(#clip830)" d="M1172.06 9.54393 L1179.51 9.54393 L1179.51 72.576 L1172.06 72.576 L1172.06 9.54393 Z" fill="#000000" fill-rule="nonzero" fill-opacity="1" /><path clip-path="url(#clip830)" d="M1233.92 48.0275 L1233.92 51.6733 L1199.65 51.6733 Q1200.13 59.3701 1204.27 63.421 Q1208.44 67.4314 1215.85 67.4314 Q1220.15 67.4314 1224.16 66.3781 Q1228.21 65.3249 1232.18 63.2184 L1232.18 70.267 Q1228.17 71.9684 1223.95 72.8596 Q1219.74 73.7508 1215.41 73.7508 Q1204.55 73.7508 1198.19 67.4314 Q1191.87 61.1119 1191.87 50.3365 Q1191.87 39.1965 1197.87 32.6746 Q1203.9 26.1121 1214.11 26.1121 Q1223.26 26.1121 1228.57 32.0264 Q1233.92 37.9003 1233.92 48.0275 M1226.46 45.84 Q1226.38 39.7232 1223.02 36.0774 Q1219.7 32.4315 1214.19 32.4315 Q1207.95 32.4315 1204.18 35.9558 Q1200.46 39.4801 1199.89 45.8805 L1226.46 45.84 Z" fill="#000000" fill-rule="nonzero" fill-opacity="1" /><path clip-path="url(#clip830)" d="M1264.46 12.096 L1315.63 12.096 L1315.63 18.9825 L1294.16 18.9825 L1294.16 72.576 L1285.93 72.576 L1285.93 18.9825 L1264.46 18.9825 L1264.46 12.096 Z" fill="#000000" fill-rule="nonzero" fill-opacity="1" /><path clip-path="url(#clip830)" d="M1337.3 34.1734 Q1336.04 33.4443 1334.54 33.1202 Q1333.08 32.7556 1331.3 32.7556 Q1324.98 32.7556 1321.58 36.8875 Q1318.22 40.9789 1318.22 48.6757 L1318.22 72.576 L1310.72 72.576 L1310.72 27.2059 L1318.22 27.2059 L1318.22 34.2544 Q1320.57 30.1225 1324.33 28.1376 Q1328.1 26.1121 1333.49 26.1121 Q1334.26 26.1121 1335.19 26.2337 Q1336.12 26.3147 1337.26 26.5172 L1337.3 34.1734 Z" fill="#000000" fill-rule="nonzero" fill-opacity="1" /><path clip-path="url(#clip830)" d="M1365.73 49.7694 Q1356.7 49.7694 1353.22 51.8354 Q1349.73 53.9013 1349.73 58.8839 Q1349.73 62.8538 1352.33 65.2034 Q1354.96 67.5124 1359.46 67.5124 Q1365.65 67.5124 1369.38 63.1374 Q1373.15 58.7219 1373.15 51.4303 L1373.15 49.7694 L1365.73 49.7694 M1380.6 46.6907 L1380.6 72.576 L1373.15 72.576 L1373.15 65.6895 Q1370.6 69.8214 1366.79 71.8063 Q1362.98 73.7508 1357.47 73.7508 Q1350.5 73.7508 1346.37 69.8619 Q1342.28 65.9325 1342.28 59.3701 Q1342.28 51.7138 1347.38 47.825 Q1352.53 43.9361 1362.7 43.9361 L1373.15 43.9361 L1373.15 43.2069 Q1373.15 38.0623 1369.75 35.2672 Q1366.38 32.4315 1360.27 32.4315 Q1356.38 32.4315 1352.69 33.3632 Q1349 34.295 1345.6 36.1584 L1345.6 29.2718 Q1349.69 27.692 1353.54 26.9223 Q1357.39 26.1121 1361.04 26.1121 Q1370.88 26.1121 1375.74 31.2163 Q1380.6 36.3204 1380.6 46.6907 Z" fill="#000000" fill-rule="nonzero" fill-opacity="1" /><path clip-path="url(#clip830)" d="M1395.95 27.2059 L1403.41 27.2059 L1403.41 73.3862 Q1403.41 82.0551 1400.09 85.944 Q1396.81 89.8329 1389.47 89.8329 L1386.64 89.8329 L1386.64 83.5134 L1388.62 83.5134 Q1392.88 83.5134 1394.42 81.5285 Q1395.95 79.5841 1395.95 73.3862 L1395.95 27.2059 M1395.95 9.54393 L1403.41 9.54393 L1403.41 18.9825 L1395.95 18.9825 L1395.95 9.54393 Z" fill="#000000" fill-rule="nonzero" fill-opacity="1" /><path clip-path="url(#clip830)" d="M1457.81 48.0275 L1457.81 51.6733 L1423.54 51.6733 Q1424.03 59.3701 1428.16 63.421 Q1432.33 67.4314 1439.74 67.4314 Q1444.04 67.4314 1448.05 66.3781 Q1452.1 65.3249 1456.07 63.2184 L1456.07 70.267 Q1452.06 71.9684 1447.85 72.8596 Q1443.63 73.7508 1439.3 73.7508 Q1428.44 73.7508 1422.08 67.4314 Q1415.76 61.1119 1415.76 50.3365 Q1415.76 39.1965 1421.76 32.6746 Q1427.79 26.1121 1438 26.1121 Q1447.16 26.1121 1452.46 32.0264 Q1457.81 37.9003 1457.81 48.0275 M1450.36 45.84 Q1450.28 39.7232 1446.91 36.0774 Q1443.59 32.4315 1438.08 32.4315 Q1431.85 32.4315 1428.08 35.9558 Q1424.35 39.4801 1423.78 45.8805 L1450.36 45.84 Z" fill="#000000" fill-rule="nonzero" fill-opacity="1" /><path clip-path="url(#clip830)" d="M1502.7 28.9478 L1502.7 35.9153 Q1499.54 34.1734 1496.34 33.3227 Q1493.18 32.4315 1489.94 32.4315 Q1482.68 32.4315 1478.67 37.0496 Q1474.66 41.6271 1474.66 49.9314 Q1474.66 58.2358 1478.67 62.8538 Q1482.68 67.4314 1489.94 67.4314 Q1493.18 67.4314 1496.34 66.5807 Q1499.54 65.6895 1502.7 63.9476 L1502.7 70.8341 Q1499.58 72.2924 1496.21 73.0216 Q1492.89 73.7508 1489.13 73.7508 Q1478.88 73.7508 1472.84 67.3098 Q1466.8 60.8689 1466.8 49.9314 Q1466.8 38.832 1472.88 32.472 Q1479 26.1121 1489.61 26.1121 Q1493.05 26.1121 1496.34 26.8413 Q1499.62 27.5299 1502.7 28.9478 Z" fill="#000000" fill-rule="nonzero" fill-opacity="1" /><path clip-path="url(#clip830)" d="M1523.03 14.324 L1523.03 27.2059 L1538.38 27.2059 L1538.38 32.9987 L1523.03 32.9987 L1523.03 57.6282 Q1523.03 63.1779 1524.53 64.7578 Q1526.07 66.3376 1530.73 66.3376 L1538.38 66.3376 L1538.38 72.576 L1530.73 72.576 Q1522.1 72.576 1518.82 69.3758 Q1515.54 66.1351 1515.54 57.6282 L1515.54 32.9987 L1510.07 32.9987 L1510.07 27.2059 L1515.54 27.2059 L1515.54 14.324 L1523.03 14.324 Z" fill="#000000" fill-rule="nonzero" fill-opacity="1" /><path clip-path="url(#clip830)" d="M1565.77 32.4315 Q1559.77 32.4315 1556.29 37.1306 Q1552.81 41.7891 1552.81 49.9314 Q1552.81 58.0738 1556.25 62.7728 Q1559.73 67.4314 1565.77 67.4314 Q1571.72 67.4314 1575.21 62.7323 Q1578.69 58.0333 1578.69 49.9314 Q1578.69 41.8701 1575.21 37.1711 Q1571.72 32.4315 1565.77 32.4315 M1565.77 26.1121 Q1575.49 26.1121 1581.04 32.4315 Q1586.59 38.7509 1586.59 49.9314 Q1586.59 61.0714 1581.04 67.4314 Q1575.49 73.7508 1565.77 73.7508 Q1556.01 73.7508 1550.46 67.4314 Q1544.95 61.0714 1544.95 49.9314 Q1544.95 38.7509 1550.46 32.4315 Q1556.01 26.1121 1565.77 26.1121 Z" fill="#000000" fill-rule="nonzero" fill-opacity="1" /><path clip-path="url(#clip830)" d="M1625.24 34.1734 Q1623.98 33.4443 1622.48 33.1202 Q1621.02 32.7556 1619.24 32.7556 Q1612.92 32.7556 1609.52 36.8875 Q1606.16 40.9789 1606.16 48.6757 L1606.16 72.576 L1598.66 72.576 L1598.66 27.2059 L1606.16 27.2059 L1606.16 34.2544 Q1608.51 30.1225 1612.27 28.1376 Q1616.04 26.1121 1621.43 26.1121 Q1622.2 26.1121 1623.13 26.2337 Q1624.06 26.3147 1625.2 26.5172 L1625.24 34.1734 Z" fill="#000000" fill-rule="nonzero" fill-opacity="1" /><path clip-path="url(#clip830)" d="M1633.05 27.2059 L1640.51 27.2059 L1640.51 72.576 L1633.05 72.576 L1633.05 27.2059 M1633.05 9.54393 L1640.51 9.54393 L1640.51 18.9825 L1633.05 18.9825 L1633.05 9.54393 Z" fill="#000000" fill-rule="nonzero" fill-opacity="1" /><path clip-path="url(#clip830)" d="M1694.91 48.0275 L1694.91 51.6733 L1660.64 51.6733 Q1661.13 59.3701 1665.26 63.421 Q1669.43 67.4314 1676.84 67.4314 Q1681.14 67.4314 1685.15 66.3781 Q1689.2 65.3249 1693.17 63.2184 L1693.17 70.267 Q1689.16 71.9684 1684.95 72.8596 Q1680.73 73.7508 1676.4 73.7508 Q1665.54 73.7508 1659.18 67.4314 Q1652.86 61.1119 1652.86 50.3365 Q1652.86 39.1965 1658.86 32.6746 Q1664.89 26.1121 1675.1 26.1121 Q1684.26 26.1121 1689.56 32.0264 Q1694.91 37.9003 1694.91 48.0275 M1687.46 45.84 Q1687.38 39.7232 1684.01 36.0774 Q1680.69 32.4315 1675.18 32.4315 Q1668.95 32.4315 1665.18 35.9558 Q1661.45 39.4801 1660.88 45.8805 L1687.46 45.84 Z" fill="#000000" fill-rule="nonzero" fill-opacity="1" /><path clip-path="url(#clip830)" d="M1736.07 28.5427 L1736.07 35.5912 Q1732.91 33.9709 1729.51 33.1607 Q1726.1 32.3505 1722.46 32.3505 Q1716.91 32.3505 1714.11 34.0519 Q1711.36 35.7533 1711.36 39.156 Q1711.36 41.7486 1713.34 43.2475 Q1715.33 44.7058 1721.32 46.0426 L1723.88 46.6097 Q1731.82 48.3111 1735.14 51.4303 Q1738.5 54.509 1738.5 60.0587 Q1738.5 66.3781 1733.48 70.0644 Q1728.49 73.7508 1719.74 73.7508 Q1716.1 73.7508 1712.13 73.0216 Q1708.2 72.3329 1703.82 70.9151 L1703.82 63.2184 Q1707.96 65.3654 1711.97 66.4591 Q1715.98 67.5124 1719.91 67.5124 Q1725.17 67.5124 1728.01 65.73 Q1730.84 63.9071 1730.84 60.6258 Q1730.84 57.5877 1728.78 55.9673 Q1726.75 54.3469 1719.82 52.8481 L1717.23 52.2405 Q1710.3 50.7821 1707.23 47.7845 Q1704.15 44.7463 1704.15 39.4801 Q1704.15 33.0797 1708.68 29.5959 Q1713.22 26.1121 1721.57 26.1121 Q1725.7 26.1121 1729.34 26.7198 Q1732.99 27.3274 1736.07 28.5427 Z" fill="#000000" fill-rule="nonzero" fill-opacity="1" /><polyline clip-path="url(#clip832)" style="stroke:#009af9; stroke-linecap:round; stroke-linejoin:round; stroke-width:4; stroke-opacity:1; fill:none" points="331.177,621.152 341.937,621.04 351.858,620.881 362.272,620.358 372.716,619.323 382.574,617.757 392.476,616.227 401.03,614.801 410.098,613.22 419.848,611.503 429.588,609.148 439.16,606.737 449.053,604.145 459.783,601.327 470.529,599.165 480.737,597.728 489.996,597.007 499.854,596.809 509.987,597.086 520.261,596.88 530.755,596.16 541.482,595.336 551.434,594.774 561.451,594.43 571.611,593.231 581.627,591.778 592.084,589.469 602.428,587.126 612.179,584.377 621.894,581.434 631.816,578.201 641.604,575.44 651.877,572.521 661.905,570.082 670.932,568.348 680.476,567.462 690.297,565.681 699.627,563.456 709.012,560.73 718.224,558.343 728.055,555.832 737.804,553.662 746.771,552.414 755.563,550.827 764.87,549.597 773.703,547.46 781.566,545.295 789.923,543.096 799.521,540.725 809.401,538.066 819.822,535.633 830.606,533.035 841.465,529.73 851.095,526.317 860.578,522.497 869.752,518.659 878.381,514.466 887.791,510.656 898.234,506.704 908.505,502.714 918.111,499.29 927.632,496.729 937.256,494.46 947.206,492.179 957.905,490.569 969.019,489.268 979.591,487.936 989.958,486.346 1001.03,484.496 1011.9,483.419 1021.8,481.901 1030.93,480.408 1040.09,478.81 1049.15,477.254 1058.57,475.826 1068.67,473.782 1078.98,472.637 1089.02,472.345 1098.62,473.154 1108.01,473.6 1117.9,472.631 1127.34,472.074 1137.55,471.001 1148.03,469.368 1157.74,467.955 1166.93,466.53 1176.61,465.342 1185.73,464.235 1195.44,463.347 1205.92,462.524 1215.76,462.037 1225.82,463.371 1235.71,464.261 1245.05,465.206 1254.52,466.524 1264.45,468.069 1273.75,469.279 1283.09,470.322 1293.62,471.801 1304.11,472.655 1314.33,473.473 1324.31,473.537 1333.22,473.074 1342.76,472.452 1352.66,471.155 1362.29,469.206 1371.99,466.3 1382.49,463.156 1393.13,460.313 1403.73,457.003 1413.87,453.38 1423.32,449.861 1432.06,446.467 1441.61,442.885 1450.99,440.054 1460.67,437.335 1470.66,434.424 1481.01,431.738 1491.54,429.366 1502.22,427.728 1512.65,425.626 1523.14,423.903 1533.25,421.749 1543.01,420.247 1552.76,419.108 1562.5,418.394 1572.41,417.847 1582.5,417.571 1592.44,417.883 1601.51,417.574 1610.82,416.425 1620.26,413.97 1629.69,410.964 1639.1,408.061 1648.77,404.476 1658.13,400.425 1668.15,396.197 1678.7,391.483 1688.55,386.332 1697.8,381.722 1706.88,377.129 1717.11,372.423 1727.48,366.757 1737.53,360.577 1747.46,354.545 1756.96,348.39 1766.78,342.43 1776.56,336.389 1786.22,330.207 1795.88,324.159 1804.86,318.652 1814.32,314.021 1824.3,309.619 1834.6,305.757 1845.2,301.988 1854.84,298.409 1864.3,295.031 1873.16,291.973 1882.55,288.735 1892.48,285.331 1903.18,281.607 1913.75,278.463 1923.53,276.014 1933.09,273.23 1943.3,269.16 1953.88,265.012 1965.14,261.081 1976.56,256.981 1987.06,252.974 1996.75,249.249 2006.24,245.669 2015.97,242.494 2025.97,238.77 2036.64,235.397 2046.65,233.065 2056.82,231.187 2067.22,228.388 2077.44,225.587 2087,222.393 2095.75,218.891 2104.16,215.226 2112.66,211.87 2122.51,208.389 2132.11,204.833 2141.42,200.941 2150.59,197.063 2159.36,193.615 2168.33,190.182 2177.91,185.722 2187.37,181.481 2196.47,177.658 2206.1,174.412 2216.16,172.459 2226.36,170.673 2236.46,169.766 2246.39,169.566 2255.64,168.79 2265.46,167.358 2274.98,165.336 2284.27,162.857 2293.87,160.256 "/>
<polyline clip-path="url(#clip832)" style="stroke:#e26f46; stroke-linecap:round; stroke-linejoin:round; stroke-width:4; stroke-opacity:1; fill:none" points="331.177,621.152 342.056,621.19 352.199,621.6 361.285,622.265 370.067,622.971 379.086,624.264 388.43,624.985 398.078,625.39 407.348,625.476 416.706,625.899 426.623,627.095 436.811,629.021 447.925,631.191 458.375,633.113 469.253,634.725 479.761,635.308 489.797,634.956 500.355,634.532 511.734,633.722 521.753,632.627 531.254,632.229 541.155,632.142 551.816,632.817 562.979,632.349 573.948,631.795 584.652,631.243 595.135,630.585 605.818,630.497 616.79,630.46 627.467,630.602 637.432,631.102 647.677,631.742 658.437,632.975 669.063,634.359 680.25,636.319 691.403,638.429 701.261,640.514 710.997,643.336 721.169,646.38 731.922,650.293 742.6,654.555 753.186,659.316 763.868,664.148 774.108,668.143 784.037,671.348 794.312,673.858 804.578,676.63 815.203,679.33 825.501,681.852 835.57,684.984 845.971,687.768 857.309,690.671 868.576,693.348 879.135,695.721 889.866,697.711 900.492,698.973 911.384,700.167 921.866,702.207 932.644,705.205 943.701,708.462 954.527,712.503 965.225,716.169 974.917,719.815 984.547,724.053 994.774,729.252 1004.71,734.774 1014.38,740.238 1024.28,746.115 1033.78,752.265 1043.24,758.292 1052.16,764.073 1061.89,770.627 1072.57,777.031 1083.37,782.511 1093.52,787.94 1103.55,794.045 1113.07,799.997 1123.19,806.401 1134.08,813.335 1143.87,819.772 1153.32,825.484 1163.53,831.217 1174.31,838.046 1184.89,844.483 1194.74,849.978 1203.35,854.783 1212.39,860.135 1222.17,865.437 1231.65,870.185 1242.04,875.682 1252.24,880.481 1262.66,885.482 1272.9,891.034 1282.72,896.027 1292.93,901.458 1303.23,906.972 1313.18,913.064 1323.57,919.429 1334.03,926.04 1344.39,933.04 1354.82,940.46 1365.66,949.268 1376.21,957.369 1385.67,964.139 1394.59,971.088 1404.26,978.504 1414.82,985.983 1425.79,993.476 1436.88,999.676 1447.83,1005.28 1459.27,1010.85 1470.92,1017.23 1482.13,1024.5 1492.73,1032.22 1502.94,1040.31 1512.65,1048.7 1522.49,1056.74 1532.56,1065.23 1542.72,1073.96 1552.45,1081.44 1562.1,1089.09 1571.76,1096.39 1581.18,1105.26 1589.7,1114.57 1597.9,1124.62 1606.72,1136.02 1614.83,1145.95 1622.82,1155.19 1631.16,1165.32 1639.67,1175.52 1648.81,1186.03 1657.13,1197.38 1665.39,1208.34 1673.32,1218.78 1680.82,1227.95 1688.07,1236.42 1696.37,1245.67 1705.12,1255.37 1713.08,1263.61 1721.23,1271.93 1729.25,1279.79 1736.49,1287.55 1744.11,1296.22 1751.55,1305.8 1758.88,1315.42 1766.62,1326.7 1774.21,1337.84 1781.25,1348.41 1788.23,1359.76 1795.24,1370.65 1802.29,1381.34 1812.2,1386.4 1822.32,1384.63 1831.85,1383.06 1841.72,1382.65 1851.82,1382.47 1861.66,1382.28 1872,1381.1 1882.14,1378.36 1891.96,1375.36 1901.18,1372.81 1910.43,1370.06 1919.23,1367.62 1928.45,1365.37 1938.38,1363.57 1948.43,1361.75 1958.24,1360.24 1968.64,1358.4 1978.77,1357.84 1987.75,1357.41 1996.15,1357.59 2005.8,1357.31 2015.34,1356.75 2025.02,1356.46 2034.73,1356.85 2044.15,1357.5 2053.48,1357.69 2063.26,1356.97 2073.25,1356.07 2083.25,1355.43 2093.02,1354.29 2102.45,1352.91 2112.47,1351.64 2122.44,1351.14 2132.53,1350.62 2142.38,1350.17 2152.12,1350.23 2162.27,1350.15 2172.71,1350.25 2183.54,1350.05 2194.87,1349.29 2206.41,1348.12 2217.39,1346.53 2227.12,1345.88 2236.47,1346.35 2245.77,1346.71 2255.03,1347.72 2264.3,1349.76 2273.18,1352.03 2281.34,1353.49 2289.06,1349.19 "/>
<path clip-path="url(#clip830)" d="M341.645 322.316 L797.792 322.316 L797.792 166.796 L341.645 166.796  Z" fill="#ffffff" fill-rule="evenodd" fill-opacity="1"/>
<polyline clip-path="url(#clip830)" style="stroke:#000000; stroke-linecap:round; stroke-linejoin:round; stroke-width:4; stroke-opacity:1; fill:none" points="341.645,322.316 797.792,322.316 797.792,166.796 341.645,166.796 341.645,322.316 "/>
<polyline clip-path="url(#clip830)" style="stroke:#009af9; stroke-linecap:round; stroke-linejoin:round; stroke-width:4; stroke-opacity:1; fill:none" points="364.761,218.636 503.459,218.636 "/>
<path clip-path="url(#clip830)" d="M526.575 201.356 L546.436 201.356 L546.436 205.291 L531.251 205.291 L531.251 215.476 L544.954 215.476 L544.954 219.411 L531.251 219.411 L531.251 235.916 L526.575 235.916 L526.575 201.356 Z" fill="#000000" fill-rule="nonzero" fill-opacity="1" /><path clip-path="url(#clip830)" d="M550.209 209.99 L554.468 209.99 L554.468 235.916 L550.209 235.916 L550.209 209.99 M550.209 199.897 L554.468 199.897 L554.468 205.291 L550.209 205.291 L550.209 199.897 Z" fill="#000000" fill-rule="nonzero" fill-opacity="1" /><path clip-path="url(#clip830)" d="M584.931 209.99 L575.556 222.606 L585.417 235.916 L580.394 235.916 L572.848 225.731 L565.302 235.916 L560.278 235.916 L570.348 222.351 L561.135 209.99 L566.158 209.99 L573.033 219.226 L579.908 209.99 L584.931 209.99 Z" fill="#000000" fill-rule="nonzero" fill-opacity="1" /><path clip-path="url(#clip830)" d="M612.153 221.888 L612.153 223.971 L592.57 223.971 Q592.848 228.369 595.209 230.684 Q597.593 232.976 601.829 232.976 Q604.283 232.976 606.574 232.374 Q608.889 231.772 611.158 230.569 L611.158 234.596 Q608.866 235.568 606.459 236.078 Q604.051 236.587 601.575 236.587 Q595.371 236.587 591.737 232.976 Q588.126 229.365 588.126 223.207 Q588.126 216.842 591.551 213.115 Q595 209.365 600.834 209.365 Q606.065 209.365 609.098 212.745 Q612.153 216.101 612.153 221.888 M607.894 220.638 Q607.848 217.143 605.926 215.059 Q604.028 212.976 600.88 212.976 Q597.315 212.976 595.163 214.99 Q593.033 217.004 592.709 220.661 L607.894 220.638 Z" fill="#000000" fill-rule="nonzero" fill-opacity="1" /><path clip-path="url(#clip830)" d="M636.204 213.925 L636.204 199.897 L640.463 199.897 L640.463 235.916 L636.204 235.916 L636.204 232.027 Q634.861 234.342 632.801 235.476 Q630.764 236.587 627.894 236.587 Q623.195 236.587 620.232 232.837 Q617.292 229.087 617.292 222.976 Q617.292 216.865 620.232 213.115 Q623.195 209.365 627.894 209.365 Q630.764 209.365 632.801 210.499 Q634.861 211.61 636.204 213.925 M621.69 222.976 Q621.69 227.675 623.611 230.36 Q625.556 233.022 628.935 233.022 Q632.315 233.022 634.26 230.36 Q636.204 227.675 636.204 222.976 Q636.204 218.277 634.26 215.615 Q632.315 212.93 628.935 212.93 Q625.556 212.93 623.611 215.615 Q621.69 218.277 621.69 222.976 Z" fill="#000000" fill-rule="nonzero" fill-opacity="1" /><path clip-path="url(#clip830)" d="M661.412 201.356 L666.134 201.356 L673.403 230.569 L680.648 201.356 L685.903 201.356 L693.171 230.569 L700.417 201.356 L705.162 201.356 L696.481 235.916 L690.602 235.916 L683.31 205.916 L675.949 235.916 L670.07 235.916 L661.412 201.356 Z" fill="#000000" fill-rule="nonzero" fill-opacity="1" /><path clip-path="url(#clip830)" d="M710.139 209.99 L714.398 209.99 L714.398 235.916 L710.139 235.916 L710.139 209.99 M710.139 199.897 L714.398 199.897 L714.398 205.291 L710.139 205.291 L710.139 199.897 Z" fill="#000000" fill-rule="nonzero" fill-opacity="1" /><path clip-path="url(#clip830)" d="M744.861 220.268 L744.861 235.916 L740.602 235.916 L740.602 220.407 Q740.602 216.726 739.166 214.897 Q737.731 213.069 734.861 213.069 Q731.412 213.069 729.421 215.268 Q727.43 217.467 727.43 221.263 L727.43 235.916 L723.148 235.916 L723.148 209.99 L727.43 209.99 L727.43 214.018 Q728.958 211.68 731.018 210.522 Q733.102 209.365 735.81 209.365 Q740.277 209.365 742.569 212.143 Q744.861 214.897 744.861 220.268 Z" fill="#000000" fill-rule="nonzero" fill-opacity="1" /><path clip-path="url(#clip830)" d="M770.416 222.652 Q770.416 218.022 768.495 215.476 Q766.597 212.93 763.148 212.93 Q759.722 212.93 757.801 215.476 Q755.902 218.022 755.902 222.652 Q755.902 227.258 757.801 229.805 Q759.722 232.351 763.148 232.351 Q766.597 232.351 768.495 229.805 Q770.416 227.258 770.416 222.652 M774.675 232.698 Q774.675 239.318 771.736 242.536 Q768.796 245.777 762.731 245.777 Q760.486 245.777 758.495 245.43 Q756.504 245.105 754.629 244.411 L754.629 240.268 Q756.504 241.286 758.333 241.772 Q760.162 242.258 762.06 242.258 Q766.25 242.258 768.333 240.059 Q770.416 237.883 770.416 233.462 L770.416 231.356 Q769.097 233.647 767.037 234.781 Q764.976 235.916 762.106 235.916 Q757.338 235.916 754.421 232.281 Q751.504 228.647 751.504 222.652 Q751.504 216.633 754.421 212.999 Q757.338 209.365 762.106 209.365 Q764.976 209.365 767.037 210.499 Q769.097 211.633 770.416 213.925 L770.416 209.99 L774.675 209.99 L774.675 232.698 Z" fill="#000000" fill-rule="nonzero" fill-opacity="1" /><polyline clip-path="url(#clip830)" style="stroke:#e26f46; stroke-linecap:round; stroke-linejoin:round; stroke-width:4; stroke-opacity:1; fill:none" points="364.761,270.476 503.459,270.476 "/>
<path clip-path="url(#clip830)" d="M526.575 253.196 L533.542 253.196 L542.362 276.714 L551.228 253.196 L558.195 253.196 L558.195 287.756 L553.635 287.756 L553.635 257.409 L544.723 281.112 L540.024 281.112 L531.112 257.409 L531.112 287.756 L526.575 287.756 L526.575 253.196 Z" fill="#000000" fill-rule="nonzero" fill-opacity="1" /><path clip-path="url(#clip830)" d="M566.852 277.524 L566.852 261.83 L571.112 261.83 L571.112 277.362 Q571.112 281.043 572.547 282.895 Q573.982 284.723 576.852 284.723 Q580.301 284.723 582.292 282.524 Q584.306 280.325 584.306 276.529 L584.306 261.83 L588.565 261.83 L588.565 287.756 L584.306 287.756 L584.306 283.774 Q582.755 286.135 580.695 287.293 Q578.658 288.427 575.95 288.427 Q571.482 288.427 569.167 285.649 Q566.852 282.871 566.852 277.524 M577.57 261.205 L577.57 261.205 Z" fill="#000000" fill-rule="nonzero" fill-opacity="1" /><path clip-path="url(#clip830)" d="M597.338 251.737 L601.598 251.737 L601.598 287.756 L597.338 287.756 L597.338 251.737 Z" fill="#000000" fill-rule="nonzero" fill-opacity="1" /><path clip-path="url(#clip830)" d="M614.723 254.469 L614.723 261.83 L623.496 261.83 L623.496 265.14 L614.723 265.14 L614.723 279.214 Q614.723 282.385 615.579 283.288 Q616.459 284.191 619.121 284.191 L623.496 284.191 L623.496 287.756 L619.121 287.756 Q614.19 287.756 612.315 285.927 Q610.44 284.075 610.44 279.214 L610.44 265.14 L607.315 265.14 L607.315 261.83 L610.44 261.83 L610.44 254.469 L614.723 254.469 Z" fill="#000000" fill-rule="nonzero" fill-opacity="1" /><path clip-path="url(#clip830)" d="M629.098 261.83 L633.357 261.83 L633.357 287.756 L629.098 287.756 L629.098 261.83 M629.098 251.737 L633.357 251.737 L633.357 257.131 L629.098 257.131 L629.098 251.737 Z" fill="#000000" fill-rule="nonzero" fill-opacity="1" /><path clip-path="url(#clip830)" d="M657.292 265.811 Q656.574 265.395 655.718 265.21 Q654.884 265.001 653.866 265.001 Q650.255 265.001 648.31 267.362 Q646.389 269.7 646.389 274.098 L646.389 287.756 L642.107 287.756 L642.107 261.83 L646.389 261.83 L646.389 265.858 Q647.732 263.497 649.884 262.362 Q652.037 261.205 655.116 261.205 Q655.556 261.205 656.088 261.274 Q656.621 261.321 657.269 261.436 L657.292 265.811 Z" fill="#000000" fill-rule="nonzero" fill-opacity="1" /><path clip-path="url(#clip830)" d="M670.764 264.816 Q667.338 264.816 665.347 267.501 Q663.357 270.163 663.357 274.816 Q663.357 279.469 665.324 282.154 Q667.315 284.816 670.764 284.816 Q674.167 284.816 676.157 282.131 Q678.148 279.446 678.148 274.816 Q678.148 270.21 676.157 267.524 Q674.167 264.816 670.764 264.816 M670.764 261.205 Q676.319 261.205 679.491 264.816 Q682.662 268.427 682.662 274.816 Q682.662 281.182 679.491 284.816 Q676.319 288.427 670.764 288.427 Q665.185 288.427 662.014 284.816 Q658.866 281.182 658.866 274.816 Q658.866 268.427 662.014 264.816 Q665.185 261.205 670.764 261.205 Z" fill="#000000" fill-rule="nonzero" fill-opacity="1" /><path clip-path="url(#clip830)" d="M693.935 254.469 L693.935 261.83 L702.708 261.83 L702.708 265.14 L693.935 265.14 L693.935 279.214 Q693.935 282.385 694.792 283.288 Q695.671 284.191 698.333 284.191 L702.708 284.191 L702.708 287.756 L698.333 287.756 Q693.403 287.756 691.528 285.927 Q689.653 284.075 689.653 279.214 L689.653 265.14 L686.528 265.14 L686.528 261.83 L689.653 261.83 L689.653 254.469 L693.935 254.469 Z" fill="#000000" fill-rule="nonzero" fill-opacity="1" /><path clip-path="url(#clip830)" d="M718.356 264.816 Q714.93 264.816 712.94 267.501 Q710.949 270.163 710.949 274.816 Q710.949 279.469 712.917 282.154 Q714.907 284.816 718.356 284.816 Q721.759 284.816 723.75 282.131 Q725.741 279.446 725.741 274.816 Q725.741 270.21 723.75 267.524 Q721.759 264.816 718.356 264.816 M718.356 261.205 Q723.912 261.205 727.083 264.816 Q730.254 268.427 730.254 274.816 Q730.254 281.182 727.083 284.816 Q723.912 288.427 718.356 288.427 Q712.778 288.427 709.606 284.816 Q706.458 281.182 706.458 274.816 Q706.458 268.427 709.606 264.816 Q712.778 261.205 718.356 261.205 Z" fill="#000000" fill-rule="nonzero" fill-opacity="1" /><path clip-path="url(#clip830)" d="M752.338 265.811 Q751.62 265.395 750.764 265.21 Q749.93 265.001 748.912 265.001 Q745.301 265.001 743.356 267.362 Q741.435 269.7 741.435 274.098 L741.435 287.756 L737.152 287.756 L737.152 261.83 L741.435 261.83 L741.435 265.858 Q742.777 263.497 744.93 262.362 Q747.083 261.205 750.162 261.205 Q750.601 261.205 751.134 261.274 Q751.666 261.321 752.314 261.436 L752.338 265.811 Z" fill="#000000" fill-rule="nonzero" fill-opacity="1" /></svg>
