<?xml version="1.0" encoding="utf-8"?>
<svg xmlns="http://www.w3.org/2000/svg" xmlns:xlink="http://www.w3.org/1999/xlink" width="600" height="400" viewBox="0 0 2400 1600">
<defs>
  <clipPath id="clip310">
    <rect x="0" y="0" width="2400" height="1600"/>
  </clipPath>
</defs>
<path clip-path="url(#clip310)" d="M0 1600 L2400 1600 L2400 0 L0 0  Z" fill="#ffffff" fill-rule="evenodd" fill-opacity="1"/>
<defs>
  <clipPath id="clip311">
    <rect x="480" y="0" width="1681" height="1600"/>
  </clipPath>
</defs>
<path clip-path="url(#clip310)" d="M219.866 1423.18 L2352.76 1423.18 L2352.76 123.472 L219.866 123.472  Z" fill="#ffffff" fill-rule="evenodd" fill-opacity="1"/>
<defs>
  <clipPath id="clip312">
    <rect x="219" y="123" width="2134" height="1301"/>
  </clipPath>
</defs>
<polyline clip-path="url(#clip312)" style="stroke:#000000; stroke-linecap:round; stroke-linejoin:round; stroke-width:2; stroke-opacity:0.1; fill:none" points="270.17,1423.18 270.17,123.472 "/>
<polyline clip-path="url(#clip312)" style="stroke:#000000; stroke-linecap:round; stroke-linejoin:round; stroke-width:2; stroke-opacity:0.1; fill:none" points="773.21,1423.18 773.21,123.472 "/>
<polyline clip-path="url(#clip312)" style="stroke:#000000; stroke-linecap:round; stroke-linejoin:round; stroke-width:2; stroke-opacity:0.1; fill:none" points="1276.25,1423.18 1276.25,123.472 "/>
<polyline clip-path="url(#clip312)" style="stroke:#000000; stroke-linecap:round; stroke-linejoin:round; stroke-width:2; stroke-opacity:0.1; fill:none" points="1779.29,1423.18 1779.29,123.472 "/>
<polyline clip-path="url(#clip312)" style="stroke:#000000; stroke-linecap:round; stroke-linejoin:round; stroke-width:2; stroke-opacity:0.1; fill:none" points="2282.33,1423.18 2282.33,123.472 "/>
<polyline clip-path="url(#clip310)" style="stroke:#000000; stroke-linecap:round; stroke-linejoin:round; stroke-width:4; stroke-opacity:1; fill:none" points="219.866,1423.18 2352.76,1423.18 "/>
<polyline clip-path="url(#clip310)" style="stroke:#000000; stroke-linecap:round; stroke-linejoin:round; stroke-width:4; stroke-opacity:1; fill:none" points="270.17,1423.18 270.17,1404.28 "/>
<polyline clip-path="url(#clip310)" style="stroke:#000000; stroke-linecap:round; stroke-linejoin:round; stroke-width:4; stroke-opacity:1; fill:none" points="773.21,1423.18 773.21,1404.28 "/>
<polyline clip-path="url(#clip310)" style="stroke:#000000; stroke-linecap:round; stroke-linejoin:round; stroke-width:4; stroke-opacity:1; fill:none" points="1276.25,1423.18 1276.25,1404.28 "/>
<polyline clip-path="url(#clip310)" style="stroke:#000000; stroke-linecap:round; stroke-linejoin:round; stroke-width:4; stroke-opacity:1; fill:none" points="1779.29,1423.18 1779.29,1404.28 "/>
<polyline clip-path="url(#clip310)" style="stroke:#000000; stroke-linecap:round; stroke-linejoin:round; stroke-width:4; stroke-opacity:1; fill:none" points="2282.33,1423.18 2282.33,1404.28 "/>
<path clip-path="url(#clip310)" d="M270.17 1454.1 Q266.559 1454.1 264.73 1457.66 Q262.925 1461.2 262.925 1468.33 Q262.925 1475.44 264.73 1479.01 Q266.559 1482.55 270.17 1482.55 Q273.805 1482.55 275.61 1479.01 Q277.439 1475.44 277.439 1468.33 Q277.439 1461.2 275.61 1457.66 Q273.805 1454.1 270.17 1454.1 M270.17 1450.39 Q275.98 1450.39 279.036 1455 Q282.115 1459.58 282.115 1468.33 Q282.115 1477.06 279.036 1481.67 Q275.98 1486.25 270.17 1486.25 Q264.36 1486.25 261.281 1481.67 Q258.226 1477.06 258.226 1468.33 Q258.226 1459.58 261.281 1455 Q264.36 1450.39 270.17 1450.39 Z" fill="#000000" fill-rule="nonzero" fill-opacity="1" /><path clip-path="url(#clip310)" d="M747.909 1451.02 L766.266 1451.02 L766.266 1454.96 L752.192 1454.96 L752.192 1463.43 Q753.21 1463.08 754.229 1462.92 Q755.247 1462.73 756.266 1462.73 Q762.053 1462.73 765.433 1465.9 Q768.812 1469.08 768.812 1474.49 Q768.812 1480.07 765.34 1483.17 Q761.868 1486.25 755.548 1486.25 Q753.372 1486.25 751.104 1485.88 Q748.859 1485.51 746.451 1484.77 L746.451 1480.07 Q748.534 1481.2 750.757 1481.76 Q752.979 1482.32 755.456 1482.32 Q759.46 1482.32 761.798 1480.21 Q764.136 1478.1 764.136 1474.49 Q764.136 1470.88 761.798 1468.77 Q759.46 1466.67 755.456 1466.67 Q753.581 1466.67 751.706 1467.08 Q749.854 1467.5 747.909 1468.38 L747.909 1451.02 Z" fill="#000000" fill-rule="nonzero" fill-opacity="1" /><path clip-path="url(#clip310)" d="M788.025 1454.1 Q784.414 1454.1 782.585 1457.66 Q780.78 1461.2 780.78 1468.33 Q780.78 1475.44 782.585 1479.01 Q784.414 1482.55 788.025 1482.55 Q791.659 1482.55 793.465 1479.01 Q795.293 1475.44 795.293 1468.33 Q795.293 1461.2 793.465 1457.66 Q791.659 1454.1 788.025 1454.1 M788.025 1450.39 Q793.835 1450.39 796.891 1455 Q799.969 1459.58 799.969 1468.33 Q799.969 1477.06 796.891 1481.67 Q793.835 1486.25 788.025 1486.25 Q782.215 1486.25 779.136 1481.67 Q776.081 1477.06 776.081 1468.33 Q776.081 1459.58 779.136 1455 Q782.215 1450.39 788.025 1450.39 Z" fill="#000000" fill-rule="nonzero" fill-opacity="1" /><path clip-path="url(#clip310)" d="M1235.86 1481.64 L1243.5 1481.64 L1243.5 1455.28 L1235.19 1456.95 L1235.19 1452.69 L1243.45 1451.02 L1248.13 1451.02 L1248.13 1481.64 L1255.76 1481.64 L1255.76 1485.58 L1235.86 1485.58 L1235.86 1481.64 Z" fill="#000000" fill-rule="nonzero" fill-opacity="1" /><path clip-path="url(#clip310)" d="M1275.21 1454.1 Q1271.6 1454.1 1269.77 1457.66 Q1267.96 1461.2 1267.96 1468.33 Q1267.96 1475.44 1269.77 1479.01 Q1271.6 1482.55 1275.21 1482.55 Q1278.84 1482.55 1280.65 1479.01 Q1282.48 1475.44 1282.48 1468.33 Q1282.48 1461.2 1280.65 1457.66 Q1278.84 1454.1 1275.21 1454.1 M1275.21 1450.39 Q1281.02 1450.39 1284.07 1455 Q1287.15 1459.58 1287.15 1468.33 Q1287.15 1477.06 1284.07 1481.67 Q1281.02 1486.25 1275.21 1486.25 Q1269.4 1486.25 1266.32 1481.67 Q1263.26 1477.06 1263.26 1468.33 Q1263.26 1459.58 1266.32 1455 Q1269.4 1450.39 1275.21 1450.39 Z" fill="#000000" fill-rule="nonzero" fill-opacity="1" /><path clip-path="url(#clip310)" d="M1305.37 1454.1 Q1301.76 1454.1 1299.93 1457.66 Q1298.13 1461.2 1298.13 1468.33 Q1298.13 1475.44 1299.93 1479.01 Q1301.76 1482.55 1305.37 1482.55 Q1309 1482.55 1310.81 1479.01 Q1312.64 1475.44 1312.64 1468.33 Q1312.64 1461.2 1310.81 1457.66 Q1309 1454.1 1305.37 1454.1 M1305.37 1450.39 Q1311.18 1450.39 1314.24 1455 Q1317.31 1459.58 1317.31 1468.33 Q1317.31 1477.06 1314.24 1481.67 Q1311.18 1486.25 1305.37 1486.25 Q1299.56 1486.25 1296.48 1481.67 Q1293.43 1477.06 1293.43 1468.33 Q1293.43 1459.58 1296.48 1455 Q1299.56 1450.39 1305.37 1450.39 Z" fill="#000000" fill-rule="nonzero" fill-opacity="1" /><path clip-path="url(#clip310)" d="M1738.9 1481.64 L1746.54 1481.64 L1746.54 1455.28 L1738.23 1456.95 L1738.23 1452.69 L1746.49 1451.02 L1751.17 1451.02 L1751.17 1481.64 L1758.8 1481.64 L1758.8 1485.58 L1738.9 1485.58 L1738.9 1481.64 Z" fill="#000000" fill-rule="nonzero" fill-opacity="1" /><path clip-path="url(#clip310)" d="M1768.29 1451.02 L1786.65 1451.02 L1786.65 1454.96 L1772.58 1454.96 L1772.58 1463.43 Q1773.6 1463.08 1774.61 1462.92 Q1775.63 1462.73 1776.65 1462.73 Q1782.44 1462.73 1785.82 1465.9 Q1789.2 1469.08 1789.2 1474.49 Q1789.2 1480.07 1785.73 1483.17 Q1782.25 1486.25 1775.93 1486.25 Q1773.76 1486.25 1771.49 1485.88 Q1769.24 1485.51 1766.84 1484.77 L1766.84 1480.07 Q1768.92 1481.2 1771.14 1481.76 Q1773.36 1482.32 1775.84 1482.32 Q1779.85 1482.32 1782.18 1480.21 Q1784.52 1478.1 1784.52 1474.49 Q1784.52 1470.88 1782.18 1468.77 Q1779.85 1466.67 1775.84 1466.67 Q1773.97 1466.67 1772.09 1467.08 Q1770.24 1467.5 1768.29 1468.38 L1768.29 1451.02 Z" fill="#000000" fill-rule="nonzero" fill-opacity="1" /><path clip-path="url(#clip310)" d="M1808.41 1454.1 Q1804.8 1454.1 1802.97 1457.66 Q1801.17 1461.2 1801.17 1468.33 Q1801.17 1475.44 1802.97 1479.01 Q1804.8 1482.55 1808.41 1482.55 Q1812.04 1482.55 1813.85 1479.01 Q1815.68 1475.44 1815.68 1468.33 Q1815.68 1461.2 1813.85 1457.66 Q1812.04 1454.1 1808.41 1454.1 M1808.41 1450.39 Q1814.22 1450.39 1817.28 1455 Q1820.35 1459.58 1820.35 1468.33 Q1820.35 1477.06 1817.28 1481.67 Q1814.22 1486.25 1808.41 1486.25 Q1802.6 1486.25 1799.52 1481.67 Q1796.47 1477.06 1796.47 1468.33 Q1796.47 1459.58 1799.52 1455 Q1802.6 1450.39 1808.41 1450.39 Z" fill="#000000" fill-rule="nonzero" fill-opacity="1" /><path clip-path="url(#clip310)" d="M2246.02 1481.64 L2262.34 1481.64 L2262.34 1485.58 L2240.4 1485.58 L2240.4 1481.64 Q2243.06 1478.89 2247.64 1474.26 Q2252.25 1469.61 2253.43 1468.27 Q2255.68 1465.74 2256.55 1464.01 Q2257.46 1462.25 2257.46 1460.56 Q2257.46 1457.8 2255.51 1456.07 Q2253.59 1454.33 2250.49 1454.33 Q2248.29 1454.33 2245.84 1455.09 Q2243.41 1455.86 2240.63 1457.41 L2240.63 1452.69 Q2243.45 1451.55 2245.91 1450.97 Q2248.36 1450.39 2250.4 1450.39 Q2255.77 1450.39 2258.96 1453.08 Q2262.16 1455.77 2262.16 1460.26 Q2262.16 1462.39 2261.35 1464.31 Q2260.56 1466.2 2258.45 1468.8 Q2257.87 1469.47 2254.77 1472.69 Q2251.67 1475.88 2246.02 1481.64 Z" fill="#000000" fill-rule="nonzero" fill-opacity="1" /><path clip-path="url(#clip310)" d="M2282.16 1454.1 Q2278.55 1454.1 2276.72 1457.66 Q2274.91 1461.2 2274.91 1468.33 Q2274.91 1475.44 2276.72 1479.01 Q2278.55 1482.55 2282.16 1482.55 Q2285.79 1482.55 2287.6 1479.01 Q2289.43 1475.44 2289.43 1468.33 Q2289.43 1461.2 2287.6 1457.66 Q2285.79 1454.1 2282.16 1454.1 M2282.16 1450.39 Q2287.97 1450.39 2291.02 1455 Q2294.1 1459.58 2294.1 1468.33 Q2294.1 1477.06 2291.02 1481.67 Q2287.97 1486.25 2282.16 1486.25 Q2276.35 1486.25 2273.27 1481.67 Q2270.21 1477.06 2270.21 1468.33 Q2270.21 1459.58 2273.27 1455 Q2276.35 1450.39 2282.16 1450.39 Z" fill="#000000" fill-rule="nonzero" fill-opacity="1" /><path clip-path="url(#clip310)" d="M2312.32 1454.1 Q2308.71 1454.1 2306.88 1457.66 Q2305.07 1461.2 2305.07 1468.33 Q2305.07 1475.44 2306.88 1479.01 Q2308.71 1482.55 2312.32 1482.55 Q2315.95 1482.55 2317.76 1479.01 Q2319.59 1475.44 2319.59 1468.33 Q2319.59 1461.2 2317.76 1457.66 Q2315.95 1454.1 2312.32 1454.1 M2312.32 1450.39 Q2318.13 1450.39 2321.18 1455 Q2324.26 1459.58 2324.26 1468.33 Q2324.26 1477.06 2321.18 1481.67 Q2318.13 1486.25 2312.32 1486.25 Q2306.51 1486.25 2303.43 1481.67 Q2300.37 1477.06 2300.37 1468.33 Q2300.37 1459.58 2303.43 1455 Q2306.51 1450.39 2312.32 1450.39 Z" fill="#000000" fill-rule="nonzero" fill-opacity="1" /><path clip-path="url(#clip310)" d="M1270.49 1518.52 L1276.38 1518.52 L1276.38 1547.77 L1293.85 1532.4 L1301.33 1532.4 L1282.43 1549.07 L1302.13 1568.04 L1294.49 1568.04 L1276.38 1550.63 L1276.38 1568.04 L1270.49 1568.04 L1270.49 1518.52 Z" fill="#000000" fill-rule="nonzero" fill-opacity="1" /><polyline clip-path="url(#clip312)" style="stroke:#000000; stroke-linecap:round; stroke-linejoin:round; stroke-width:2; stroke-opacity:0.1; fill:none" points="219.866,1165.31 2352.76,1165.31 "/>
<polyline clip-path="url(#clip312)" style="stroke:#000000; stroke-linecap:round; stroke-linejoin:round; stroke-width:2; stroke-opacity:0.1; fill:none" points="219.866,903.988 2352.76,903.988 "/>
<polyline clip-path="url(#clip312)" style="stroke:#000000; stroke-linecap:round; stroke-linejoin:round; stroke-width:2; stroke-opacity:0.1; fill:none" points="219.866,642.664 2352.76,642.664 "/>
<polyline clip-path="url(#clip312)" style="stroke:#000000; stroke-linecap:round; stroke-linejoin:round; stroke-width:2; stroke-opacity:0.1; fill:none" points="219.866,381.341 2352.76,381.341 "/>
<polyline clip-path="url(#clip310)" style="stroke:#000000; stroke-linecap:round; stroke-linejoin:round; stroke-width:4; stroke-opacity:1; fill:none" points="219.866,1423.18 219.866,123.472 "/>
<polyline clip-path="url(#clip310)" style="stroke:#000000; stroke-linecap:round; stroke-linejoin:round; stroke-width:4; stroke-opacity:1; fill:none" points="219.866,1165.31 238.764,1165.31 "/>
<polyline clip-path="url(#clip310)" style="stroke:#000000; stroke-linecap:round; stroke-linejoin:round; stroke-width:4; stroke-opacity:1; fill:none" points="219.866,903.988 238.764,903.988 "/>
<polyline clip-path="url(#clip310)" style="stroke:#000000; stroke-linecap:round; stroke-linejoin:round; stroke-width:4; stroke-opacity:1; fill:none" points="219.866,642.664 238.764,642.664 "/>
<polyline clip-path="url(#clip310)" style="stroke:#000000; stroke-linecap:round; stroke-linejoin:round; stroke-width:4; stroke-opacity:1; fill:none" points="219.866,381.341 238.764,381.341 "/>
<path clip-path="url(#clip310)" d="M128.288 1151.11 Q124.677 1151.11 122.848 1154.67 Q121.043 1158.22 121.043 1165.35 Q121.043 1172.45 122.848 1176.02 Q124.677 1179.56 128.288 1179.56 Q131.922 1179.56 133.728 1176.02 Q135.556 1172.45 135.556 1165.35 Q135.556 1158.22 133.728 1154.67 Q131.922 1151.11 128.288 1151.11 M128.288 1147.41 Q134.098 1147.41 137.154 1152.01 Q140.232 1156.6 140.232 1165.35 Q140.232 1174.07 137.154 1178.68 Q134.098 1183.26 128.288 1183.26 Q122.478 1183.26 119.399 1178.68 Q116.343 1174.07 116.343 1165.35 Q116.343 1156.6 119.399 1152.01 Q122.478 1147.41 128.288 1147.41 Z" fill="#000000" fill-rule="nonzero" fill-opacity="1" /><path clip-path="url(#clip310)" d="M148.45 1176.71 L153.334 1176.71 L153.334 1182.59 L148.45 1182.59 L148.45 1176.71 Z" fill="#000000" fill-rule="nonzero" fill-opacity="1" /><path clip-path="url(#clip310)" d="M167.547 1178.66 L183.866 1178.66 L183.866 1182.59 L161.922 1182.59 L161.922 1178.66 Q164.584 1175.9 169.167 1171.27 Q173.774 1166.62 174.954 1165.28 Q177.2 1162.75 178.079 1161.02 Q178.982 1159.26 178.982 1157.57 Q178.982 1154.81 177.038 1153.08 Q175.116 1151.34 172.014 1151.34 Q169.815 1151.34 167.362 1152.1 Q164.931 1152.87 162.153 1154.42 L162.153 1149.7 Q164.977 1148.56 167.431 1147.98 Q169.885 1147.41 171.922 1147.41 Q177.292 1147.41 180.487 1150.09 Q183.681 1152.78 183.681 1157.27 Q183.681 1159.4 182.871 1161.32 Q182.084 1163.22 179.977 1165.81 Q179.399 1166.48 176.297 1169.7 Q173.195 1172.89 167.547 1178.66 Z" fill="#000000" fill-rule="nonzero" fill-opacity="1" /><path clip-path="url(#clip310)" d="M126.205 889.786 Q122.593 889.786 120.765 893.351 Q118.959 896.893 118.959 904.022 Q118.959 911.129 120.765 914.694 Q122.593 918.235 126.205 918.235 Q129.839 918.235 131.644 914.694 Q133.473 911.129 133.473 904.022 Q133.473 896.893 131.644 893.351 Q129.839 889.786 126.205 889.786 M126.205 886.083 Q132.015 886.083 135.07 890.689 Q138.149 895.272 138.149 904.022 Q138.149 912.749 135.07 917.356 Q132.015 921.939 126.205 921.939 Q120.394 921.939 117.316 917.356 Q114.26 912.749 114.26 904.022 Q114.26 895.272 117.316 890.689 Q120.394 886.083 126.205 886.083 Z" fill="#000000" fill-rule="nonzero" fill-opacity="1" /><path clip-path="url(#clip310)" d="M146.366 915.388 L151.251 915.388 L151.251 921.268 L146.366 921.268 L146.366 915.388 Z" fill="#000000" fill-rule="nonzero" fill-opacity="1" /><path clip-path="url(#clip310)" d="M174.283 890.782 L162.477 909.231 L174.283 909.231 L174.283 890.782 M173.056 886.708 L178.936 886.708 L178.936 909.231 L183.866 909.231 L183.866 913.119 L178.936 913.119 L178.936 921.268 L174.283 921.268 L174.283 913.119 L158.681 913.119 L158.681 908.606 L173.056 886.708 Z" fill="#000000" fill-rule="nonzero" fill-opacity="1" /><path clip-path="url(#clip310)" d="M126.529 628.463 Q122.918 628.463 121.089 632.028 Q119.283 635.57 119.283 642.699 Q119.283 649.806 121.089 653.37 Q122.918 656.912 126.529 656.912 Q130.163 656.912 131.968 653.37 Q133.797 649.806 133.797 642.699 Q133.797 635.57 131.968 632.028 Q130.163 628.463 126.529 628.463 M126.529 624.759 Q132.339 624.759 135.394 629.366 Q138.473 633.949 138.473 642.699 Q138.473 651.426 135.394 656.032 Q132.339 660.616 126.529 660.616 Q120.718 660.616 117.64 656.032 Q114.584 651.426 114.584 642.699 Q114.584 633.949 117.64 629.366 Q120.718 624.759 126.529 624.759 Z" fill="#000000" fill-rule="nonzero" fill-opacity="1" /><path clip-path="url(#clip310)" d="M146.691 654.065 L151.575 654.065 L151.575 659.944 L146.691 659.944 L146.691 654.065 Z" fill="#000000" fill-rule="nonzero" fill-opacity="1" /><path clip-path="url(#clip310)" d="M172.339 640.801 Q169.19 640.801 167.339 642.954 Q165.51 645.107 165.51 648.857 Q165.51 652.583 167.339 654.759 Q169.19 656.912 172.339 656.912 Q175.487 656.912 177.315 654.759 Q179.167 652.583 179.167 648.857 Q179.167 645.107 177.315 642.954 Q175.487 640.801 172.339 640.801 M181.621 626.148 L181.621 630.408 Q179.862 629.574 178.056 629.134 Q176.274 628.695 174.514 628.695 Q169.885 628.695 167.431 631.82 Q165.001 634.945 164.653 641.264 Q166.019 639.25 168.079 638.185 Q170.139 637.097 172.616 637.097 Q177.825 637.097 180.834 640.269 Q183.866 643.417 183.866 648.857 Q183.866 654.181 180.718 657.398 Q177.57 660.616 172.339 660.616 Q166.343 660.616 163.172 656.032 Q160.001 651.426 160.001 642.699 Q160.001 634.505 163.89 629.644 Q167.778 624.759 174.329 624.759 Q176.089 624.759 177.871 625.107 Q179.676 625.454 181.621 626.148 Z" fill="#000000" fill-rule="nonzero" fill-opacity="1" /><path clip-path="url(#clip310)" d="M126.783 367.14 Q123.172 367.14 121.343 370.705 Q119.538 374.246 119.538 381.376 Q119.538 388.482 121.343 392.047 Q123.172 395.589 126.783 395.589 Q130.417 395.589 132.223 392.047 Q134.052 388.482 134.052 381.376 Q134.052 374.246 132.223 370.705 Q130.417 367.14 126.783 367.14 M126.783 363.436 Q132.593 363.436 135.649 368.043 Q138.728 372.626 138.728 381.376 Q138.728 390.103 135.649 394.709 Q132.593 399.293 126.783 399.293 Q120.973 399.293 117.894 394.709 Q114.839 390.103 114.839 381.376 Q114.839 372.626 117.894 368.043 Q120.973 363.436 126.783 363.436 Z" fill="#000000" fill-rule="nonzero" fill-opacity="1" /><path clip-path="url(#clip310)" d="M146.945 392.742 L151.829 392.742 L151.829 398.621 L146.945 398.621 L146.945 392.742 Z" fill="#000000" fill-rule="nonzero" fill-opacity="1" /><path clip-path="url(#clip310)" d="M172.014 382.209 Q168.681 382.209 166.76 383.992 Q164.862 385.774 164.862 388.899 Q164.862 392.024 166.76 393.807 Q168.681 395.589 172.014 395.589 Q175.348 395.589 177.269 393.807 Q179.19 392.001 179.19 388.899 Q179.19 385.774 177.269 383.992 Q175.371 382.209 172.014 382.209 M167.339 380.219 Q164.329 379.478 162.64 377.418 Q160.973 375.358 160.973 372.395 Q160.973 368.251 163.913 365.844 Q166.876 363.436 172.014 363.436 Q177.176 363.436 180.116 365.844 Q183.056 368.251 183.056 372.395 Q183.056 375.358 181.366 377.418 Q179.7 379.478 176.714 380.219 Q180.093 381.006 181.968 383.297 Q183.866 385.589 183.866 388.899 Q183.866 393.922 180.788 396.607 Q177.732 399.293 172.014 399.293 Q166.297 399.293 163.218 396.607 Q160.163 393.922 160.163 388.899 Q160.163 385.589 162.061 383.297 Q163.959 381.006 167.339 380.219 M165.626 372.834 Q165.626 375.52 167.292 377.024 Q168.982 378.529 172.014 378.529 Q175.024 378.529 176.714 377.024 Q178.426 375.52 178.426 372.834 Q178.426 370.149 176.714 368.645 Q175.024 367.14 172.014 367.14 Q168.982 367.14 167.292 368.645 Q165.626 370.149 165.626 372.834 Z" fill="#000000" fill-rule="nonzero" fill-opacity="1" /><path clip-path="url(#clip310)" d="M16.4842 1039.7 L16.4842 1030.12 L48.8219 1017.99 L16.4842 1005.8 L16.4842 996.221 L64.0042 996.221 L64.0042 1002.49 L22.277 1002.49 L54.8694 1014.75 L54.8694 1021.21 L22.277 1033.46 L64.0042 1033.46 L64.0042 1039.7 L16.4842 1039.7 Z" fill="#000000" fill-rule="nonzero" fill-opacity="1" /><path clip-path="url(#clip310)" d="M32.4621 969.899 Q32.4621 974.61 36.1542 977.347 Q39.8145 980.084 46.212 980.084 Q52.6095 980.084 56.3017 977.379 Q59.9619 974.641 59.9619 969.899 Q59.9619 965.22 56.2698 962.483 Q52.5777 959.746 46.212 959.746 Q39.8781 959.746 36.186 962.483 Q32.4621 965.22 32.4621 969.899 M27.4968 969.899 Q27.4968 962.26 32.4621 957.9 Q37.4273 953.539 46.212 953.539 Q54.9649 953.539 59.9619 957.9 Q64.9272 962.26 64.9272 969.899 Q64.9272 977.57 59.9619 981.93 Q54.9649 986.259 46.212 986.259 Q37.4273 986.259 32.4621 981.93 Q27.4968 977.57 27.4968 969.899 Z" fill="#000000" fill-rule="nonzero" fill-opacity="1" /><path clip-path="url(#clip310)" d="M33.7671 920.374 L14.479 920.374 L14.479 914.517 L64.0042 914.517 L64.0042 920.374 L58.657 920.374 Q61.8398 922.22 63.3994 925.053 Q64.9272 927.854 64.9272 931.8 Q64.9272 938.261 59.771 942.335 Q54.6147 946.378 46.212 946.378 Q37.8093 946.378 32.6531 942.335 Q27.4968 938.261 27.4968 931.8 Q27.4968 927.854 29.0564 925.053 Q30.5842 922.22 33.7671 920.374 M46.212 940.33 Q52.6732 940.33 56.3653 937.689 Q60.0256 935.015 60.0256 930.368 Q60.0256 925.721 56.3653 923.047 Q52.6732 920.374 46.212 920.374 Q39.7508 920.374 36.0905 923.047 Q32.3984 925.721 32.3984 930.368 Q32.3984 935.015 36.0905 937.689 Q39.7508 940.33 46.212 940.33 Z" fill="#000000" fill-rule="nonzero" fill-opacity="1" /><path clip-path="url(#clip310)" d="M44.7161 871.963 L47.5806 871.963 L47.5806 898.89 Q53.6281 898.508 56.8109 895.261 Q59.9619 891.983 59.9619 886.158 Q59.9619 882.784 59.1344 879.633 Q58.3069 876.45 56.6518 873.331 L62.1899 873.331 Q63.5267 876.482 64.227 879.792 Q64.9272 883.103 64.9272 886.508 Q64.9272 895.038 59.9619 900.035 Q54.9967 905.001 46.5303 905.001 Q37.7774 905.001 32.6531 900.29 Q27.4968 895.548 27.4968 887.527 Q27.4968 880.334 32.1438 876.164 Q36.7589 871.963 44.7161 871.963 M42.9973 877.819 Q38.1912 877.883 35.3266 880.524 Q32.4621 883.134 32.4621 887.463 Q32.4621 892.365 35.2312 895.325 Q38.0002 898.253 43.0292 898.699 L42.9973 877.819 Z" fill="#000000" fill-rule="nonzero" fill-opacity="1" /><path clip-path="url(#clip310)" d="M14.479 862.35 L14.479 856.494 L64.0042 856.494 L64.0042 862.35 L14.479 862.35 Z" fill="#000000" fill-rule="nonzero" fill-opacity="1" /><path clip-path="url(#clip310)" d="M16.4842 823.265 L16.4842 816.836 L58.5933 816.836 L58.5933 793.696 L64.0042 793.696 L64.0042 823.265 L16.4842 823.265 Z" fill="#000000" fill-rule="nonzero" fill-opacity="1" /><path clip-path="url(#clip310)" d="M28.3562 787.203 L28.3562 781.347 L64.0042 781.347 L64.0042 787.203 L28.3562 787.203 M14.479 787.203 L14.479 781.347 L21.895 781.347 L21.895 787.203 L14.479 787.203 Z" fill="#000000" fill-rule="nonzero" fill-opacity="1" /><path clip-path="url(#clip310)" d="M14.479 769.316 L14.479 763.427 L43.7294 763.427 L28.3562 745.953 L28.3562 738.474 L45.0344 757.38 L64.0042 737.678 L64.0042 745.317 L46.5939 763.427 L64.0042 763.427 L64.0042 769.316 L14.479 769.316 Z" fill="#000000" fill-rule="nonzero" fill-opacity="1" /><path clip-path="url(#clip310)" d="M44.7161 703.176 L47.5806 703.176 L47.5806 730.103 Q53.6281 729.721 56.8109 726.474 Q59.9619 723.196 59.9619 717.371 Q59.9619 713.998 59.1344 710.847 Q58.3069 707.664 56.6518 704.545 L62.1899 704.545 Q63.5267 707.696 64.227 711.006 Q64.9272 714.316 64.9272 717.722 Q64.9272 726.252 59.9619 731.249 Q54.9967 736.214 46.5303 736.214 Q37.7774 736.214 32.6531 731.503 Q27.4968 726.761 27.4968 718.74 Q27.4968 711.547 32.1438 707.377 Q36.7589 703.176 44.7161 703.176 M42.9973 709.032 Q38.1912 709.096 35.3266 711.738 Q32.4621 714.348 32.4621 718.676 Q32.4621 723.578 35.2312 726.538 Q38.0002 729.466 43.0292 729.912 L42.9973 709.032 Z" fill="#000000" fill-rule="nonzero" fill-opacity="1" /><path clip-path="url(#clip310)" d="M14.479 693.564 L14.479 687.707 L64.0042 687.707 L64.0042 693.564 L14.479 693.564 Z" fill="#000000" fill-rule="nonzero" fill-opacity="1" /><path clip-path="url(#clip310)" d="M28.3562 675.453 L28.3562 669.597 L64.0042 669.597 L64.0042 675.453 L28.3562 675.453 M14.479 675.453 L14.479 669.597 L21.895 669.597 L21.895 675.453 L14.479 675.453 Z" fill="#000000" fill-rule="nonzero" fill-opacity="1" /><path clip-path="url(#clip310)" d="M42.4881 627.71 L64.0042 627.71 L64.0042 633.567 L42.679 633.567 Q37.6183 633.567 35.1038 635.54 Q32.5894 637.514 32.5894 641.46 Q32.5894 646.203 35.6131 648.94 Q38.6368 651.677 43.8567 651.677 L64.0042 651.677 L64.0042 657.566 L14.479 657.566 L14.479 651.677 L33.8944 651.677 Q30.6797 649.577 29.0883 646.744 Q27.4968 643.879 27.4968 640.155 Q27.4968 634.012 31.3163 630.861 Q35.1038 627.71 42.4881 627.71 Z" fill="#000000" fill-rule="nonzero" fill-opacity="1" /><path clip-path="url(#clip310)" d="M32.4621 602.216 Q32.4621 606.926 36.1542 609.664 Q39.8145 612.401 46.212 612.401 Q52.6095 612.401 56.3017 609.695 Q59.9619 606.958 59.9619 602.216 Q59.9619 597.537 56.2698 594.8 Q52.5777 592.062 46.212 592.062 Q39.8781 592.062 36.186 594.8 Q32.4621 597.537 32.4621 602.216 M27.4968 602.216 Q27.4968 594.577 32.4621 590.216 Q37.4273 585.856 46.212 585.856 Q54.9649 585.856 59.9619 590.216 Q64.9272 594.577 64.9272 602.216 Q64.9272 609.886 59.9619 614.247 Q54.9649 618.576 46.212 618.576 Q37.4273 618.576 32.4621 614.247 Q27.4968 609.886 27.4968 602.216 Z" fill="#000000" fill-rule="nonzero" fill-opacity="1" /><path clip-path="url(#clip310)" d="M32.4621 562.335 Q32.4621 567.045 36.1542 569.783 Q39.8145 572.52 46.212 572.52 Q52.6095 572.52 56.3017 569.814 Q59.9619 567.077 59.9619 562.335 Q59.9619 557.656 56.2698 554.919 Q52.5777 552.181 46.212 552.181 Q39.8781 552.181 36.186 554.919 Q32.4621 557.656 32.4621 562.335 M27.4968 562.335 Q27.4968 554.696 32.4621 550.335 Q37.4273 545.975 46.212 545.975 Q54.9649 545.975 59.9619 550.335 Q64.9272 554.696 64.9272 562.335 Q64.9272 570.005 59.9619 574.366 Q54.9649 578.695 46.212 578.695 Q37.4273 578.695 32.4621 574.366 Q27.4968 570.005 27.4968 562.335 Z" fill="#000000" fill-rule="nonzero" fill-opacity="1" /><path clip-path="url(#clip310)" d="M33.7671 512.809 L14.479 512.809 L14.479 506.953 L64.0042 506.953 L64.0042 512.809 L58.657 512.809 Q61.8398 514.655 63.3994 517.488 Q64.9272 520.289 64.9272 524.236 Q64.9272 530.697 59.771 534.771 Q54.6147 538.813 46.212 538.813 Q37.8093 538.813 32.6531 534.771 Q27.4968 530.697 27.4968 524.236 Q27.4968 520.289 29.0564 517.488 Q30.5842 514.655 33.7671 512.809 M46.212 532.766 Q52.6732 532.766 56.3653 530.124 Q60.0256 527.451 60.0256 522.804 Q60.0256 518.157 56.3653 515.483 Q52.6732 512.809 46.212 512.809 Q39.7508 512.809 36.0905 515.483 Q32.3984 518.157 32.3984 522.804 Q32.3984 527.451 36.0905 530.124 Q39.7508 532.766 46.212 532.766 Z" fill="#000000" fill-rule="nonzero" fill-opacity="1" /><path clip-path="url(#clip310)" d="M815.312 12.096 L827.506 12.096 L842.94 53.2532 L858.455 12.096 L870.648 12.096 L870.648 72.576 L862.668 72.576 L862.668 19.4686 L847.072 60.9499 L838.848 60.9499 L823.252 19.4686 L823.252 72.576 L815.312 72.576 L815.312 12.096 Z" fill="#000000" fill-rule="nonzero" fill-opacity="1" /><path clip-path="url(#clip310)" d="M886.892 12.096 L899.085 12.096 L914.519 53.2532 L930.034 12.096 L942.227 12.096 L942.227 72.576 L934.247 72.576 L934.247 19.4686 L918.651 60.9499 L910.428 60.9499 L894.832 19.4686 L894.832 72.576 L886.892 72.576 L886.892 12.096 Z" fill="#000000" fill-rule="nonzero" fill-opacity="1" /><path clip-path="url(#clip310)" d="M958.471 12.096 L993.228 12.096 L993.228 18.9825 L966.654 18.9825 L966.654 36.8065 L990.636 36.8065 L990.636 43.6931 L966.654 43.6931 L966.654 72.576 L958.471 72.576 L958.471 12.096 Z" fill="#000000" fill-rule="nonzero" fill-opacity="1" /><path clip-path="url(#clip310)" d="M1032.56 12.096 L1044.76 12.096 L1060.19 53.2532 L1075.7 12.096 L1087.9 12.096 L1087.9 72.576 L1079.92 72.576 L1079.92 19.4686 L1064.32 60.9499 L1056.1 60.9499 L1040.5 19.4686 L1040.5 72.576 L1032.56 72.576 L1032.56 12.096 Z" fill="#000000" fill-rule="nonzero" fill-opacity="1" /><path clip-path="url(#clip310)" d="M1121.4 32.4315 Q1115.4 32.4315 1111.92 37.1306 Q1108.44 41.7891 1108.44 49.9314 Q1108.44 58.0738 1111.88 62.7728 Q1115.36 67.4314 1121.4 67.4314 Q1127.35 67.4314 1130.84 62.7323 Q1134.32 58.0333 1134.32 49.9314 Q1134.32 41.8701 1130.84 37.1711 Q1127.35 32.4315 1121.4 32.4315 M1121.4 26.1121 Q1131.12 26.1121 1136.67 32.4315 Q1142.22 38.7509 1142.22 49.9314 Q1142.22 61.0714 1136.67 67.4314 Q1131.12 73.7508 1121.4 73.7508 Q1111.64 73.7508 1106.09 67.4314 Q1100.58 61.0714 1100.58 49.9314 Q1100.58 38.7509 1106.09 32.4315 Q1111.64 26.1121 1121.4 26.1121 Z" fill="#000000" fill-rule="nonzero" fill-opacity="1" /><path clip-path="url(#clip310)" d="M1184.43 34.0924 L1184.43 9.54393 L1191.88 9.54393 L1191.88 72.576 L1184.43 72.576 L1184.43 65.7705 Q1182.08 69.8214 1178.48 71.8063 Q1174.91 73.7508 1169.89 73.7508 Q1161.66 73.7508 1156.48 67.1883 Q1151.33 60.6258 1151.33 49.9314 Q1151.33 39.2371 1156.48 32.6746 Q1161.66 26.1121 1169.89 26.1121 Q1174.91 26.1121 1178.48 28.0971 Q1182.08 30.0415 1184.43 34.0924 M1159.03 49.9314 Q1159.03 58.1548 1162.39 62.8538 Q1165.8 67.5124 1171.71 67.5124 Q1177.63 67.5124 1181.03 62.8538 Q1184.43 58.1548 1184.43 49.9314 Q1184.43 41.7081 1181.03 37.0496 Q1177.63 32.3505 1171.71 32.3505 Q1165.8 32.3505 1162.39 37.0496 Q1159.03 41.7081 1159.03 49.9314 Z" fill="#000000" fill-rule="nonzero" fill-opacity="1" /><path clip-path="url(#clip310)" d="M1246.05 48.0275 L1246.05 51.6733 L1211.77 51.6733 Q1212.26 59.3701 1216.39 63.421 Q1220.56 67.4314 1227.98 67.4314 Q1232.27 67.4314 1236.28 66.3781 Q1240.33 65.3249 1244.3 63.2184 L1244.3 70.267 Q1240.29 71.9684 1236.08 72.8596 Q1231.87 73.7508 1227.53 73.7508 Q1216.68 73.7508 1210.32 67.4314 Q1204 61.1119 1204 50.3365 Q1204 39.1965 1209.99 32.6746 Q1216.03 26.1121 1226.24 26.1121 Q1235.39 26.1121 1240.7 32.0264 Q1246.05 37.9003 1246.05 48.0275 M1238.59 45.84 Q1238.51 39.7232 1235.15 36.0774 Q1231.83 32.4315 1226.32 32.4315 Q1220.08 32.4315 1216.31 35.9558 Q1212.58 39.4801 1212.02 45.8805 L1238.59 45.84 Z" fill="#000000" fill-rule="nonzero" fill-opacity="1" /><path clip-path="url(#clip310)" d="M1258.28 9.54393 L1265.73 9.54393 L1265.73 72.576 L1258.28 72.576 L1258.28 9.54393 Z" fill="#000000" fill-rule="nonzero" fill-opacity="1" /><path clip-path="url(#clip310)" d="M1308.02 12.096 L1316.21 12.096 L1316.21 65.6895 L1345.66 65.6895 L1345.66 72.576 L1308.02 72.576 L1308.02 12.096 Z" fill="#000000" fill-rule="nonzero" fill-opacity="1" /><path clip-path="url(#clip310)" d="M1353.92 27.2059 L1361.37 27.2059 L1361.37 72.576 L1353.92 72.576 L1353.92 27.2059 M1353.92 9.54393 L1361.37 9.54393 L1361.37 18.9825 L1353.92 18.9825 L1353.92 9.54393 Z" fill="#000000" fill-rule="nonzero" fill-opacity="1" /><path clip-path="url(#clip310)" d="M1376.69 9.54393 L1384.18 9.54393 L1384.18 46.7717 L1406.42 27.2059 L1415.94 27.2059 L1391.88 48.4326 L1416.95 72.576 L1407.23 72.576 L1384.18 50.4176 L1384.18 72.576 L1376.69 72.576 L1376.69 9.54393 Z" fill="#000000" fill-rule="nonzero" fill-opacity="1" /><path clip-path="url(#clip310)" d="M1460.86 48.0275 L1460.86 51.6733 L1426.59 51.6733 Q1427.08 59.3701 1431.21 63.421 Q1435.38 67.4314 1442.8 67.4314 Q1447.09 67.4314 1451.1 66.3781 Q1455.15 65.3249 1459.12 63.2184 L1459.12 70.267 Q1455.11 71.9684 1450.9 72.8596 Q1446.69 73.7508 1442.35 73.7508 Q1431.5 73.7508 1425.14 67.4314 Q1418.82 61.1119 1418.82 50.3365 Q1418.82 39.1965 1424.81 32.6746 Q1430.85 26.1121 1441.06 26.1121 Q1450.21 26.1121 1455.52 32.0264 Q1460.86 37.9003 1460.86 48.0275 M1453.41 45.84 Q1453.33 39.7232 1449.97 36.0774 Q1446.65 32.4315 1441.14 32.4315 Q1434.9 32.4315 1431.13 35.9558 Q1427.4 39.4801 1426.84 45.8805 L1453.41 45.84 Z" fill="#000000" fill-rule="nonzero" fill-opacity="1" /><path clip-path="url(#clip310)" d="M1473.1 9.54393 L1480.55 9.54393 L1480.55 72.576 L1473.1 72.576 L1473.1 9.54393 Z" fill="#000000" fill-rule="nonzero" fill-opacity="1" /><path clip-path="url(#clip310)" d="M1496.15 27.2059 L1503.6 27.2059 L1503.6 72.576 L1496.15 72.576 L1496.15 27.2059 M1496.15 9.54393 L1503.6 9.54393 L1503.6 18.9825 L1496.15 18.9825 L1496.15 9.54393 Z" fill="#000000" fill-rule="nonzero" fill-opacity="1" /><path clip-path="url(#clip310)" d="M1556.91 45.1919 L1556.91 72.576 L1549.46 72.576 L1549.46 45.4349 Q1549.46 38.994 1546.95 35.7938 Q1544.43 32.5936 1539.41 32.5936 Q1533.38 32.5936 1529.89 36.4419 Q1526.41 40.2903 1526.41 46.9338 L1526.41 72.576 L1518.91 72.576 L1518.91 9.54393 L1526.41 9.54393 L1526.41 34.2544 Q1529.08 30.163 1532.69 28.1376 Q1536.33 26.1121 1541.07 26.1121 Q1548.89 26.1121 1552.9 30.9732 Q1556.91 35.7938 1556.91 45.1919 Z" fill="#000000" fill-rule="nonzero" fill-opacity="1" /><path clip-path="url(#clip310)" d="M1589.36 32.4315 Q1583.36 32.4315 1579.88 37.1306 Q1576.4 41.7891 1576.4 49.9314 Q1576.4 58.0738 1579.84 62.7728 Q1583.32 67.4314 1589.36 67.4314 Q1595.31 67.4314 1598.8 62.7323 Q1602.28 58.0333 1602.28 49.9314 Q1602.28 41.8701 1598.8 37.1711 Q1595.31 32.4315 1589.36 32.4315 M1589.36 26.1121 Q1599.08 26.1121 1604.63 32.4315 Q1610.18 38.7509 1610.18 49.9314 Q1610.18 61.0714 1604.63 67.4314 Q1599.08 73.7508 1589.36 73.7508 Q1579.6 73.7508 1574.05 67.4314 Q1568.54 61.0714 1568.54 49.9314 Q1568.54 38.7509 1574.05 32.4315 Q1579.6 26.1121 1589.36 26.1121 Z" fill="#000000" fill-rule="nonzero" fill-opacity="1" /><path clip-path="url(#clip310)" d="M1640.12 32.4315 Q1634.12 32.4315 1630.64 37.1306 Q1627.15 41.7891 1627.15 49.9314 Q1627.15 58.0738 1630.6 62.7728 Q1634.08 67.4314 1640.12 67.4314 Q1646.07 67.4314 1649.56 62.7323 Q1653.04 58.0333 1653.04 49.9314 Q1653.04 41.8701 1649.56 37.1711 Q1646.07 32.4315 1640.12 32.4315 M1640.12 26.1121 Q1649.84 26.1121 1655.39 32.4315 Q1660.94 38.7509 1660.94 49.9314 Q1660.94 61.0714 1655.39 67.4314 Q1649.84 73.7508 1640.12 73.7508 Q1630.35 73.7508 1624.8 67.4314 Q1619.3 61.0714 1619.3 49.9314 Q1619.3 38.7509 1624.8 32.4315 Q1630.35 26.1121 1640.12 26.1121 Z" fill="#000000" fill-rule="nonzero" fill-opacity="1" /><path clip-path="url(#clip310)" d="M1703.15 34.0924 L1703.15 9.54393 L1710.6 9.54393 L1710.6 72.576 L1703.15 72.576 L1703.15 65.7705 Q1700.8 69.8214 1697.19 71.8063 Q1693.63 73.7508 1688.61 73.7508 Q1680.38 73.7508 1675.2 67.1883 Q1670.05 60.6258 1670.05 49.9314 Q1670.05 39.2371 1675.2 32.6746 Q1680.38 26.1121 1688.61 26.1121 Q1693.63 26.1121 1697.19 28.0971 Q1700.8 30.0415 1703.15 34.0924 M1677.75 49.9314 Q1677.75 58.1548 1681.11 62.8538 Q1684.51 67.5124 1690.43 67.5124 Q1696.34 67.5124 1699.75 62.8538 Q1703.15 58.1548 1703.15 49.9314 Q1703.15 41.7081 1699.75 37.0496 Q1696.34 32.3505 1690.43 32.3505 Q1684.51 32.3505 1681.11 37.0496 Q1677.75 41.7081 1677.75 49.9314 Z" fill="#000000" fill-rule="nonzero" fill-opacity="1" /><path clip-path="url(#clip310)" d="M1754.88 28.5427 L1754.88 35.5912 Q1751.72 33.9709 1748.32 33.1607 Q1744.91 32.3505 1741.27 32.3505 Q1735.72 32.3505 1732.92 34.0519 Q1730.17 35.7533 1730.17 39.156 Q1730.17 41.7486 1732.15 43.2475 Q1734.14 44.7058 1740.13 46.0426 L1742.69 46.6097 Q1750.63 48.3111 1753.95 51.4303 Q1757.31 54.509 1757.31 60.0587 Q1757.31 66.3781 1752.29 70.0644 Q1747.3 73.7508 1738.55 73.7508 Q1734.91 73.7508 1730.94 73.0216 Q1727.01 72.3329 1722.63 70.9151 L1722.63 63.2184 Q1726.77 65.3654 1730.78 66.4591 Q1734.79 67.5124 1738.72 67.5124 Q1743.98 67.5124 1746.82 65.73 Q1749.65 63.9071 1749.65 60.6258 Q1749.65 57.5877 1747.59 55.9673 Q1745.56 54.3469 1738.64 52.8481 L1736.04 52.2405 Q1729.12 50.7821 1726.04 47.7845 Q1722.96 44.7463 1722.96 39.4801 Q1722.96 33.0797 1727.5 29.5959 Q1732.03 26.1121 1740.38 26.1121 Q1744.51 26.1121 1748.15 26.7198 Q1751.8 27.3274 1754.88 28.5427 Z" fill="#000000" fill-rule="nonzero" fill-opacity="1" /><polyline clip-path="url(#clip312)" style="stroke:#009af9; stroke-linecap:round; stroke-linejoin:round; stroke-width:4; stroke-opacity:1; fill:none" points="280.231,773.326 290.292,776.784 300.353,812.276 310.413,782.87 320.474,555.334 330.535,500.997 340.596,770.108 350.657,332.703 360.717,718.432 370.778,648.434 380.839,565.282 390.9,536.622 400.961,517.269 411.021,550.794 421.082,558.712 431.143,552.854 441.204,563.777 451.265,591.73 461.325,611.248 471.386,535.563 481.447,551.56 491.508,591.197 501.569,520.201 511.629,513.243 521.69,525.189 531.751,493.484 541.812,439.156 551.873,421.508 561.933,304.436 571.994,400.261 582.055,391.443 592.116,405.854 602.177,387.78 612.237,355.165 622.298,430.877 632.359,440.037 642.42,463.773 652.481,407.816 662.541,407.147 672.602,419.355 682.663,402.201 692.724,379.724 702.785,371.089 712.845,327.476 722.906,326.125 732.967,269.8 743.028,279.088 753.089,229.886 763.149,253.2 773.21,269.34 783.271,223.122 793.332,227.111 803.393,244.332 813.453,237.352 823.514,264.56 833.575,232.729 843.636,256.864 853.697,262.528 863.757,234.367 873.818,235.019 883.879,233.513 893.94,247.977 904.001,234.93 914.061,236.432 924.122,234.433 934.183,215.991 944.244,210.689 954.305,201.928 964.365,186.768 974.426,185.371 984.487,188.855 994.548,198.13 1004.61,215.925 1014.67,184.736 1024.73,168.547 1034.79,184.719 1044.85,165.387 1054.91,165.642 1064.97,160.256 1075.03,168.374 1085.1,166.145 1095.16,175.664 1105.22,171.345 1115.28,171.779 1125.34,180.144 1135.4,195.266 1145.46,197.489 1155.52,215.295 1165.58,174.663 1175.64,191.084 1185.7,169.873 1195.76,189.658 1205.82,219.499 1215.89,248.775 1225.95,285.305 1236.01,252.74 1246.07,302.094 1256.13,364.05 1266.19,333.017 1276.25,312.63 1286.31,320.022 1296.37,308.757 1306.43,363.207 1316.49,386.228 1326.55,330.614 1336.62,464.113 1346.68,360.302 1356.74,280.072 1366.8,303.884 1376.86,300.894 1386.92,280.822 1396.98,293.852 1407.04,280.334 1417.1,276.091 1427.16,508.558 1437.22,585.199 1447.28,608.091 1457.34,611.73 1467.41,604.375 1477.47,580.664 1487.53,579.57 1497.59,623.277 1507.65,643.449 1517.71,645.377 1527.77,601.539 1537.83,555.433 1547.89,554.802 1557.95,535.706 1568.01,518.292 1578.07,485.919 1588.14,445.573 1598.2,456.713 1608.26,461.849 1618.32,471.104 1628.38,523.459 1638.44,510.003 1648.5,413.892 1658.56,394.765 1668.62,431.763 1678.68,390.145 1688.74,420.919 1698.8,392.112 1708.86,508.793 1718.93,479.285 1728.99,487.722 1739.05,456.221 1749.11,400.481 1759.17,410.661 1769.23,485.001 1779.29,378.332 1789.35,461.456 1799.41,501.008 1809.47,516.77 1819.53,505.503 1829.59,339.687 1839.66,283.871 1849.72,414.648 1859.78,309.423 1869.84,333.13 1879.9,206.763 1889.96,207.927 1900.02,253.323 1910.08,397.929 1920.14,353.388 1930.2,392.273 1940.26,378.993 1950.32,411.608 1960.38,477.765 1970.45,500.078 1980.51,351.333 1990.57,290.642 2000.63,312.004 2010.69,298.916 2020.75,258.609 2030.81,289.007 2040.87,257.695 2050.93,253.663 2060.99,270.207 2071.05,290.267 2081.11,287.4 2091.18,277.528 2101.24,276.845 2111.3,265.691 2121.36,285.534 2131.42,282.684 2141.48,283.642 2151.54,296.199 2161.6,290.335 2171.66,278.502 2181.72,251.928 2191.78,286.197 2201.84,292.775 2211.9,329.047 2221.97,328.919 2232.03,304.971 2242.09,307.755 2252.15,294.371 2262.21,298.249 2272.27,320.062 2282.33,323.583 2292.39,285.294 "/>
<polyline clip-path="url(#clip312)" style="stroke:#e26f46; stroke-linecap:round; stroke-linejoin:round; stroke-width:4; stroke-opacity:1; fill:none" points="280.231,773.326 290.292,769.868 300.353,734.376 310.413,763.782 320.474,991.318 330.535,1045.65 340.596,776.544 350.657,1213.95 360.717,828.22 370.778,898.218 380.839,981.37 390.9,1010.03 400.961,1029.38 411.021,995.858 421.082,987.94 431.143,993.798 441.204,982.875 451.265,954.922 461.325,935.404 471.386,1011.09 481.447,995.092 491.508,955.455 501.569,1026.45 511.629,1033.41 521.69,1021.46 531.751,1053.17 541.812,1107.5 551.873,1125.14 561.933,1242.22 571.994,1146.39 582.055,1155.21 592.116,1140.8 602.177,1158.87 612.237,1191.49 622.298,1115.77 632.359,1106.62 642.42,1082.88 652.481,1138.84 662.541,1139.51 672.602,1127.3 682.663,1144.45 692.724,1166.93 702.785,1175.56 712.845,1219.18 722.906,1220.53 732.967,1276.85 743.028,1267.56 753.089,1316.77 763.149,1293.45 773.21,1277.31 783.271,1323.53 793.332,1319.54 803.393,1302.32 813.453,1309.3 823.514,1282.09 833.575,1313.92 843.636,1289.79 853.697,1284.12 863.757,1312.28 873.818,1311.63 883.879,1313.14 893.94,1298.68 904.001,1311.72 914.061,1310.22 924.122,1312.22 934.183,1330.66 944.244,1335.96 954.305,1344.72 964.365,1359.88 974.426,1361.28 984.487,1357.8 994.548,1348.52 1004.61,1330.73 1014.67,1361.92 1024.73,1378.11 1034.79,1361.93 1044.85,1381.26 1054.91,1381.01 1064.97,1386.4 1075.03,1378.28 1085.1,1380.51 1095.16,1370.99 1105.22,1375.31 1115.28,1374.87 1125.34,1366.51 1135.4,1351.39 1145.46,1349.16 1155.52,1331.36 1165.58,1371.99 1175.64,1355.57 1185.7,1376.78 1195.76,1356.99 1205.82,1327.15 1215.89,1297.88 1225.95,1261.35 1236.01,1293.91 1246.07,1244.56 1256.13,1182.6 1266.19,1213.64 1276.25,1234.02 1286.31,1226.63 1296.37,1237.9 1306.43,1183.44 1316.49,1160.42 1326.55,1216.04 1336.62,1082.54 1346.68,1186.35 1356.74,1266.58 1366.8,1242.77 1376.86,1245.76 1386.92,1265.83 1396.98,1252.8 1407.04,1266.32 1417.1,1270.56 1427.16,1038.09 1437.22,961.453 1447.28,938.561 1457.34,934.922 1467.41,942.277 1477.47,965.988 1487.53,967.082 1497.59,923.375 1507.65,903.203 1517.71,901.275 1527.77,945.113 1537.83,991.219 1547.89,991.85 1557.95,1010.95 1568.01,1028.36 1578.07,1060.73 1588.14,1101.08 1598.2,1089.94 1608.26,1084.8 1618.32,1075.55 1628.38,1023.19 1638.44,1036.65 1648.5,1132.76 1658.56,1151.89 1668.62,1114.89 1678.68,1156.51 1688.74,1125.73 1698.8,1154.54 1708.86,1037.86 1718.93,1067.37 1728.99,1058.93 1739.05,1090.43 1749.11,1146.17 1759.17,1135.99 1769.23,1061.65 1779.29,1168.32 1789.35,1085.2 1799.41,1045.64 1809.47,1029.88 1819.53,1041.15 1829.59,1206.97 1839.66,1262.78 1849.72,1132 1859.78,1237.23 1869.84,1213.52 1879.9,1339.89 1889.96,1338.73 1900.02,1293.33 1910.08,1148.72 1920.14,1193.26 1930.2,1154.38 1940.26,1167.66 1950.32,1135.04 1960.38,1068.89 1970.45,1046.57 1980.51,1195.32 1990.57,1256.01 2000.63,1234.65 2010.69,1247.74 2020.75,1288.04 2030.81,1257.64 2040.87,1288.96 2050.93,1292.99 2060.99,1276.44 2071.05,1256.39 2081.11,1259.25 2091.18,1269.12 2101.24,1269.81 2111.3,1280.96 2121.36,1261.12 2131.42,1263.97 2141.48,1263.01 2151.54,1250.45 2161.6,1256.32 2171.66,1268.15 2181.72,1294.72 2191.78,1260.46 2201.84,1253.88 2211.9,1217.6 2221.97,1217.73 2232.03,1241.68 2242.09,1238.9 2252.15,1252.28 2262.21,1248.4 2272.27,1226.59 2282.33,1223.07 2292.39,1261.36 "/>
<path clip-path="url(#clip310)" d="M290.963 322.316 L752.352 322.316 L752.352 166.796 L290.963 166.796  Z" fill="#ffffff" fill-rule="evenodd" fill-opacity="1"/>
<polyline clip-path="url(#clip310)" style="stroke:#000000; stroke-linecap:round; stroke-linejoin:round; stroke-width:4; stroke-opacity:1; fill:none" points="290.963,322.316 752.352,322.316 752.352,166.796 290.963,166.796 290.963,322.316 "/>
<polyline clip-path="url(#clip310)" style="stroke:#009af9; stroke-linecap:round; stroke-linejoin:round; stroke-width:4; stroke-opacity:1; fill:none" points="314.661,218.636 456.854,218.636 "/>
<path clip-path="url(#clip310)" d="M480.553 201.356 L500.414 201.356 L500.414 205.291 L485.229 205.291 L485.229 215.476 L498.932 215.476 L498.932 219.411 L485.229 219.411 L485.229 235.916 L480.553 235.916 L480.553 201.356 Z" fill="#000000" fill-rule="nonzero" fill-opacity="1" /><path clip-path="url(#clip310)" d="M504.187 209.99 L508.446 209.99 L508.446 235.916 L504.187 235.916 L504.187 209.99 M504.187 199.897 L508.446 199.897 L508.446 205.291 L504.187 205.291 L504.187 199.897 Z" fill="#000000" fill-rule="nonzero" fill-opacity="1" /><path clip-path="url(#clip310)" d="M538.909 209.99 L529.534 222.606 L539.395 235.916 L534.372 235.916 L526.826 225.731 L519.279 235.916 L514.256 235.916 L524.326 222.351 L515.113 209.99 L520.136 209.99 L527.011 219.226 L533.886 209.99 L538.909 209.99 Z" fill="#000000" fill-rule="nonzero" fill-opacity="1" /><path clip-path="url(#clip310)" d="M566.131 221.888 L566.131 223.971 L546.548 223.971 Q546.826 228.369 549.187 230.684 Q551.571 232.976 555.807 232.976 Q558.261 232.976 560.552 232.374 Q562.867 231.772 565.136 230.569 L565.136 234.596 Q562.844 235.568 560.437 236.078 Q558.029 236.587 555.552 236.587 Q549.349 236.587 545.714 232.976 Q542.103 229.365 542.103 223.207 Q542.103 216.842 545.529 213.115 Q548.978 209.365 554.812 209.365 Q560.043 209.365 563.075 212.745 Q566.131 216.101 566.131 221.888 M561.872 220.638 Q561.825 217.143 559.904 215.059 Q558.006 212.976 554.858 212.976 Q551.293 212.976 549.14 214.99 Q547.011 217.004 546.687 220.661 L561.872 220.638 Z" fill="#000000" fill-rule="nonzero" fill-opacity="1" /><path clip-path="url(#clip310)" d="M590.182 213.925 L590.182 199.897 L594.441 199.897 L594.441 235.916 L590.182 235.916 L590.182 232.027 Q588.839 234.342 586.779 235.476 Q584.742 236.587 581.872 236.587 Q577.173 236.587 574.21 232.837 Q571.27 229.087 571.27 222.976 Q571.27 216.865 574.21 213.115 Q577.173 209.365 581.872 209.365 Q584.742 209.365 586.779 210.499 Q588.839 211.61 590.182 213.925 M575.668 222.976 Q575.668 227.675 577.589 230.36 Q579.534 233.022 582.913 233.022 Q586.293 233.022 588.237 230.36 Q590.182 227.675 590.182 222.976 Q590.182 218.277 588.237 215.615 Q586.293 212.93 582.913 212.93 Q579.534 212.93 577.589 215.615 Q575.668 218.277 575.668 222.976 Z" fill="#000000" fill-rule="nonzero" fill-opacity="1" /><path clip-path="url(#clip310)" d="M615.39 201.356 L620.112 201.356 L627.381 230.569 L634.626 201.356 L639.881 201.356 L647.149 230.569 L654.394 201.356 L659.14 201.356 L650.459 235.916 L644.58 235.916 L637.288 205.916 L629.927 235.916 L624.047 235.916 L615.39 201.356 Z" fill="#000000" fill-rule="nonzero" fill-opacity="1" /><path clip-path="url(#clip310)" d="M664.117 209.99 L668.376 209.99 L668.376 235.916 L664.117 235.916 L664.117 209.99 M664.117 199.897 L668.376 199.897 L668.376 205.291 L664.117 205.291 L664.117 199.897 Z" fill="#000000" fill-rule="nonzero" fill-opacity="1" /><path clip-path="url(#clip310)" d="M698.839 220.268 L698.839 235.916 L694.579 235.916 L694.579 220.407 Q694.579 216.726 693.144 214.897 Q691.709 213.069 688.839 213.069 Q685.39 213.069 683.399 215.268 Q681.408 217.467 681.408 221.263 L681.408 235.916 L677.126 235.916 L677.126 209.99 L681.408 209.99 L681.408 214.018 Q682.936 211.68 684.996 210.522 Q687.079 209.365 689.788 209.365 Q694.255 209.365 696.547 212.143 Q698.839 214.897 698.839 220.268 Z" fill="#000000" fill-rule="nonzero" fill-opacity="1" /><path clip-path="url(#clip310)" d="M724.394 222.652 Q724.394 218.022 722.473 215.476 Q720.575 212.93 717.126 212.93 Q713.7 212.93 711.778 215.476 Q709.88 218.022 709.88 222.652 Q709.88 227.258 711.778 229.805 Q713.7 232.351 717.126 232.351 Q720.575 232.351 722.473 229.805 Q724.394 227.258 724.394 222.652 M728.653 232.698 Q728.653 239.318 725.714 242.536 Q722.774 245.777 716.709 245.777 Q714.464 245.777 712.473 245.43 Q710.482 245.105 708.607 244.411 L708.607 240.268 Q710.482 241.286 712.311 241.772 Q714.139 242.258 716.038 242.258 Q720.227 242.258 722.311 240.059 Q724.394 237.883 724.394 233.462 L724.394 231.356 Q723.075 233.647 721.014 234.781 Q718.954 235.916 716.084 235.916 Q711.315 235.916 708.399 232.281 Q705.482 228.647 705.482 222.652 Q705.482 216.633 708.399 212.999 Q711.315 209.365 716.084 209.365 Q718.954 209.365 721.014 210.499 Q723.075 211.633 724.394 213.925 L724.394 209.99 L728.653 209.99 L728.653 232.698 Z" fill="#000000" fill-rule="nonzero" fill-opacity="1" /><polyline clip-path="url(#clip310)" style="stroke:#e26f46; stroke-linecap:round; stroke-linejoin:round; stroke-width:4; stroke-opacity:1; fill:none" points="314.661,270.476 456.854,270.476 "/>
<path clip-path="url(#clip310)" d="M480.553 253.196 L487.52 253.196 L496.34 276.714 L505.205 253.196 L512.173 253.196 L512.173 287.756 L507.613 287.756 L507.613 257.409 L498.701 281.112 L494.002 281.112 L485.09 257.409 L485.09 287.756 L480.553 287.756 L480.553 253.196 Z" fill="#000000" fill-rule="nonzero" fill-opacity="1" /><path clip-path="url(#clip310)" d="M520.83 277.524 L520.83 261.83 L525.09 261.83 L525.09 277.362 Q525.09 281.043 526.525 282.895 Q527.96 284.723 530.83 284.723 Q534.279 284.723 536.27 282.524 Q538.284 280.325 538.284 276.529 L538.284 261.83 L542.543 261.83 L542.543 287.756 L538.284 287.756 L538.284 283.774 Q536.733 286.135 534.673 287.293 Q532.636 288.427 529.928 288.427 Q525.46 288.427 523.145 285.649 Q520.83 282.871 520.83 277.524 M531.548 261.205 L531.548 261.205 Z" fill="#000000" fill-rule="nonzero" fill-opacity="1" /><path clip-path="url(#clip310)" d="M551.316 251.737 L555.576 251.737 L555.576 287.756 L551.316 287.756 L551.316 251.737 Z" fill="#000000" fill-rule="nonzero" fill-opacity="1" /><path clip-path="url(#clip310)" d="M568.7 254.469 L568.7 261.83 L577.474 261.83 L577.474 265.14 L568.7 265.14 L568.7 279.214 Q568.7 282.385 569.557 283.288 Q570.437 284.191 573.099 284.191 L577.474 284.191 L577.474 287.756 L573.099 287.756 Q568.168 287.756 566.293 285.927 Q564.418 284.075 564.418 279.214 L564.418 265.14 L561.293 265.14 L561.293 261.83 L564.418 261.83 L564.418 254.469 L568.7 254.469 Z" fill="#000000" fill-rule="nonzero" fill-opacity="1" /><path clip-path="url(#clip310)" d="M583.075 261.83 L587.335 261.83 L587.335 287.756 L583.075 287.756 L583.075 261.83 M583.075 251.737 L587.335 251.737 L587.335 257.131 L583.075 257.131 L583.075 251.737 Z" fill="#000000" fill-rule="nonzero" fill-opacity="1" /><path clip-path="url(#clip310)" d="M611.27 265.811 Q610.552 265.395 609.696 265.21 Q608.862 265.001 607.844 265.001 Q604.233 265.001 602.288 267.362 Q600.367 269.7 600.367 274.098 L600.367 287.756 L596.085 287.756 L596.085 261.83 L600.367 261.83 L600.367 265.858 Q601.71 263.497 603.862 262.362 Q606.015 261.205 609.094 261.205 Q609.534 261.205 610.066 261.274 Q610.598 261.321 611.247 261.436 L611.27 265.811 Z" fill="#000000" fill-rule="nonzero" fill-opacity="1" /><path clip-path="url(#clip310)" d="M624.742 264.816 Q621.316 264.816 619.325 267.501 Q617.334 270.163 617.334 274.816 Q617.334 279.469 619.302 282.154 Q621.293 284.816 624.742 284.816 Q628.145 284.816 630.135 282.131 Q632.126 279.446 632.126 274.816 Q632.126 270.21 630.135 267.524 Q628.145 264.816 624.742 264.816 M624.742 261.205 Q630.297 261.205 633.469 264.816 Q636.64 268.427 636.64 274.816 Q636.64 281.182 633.469 284.816 Q630.297 288.427 624.742 288.427 Q619.163 288.427 615.992 284.816 Q612.844 281.182 612.844 274.816 Q612.844 268.427 615.992 264.816 Q619.163 261.205 624.742 261.205 Z" fill="#000000" fill-rule="nonzero" fill-opacity="1" /><path clip-path="url(#clip310)" d="M647.913 254.469 L647.913 261.83 L656.686 261.83 L656.686 265.14 L647.913 265.14 L647.913 279.214 Q647.913 282.385 648.769 283.288 Q649.649 284.191 652.311 284.191 L656.686 284.191 L656.686 287.756 L652.311 287.756 Q647.381 287.756 645.506 285.927 Q643.631 284.075 643.631 279.214 L643.631 265.14 L640.506 265.14 L640.506 261.83 L643.631 261.83 L643.631 254.469 L647.913 254.469 Z" fill="#000000" fill-rule="nonzero" fill-opacity="1" /><path clip-path="url(#clip310)" d="M672.334 264.816 Q668.908 264.816 666.918 267.501 Q664.927 270.163 664.927 274.816 Q664.927 279.469 666.894 282.154 Q668.885 284.816 672.334 284.816 Q675.737 284.816 677.728 282.131 Q679.718 279.446 679.718 274.816 Q679.718 270.21 677.728 267.524 Q675.737 264.816 672.334 264.816 M672.334 261.205 Q677.89 261.205 681.061 264.816 Q684.232 268.427 684.232 274.816 Q684.232 281.182 681.061 284.816 Q677.89 288.427 672.334 288.427 Q666.755 288.427 663.584 284.816 Q660.436 281.182 660.436 274.816 Q660.436 268.427 663.584 264.816 Q666.755 261.205 672.334 261.205 Z" fill="#000000" fill-rule="nonzero" fill-opacity="1" /><path clip-path="url(#clip310)" d="M706.315 265.811 Q705.598 265.395 704.741 265.21 Q703.908 265.001 702.89 265.001 Q699.278 265.001 697.334 267.362 Q695.413 269.7 695.413 274.098 L695.413 287.756 L691.13 287.756 L691.13 261.83 L695.413 261.83 L695.413 265.858 Q696.755 263.497 698.908 262.362 Q701.061 261.205 704.14 261.205 Q704.579 261.205 705.112 261.274 Q705.644 261.321 706.292 261.436 L706.315 265.811 Z" fill="#000000" fill-rule="nonzero" fill-opacity="1" /></svg>
