<?xml version="1.0" encoding="utf-8"?>
<svg xmlns="http://www.w3.org/2000/svg" xmlns:xlink="http://www.w3.org/1999/xlink" width="600" height="400" viewBox="0 0 2400 1600">
<defs>
  <clipPath id="clip070">
    <rect x="0" y="0" width="2400" height="1600"/>
  </clipPath>
</defs>
<path clip-path="url(#clip070)" d="M0 1600 L2400 1600 L2400 0 L0 0  Z" fill="#ffffff" fill-rule="evenodd" fill-opacity="1"/>
<defs>
  <clipPath id="clip071">
    <rect x="480" y="0" width="1681" height="1600"/>
  </clipPath>
</defs>
<path clip-path="url(#clip070)" d="M249.542 1423.18 L2352.76 1423.18 L2352.76 123.472 L249.542 123.472  Z" fill="#ffffff" fill-rule="evenodd" fill-opacity="1"/>
<defs>
  <clipPath id="clip072">
    <rect x="249" y="123" width="2104" height="1301"/>
  </clipPath>
</defs>
<polyline clip-path="url(#clip072)" style="stroke:#000000; stroke-linecap:round; stroke-linejoin:round; stroke-width:2; stroke-opacity:0.1; fill:none" points="256.852,1423.18 256.852,123.472 "/>
<polyline clip-path="url(#clip072)" style="stroke:#000000; stroke-linecap:round; stroke-linejoin:round; stroke-width:2; stroke-opacity:0.1; fill:none" points="779.001,1423.18 779.001,123.472 "/>
<polyline clip-path="url(#clip072)" style="stroke:#000000; stroke-linecap:round; stroke-linejoin:round; stroke-width:2; stroke-opacity:0.1; fill:none" points="1301.15,1423.18 1301.15,123.472 "/>
<polyline clip-path="url(#clip072)" style="stroke:#000000; stroke-linecap:round; stroke-linejoin:round; stroke-width:2; stroke-opacity:0.1; fill:none" points="1823.3,1423.18 1823.3,123.472 "/>
<polyline clip-path="url(#clip072)" style="stroke:#000000; stroke-linecap:round; stroke-linejoin:round; stroke-width:2; stroke-opacity:0.1; fill:none" points="2345.45,1423.18 2345.45,123.472 "/>
<polyline clip-path="url(#clip070)" style="stroke:#000000; stroke-linecap:round; stroke-linejoin:round; stroke-width:4; stroke-opacity:1; fill:none" points="249.542,1423.18 2352.76,1423.18 "/>
<polyline clip-path="url(#clip070)" style="stroke:#000000; stroke-linecap:round; stroke-linejoin:round; stroke-width:4; stroke-opacity:1; fill:none" points="256.852,1423.18 256.852,1404.28 "/>
<polyline clip-path="url(#clip070)" style="stroke:#000000; stroke-linecap:round; stroke-linejoin:round; stroke-width:4; stroke-opacity:1; fill:none" points="779.001,1423.18 779.001,1404.28 "/>
<polyline clip-path="url(#clip070)" style="stroke:#000000; stroke-linecap:round; stroke-linejoin:round; stroke-width:4; stroke-opacity:1; fill:none" points="1301.15,1423.18 1301.15,1404.28 "/>
<polyline clip-path="url(#clip070)" style="stroke:#000000; stroke-linecap:round; stroke-linejoin:round; stroke-width:4; stroke-opacity:1; fill:none" points="1823.3,1423.18 1823.3,1404.28 "/>
<polyline clip-path="url(#clip070)" style="stroke:#000000; stroke-linecap:round; stroke-linejoin:round; stroke-width:4; stroke-opacity:1; fill:none" points="2345.45,1423.18 2345.45,1404.28 "/>
<path clip-path="url(#clip070)" d="M256.852 1454.1 Q253.241 1454.1 251.412 1457.66 Q249.607 1461.2 249.607 1468.33 Q249.607 1475.44 251.412 1479.01 Q253.241 1482.55 256.852 1482.55 Q260.486 1482.55 262.292 1479.01 Q264.121 1475.44 264.121 1468.33 Q264.121 1461.2 262.292 1457.66 Q260.486 1454.1 256.852 1454.1 M256.852 1450.39 Q262.662 1450.39 265.718 1455 Q268.796 1459.58 268.796 1468.33 Q268.796 1477.06 265.718 1481.67 Q262.662 1486.25 256.852 1486.25 Q251.042 1486.25 247.963 1481.67 Q244.908 1477.06 244.908 1468.33 Q244.908 1459.58 247.963 1455 Q251.042 1450.39 256.852 1450.39 Z" fill="#000000" fill-rule="nonzero" fill-opacity="1" /><path clip-path="url(#clip070)" d="M753.688 1481.64 L761.327 1481.64 L761.327 1455.28 L753.017 1456.95 L753.017 1452.69 L761.281 1451.02 L765.957 1451.02 L765.957 1481.64 L773.595 1481.64 L773.595 1485.58 L753.688 1485.58 L753.688 1481.64 Z" fill="#000000" fill-rule="nonzero" fill-opacity="1" /><path clip-path="url(#clip070)" d="M793.04 1454.1 Q789.429 1454.1 787.6 1457.66 Q785.794 1461.2 785.794 1468.33 Q785.794 1475.44 787.6 1479.01 Q789.429 1482.55 793.04 1482.55 Q796.674 1482.55 798.48 1479.01 Q800.308 1475.44 800.308 1468.33 Q800.308 1461.2 798.48 1457.66 Q796.674 1454.1 793.04 1454.1 M793.04 1450.39 Q798.85 1450.39 801.906 1455 Q804.984 1459.58 804.984 1468.33 Q804.984 1477.06 801.906 1481.67 Q798.85 1486.25 793.04 1486.25 Q787.23 1486.25 784.151 1481.67 Q781.095 1477.06 781.095 1468.33 Q781.095 1459.58 784.151 1455 Q787.23 1450.39 793.04 1450.39 Z" fill="#000000" fill-rule="nonzero" fill-opacity="1" /><path clip-path="url(#clip070)" d="M1279.92 1481.64 L1296.24 1481.64 L1296.24 1485.58 L1274.3 1485.58 L1274.3 1481.64 Q1276.96 1478.89 1281.54 1474.26 Q1286.15 1469.61 1287.33 1468.27 Q1289.57 1465.74 1290.45 1464.01 Q1291.36 1462.25 1291.36 1460.56 Q1291.36 1457.8 1289.41 1456.07 Q1287.49 1454.33 1284.39 1454.33 Q1282.19 1454.33 1279.74 1455.09 Q1277.31 1455.86 1274.53 1457.41 L1274.53 1452.69 Q1277.35 1451.55 1279.81 1450.97 Q1282.26 1450.39 1284.3 1450.39 Q1289.67 1450.39 1292.86 1453.08 Q1296.06 1455.77 1296.06 1460.26 Q1296.06 1462.39 1295.25 1464.31 Q1294.46 1466.2 1292.35 1468.8 Q1291.77 1469.47 1288.67 1472.69 Q1285.57 1475.88 1279.92 1481.64 Z" fill="#000000" fill-rule="nonzero" fill-opacity="1" /><path clip-path="url(#clip070)" d="M1316.06 1454.1 Q1312.45 1454.1 1310.62 1457.66 Q1308.81 1461.2 1308.81 1468.33 Q1308.81 1475.44 1310.62 1479.01 Q1312.45 1482.55 1316.06 1482.55 Q1319.69 1482.55 1321.5 1479.01 Q1323.32 1475.44 1323.32 1468.33 Q1323.32 1461.2 1321.5 1457.66 Q1319.69 1454.1 1316.06 1454.1 M1316.06 1450.39 Q1321.87 1450.39 1324.92 1455 Q1328 1459.58 1328 1468.33 Q1328 1477.06 1324.92 1481.67 Q1321.87 1486.25 1316.06 1486.25 Q1310.25 1486.25 1307.17 1481.67 Q1304.11 1477.06 1304.11 1468.33 Q1304.11 1459.58 1307.17 1455 Q1310.25 1450.39 1316.06 1450.39 Z" fill="#000000" fill-rule="nonzero" fill-opacity="1" /><path clip-path="url(#clip070)" d="M1812.14 1466.95 Q1815.5 1467.66 1817.37 1469.93 Q1819.27 1472.2 1819.27 1475.53 Q1819.27 1480.65 1815.75 1483.45 Q1812.23 1486.25 1805.75 1486.25 Q1803.58 1486.25 1801.26 1485.81 Q1798.97 1485.39 1796.52 1484.54 L1796.52 1480.02 Q1798.46 1481.16 1800.77 1481.74 Q1803.09 1482.32 1805.61 1482.32 Q1810.01 1482.32 1812.3 1480.58 Q1814.62 1478.84 1814.62 1475.53 Q1814.62 1472.48 1812.46 1470.77 Q1810.33 1469.03 1806.52 1469.03 L1802.49 1469.03 L1802.49 1465.19 L1806.7 1465.19 Q1810.15 1465.19 1811.98 1463.82 Q1813.81 1462.43 1813.81 1459.84 Q1813.81 1457.18 1811.91 1455.77 Q1810.03 1454.33 1806.52 1454.33 Q1804.59 1454.33 1802.39 1454.75 Q1800.2 1455.16 1797.56 1456.04 L1797.56 1451.88 Q1800.22 1451.14 1802.53 1450.77 Q1804.87 1450.39 1806.93 1450.39 Q1812.26 1450.39 1815.36 1452.83 Q1818.46 1455.23 1818.46 1459.35 Q1818.46 1462.22 1816.82 1464.21 Q1815.17 1466.18 1812.14 1466.95 Z" fill="#000000" fill-rule="nonzero" fill-opacity="1" /><path clip-path="url(#clip070)" d="M1838.14 1454.1 Q1834.52 1454.1 1832.7 1457.66 Q1830.89 1461.2 1830.89 1468.33 Q1830.89 1475.44 1832.7 1479.01 Q1834.52 1482.55 1838.14 1482.55 Q1841.77 1482.55 1843.58 1479.01 Q1845.4 1475.44 1845.4 1468.33 Q1845.4 1461.2 1843.58 1457.66 Q1841.77 1454.1 1838.14 1454.1 M1838.14 1450.39 Q1843.95 1450.39 1847 1455 Q1850.08 1459.58 1850.08 1468.33 Q1850.08 1477.06 1847 1481.67 Q1843.95 1486.25 1838.14 1486.25 Q1832.33 1486.25 1829.25 1481.67 Q1826.19 1477.06 1826.19 1468.33 Q1826.19 1459.58 1829.25 1455 Q1832.33 1450.39 1838.14 1450.39 Z" fill="#000000" fill-rule="nonzero" fill-opacity="1" /><path clip-path="url(#clip070)" d="M2333.62 1455.09 L2321.81 1473.54 L2333.62 1473.54 L2333.62 1455.09 M2332.39 1451.02 L2338.27 1451.02 L2338.27 1473.54 L2343.2 1473.54 L2343.2 1477.43 L2338.27 1477.43 L2338.27 1485.58 L2333.62 1485.58 L2333.62 1477.43 L2318.02 1477.43 L2318.02 1472.92 L2332.39 1451.02 Z" fill="#000000" fill-rule="nonzero" fill-opacity="1" /><path clip-path="url(#clip070)" d="M2360.93 1454.1 Q2357.32 1454.1 2355.49 1457.66 Q2353.69 1461.2 2353.69 1468.33 Q2353.69 1475.44 2355.49 1479.01 Q2357.32 1482.55 2360.93 1482.55 Q2364.57 1482.55 2366.37 1479.01 Q2368.2 1475.44 2368.2 1468.33 Q2368.2 1461.2 2366.37 1457.66 Q2364.57 1454.1 2360.93 1454.1 M2360.93 1450.39 Q2366.74 1450.39 2369.8 1455 Q2372.88 1459.58 2372.88 1468.33 Q2372.88 1477.06 2369.8 1481.67 Q2366.74 1486.25 2360.93 1486.25 Q2355.12 1486.25 2352.04 1481.67 Q2348.99 1477.06 2348.99 1468.33 Q2348.99 1459.58 2352.04 1455 Q2355.12 1450.39 2360.93 1450.39 Z" fill="#000000" fill-rule="nonzero" fill-opacity="1" /><path clip-path="url(#clip070)" d="M1285.33 1518.52 L1291.22 1518.52 L1291.22 1547.77 L1308.69 1532.4 L1316.17 1532.4 L1297.27 1549.07 L1316.97 1568.04 L1309.33 1568.04 L1291.22 1550.63 L1291.22 1568.04 L1285.33 1568.04 L1285.33 1518.52 Z" fill="#000000" fill-rule="nonzero" fill-opacity="1" /><polyline clip-path="url(#clip072)" style="stroke:#000000; stroke-linecap:round; stroke-linejoin:round; stroke-width:2; stroke-opacity:0.1; fill:none" points="249.542,1386.4 2352.76,1386.4 "/>
<polyline clip-path="url(#clip072)" style="stroke:#000000; stroke-linecap:round; stroke-linejoin:round; stroke-width:2; stroke-opacity:0.1; fill:none" points="249.542,1079.86 2352.76,1079.86 "/>
<polyline clip-path="url(#clip072)" style="stroke:#000000; stroke-linecap:round; stroke-linejoin:round; stroke-width:2; stroke-opacity:0.1; fill:none" points="249.542,773.326 2352.76,773.326 "/>
<polyline clip-path="url(#clip072)" style="stroke:#000000; stroke-linecap:round; stroke-linejoin:round; stroke-width:2; stroke-opacity:0.1; fill:none" points="249.542,466.791 2352.76,466.791 "/>
<polyline clip-path="url(#clip072)" style="stroke:#000000; stroke-linecap:round; stroke-linejoin:round; stroke-width:2; stroke-opacity:0.1; fill:none" points="249.542,160.256 2352.76,160.256 "/>
<polyline clip-path="url(#clip070)" style="stroke:#000000; stroke-linecap:round; stroke-linejoin:round; stroke-width:4; stroke-opacity:1; fill:none" points="249.542,1423.18 249.542,123.472 "/>
<polyline clip-path="url(#clip070)" style="stroke:#000000; stroke-linecap:round; stroke-linejoin:round; stroke-width:4; stroke-opacity:1; fill:none" points="249.542,1386.4 268.44,1386.4 "/>
<polyline clip-path="url(#clip070)" style="stroke:#000000; stroke-linecap:round; stroke-linejoin:round; stroke-width:4; stroke-opacity:1; fill:none" points="249.542,1079.86 268.44,1079.86 "/>
<polyline clip-path="url(#clip070)" style="stroke:#000000; stroke-linecap:round; stroke-linejoin:round; stroke-width:4; stroke-opacity:1; fill:none" points="249.542,773.326 268.44,773.326 "/>
<polyline clip-path="url(#clip070)" style="stroke:#000000; stroke-linecap:round; stroke-linejoin:round; stroke-width:4; stroke-opacity:1; fill:none" points="249.542,466.791 268.44,466.791 "/>
<polyline clip-path="url(#clip070)" style="stroke:#000000; stroke-linecap:round; stroke-linejoin:round; stroke-width:4; stroke-opacity:1; fill:none" points="249.542,160.256 268.44,160.256 "/>
<path clip-path="url(#clip070)" d="M126.205 1372.19 Q122.593 1372.19 120.765 1375.76 Q118.959 1379.3 118.959 1386.43 Q118.959 1393.54 120.765 1397.1 Q122.593 1400.64 126.205 1400.64 Q129.839 1400.64 131.644 1397.1 Q133.473 1393.54 133.473 1386.43 Q133.473 1379.3 131.644 1375.76 Q129.839 1372.19 126.205 1372.19 M126.205 1368.49 Q132.015 1368.49 135.07 1373.1 Q138.149 1377.68 138.149 1386.43 Q138.149 1395.16 135.07 1399.76 Q132.015 1404.35 126.205 1404.35 Q120.394 1404.35 117.316 1399.76 Q114.26 1395.16 114.26 1386.43 Q114.26 1377.68 117.316 1373.1 Q120.394 1368.49 126.205 1368.49 Z" fill="#000000" fill-rule="nonzero" fill-opacity="1" /><path clip-path="url(#clip070)" d="M146.366 1397.8 L151.251 1397.8 L151.251 1403.68 L146.366 1403.68 L146.366 1397.8 Z" fill="#000000" fill-rule="nonzero" fill-opacity="1" /><path clip-path="url(#clip070)" d="M171.436 1372.19 Q167.825 1372.19 165.996 1375.76 Q164.19 1379.3 164.19 1386.43 Q164.19 1393.54 165.996 1397.1 Q167.825 1400.64 171.436 1400.64 Q175.07 1400.64 176.876 1397.1 Q178.704 1393.54 178.704 1386.43 Q178.704 1379.3 176.876 1375.76 Q175.07 1372.19 171.436 1372.19 M171.436 1368.49 Q177.246 1368.49 180.301 1373.1 Q183.38 1377.68 183.38 1386.43 Q183.38 1395.16 180.301 1399.76 Q177.246 1404.35 171.436 1404.35 Q165.626 1404.35 162.547 1399.76 Q159.491 1395.16 159.491 1386.43 Q159.491 1377.68 162.547 1373.1 Q165.626 1368.49 171.436 1368.49 Z" fill="#000000" fill-rule="nonzero" fill-opacity="1" /><path clip-path="url(#clip070)" d="M201.598 1372.19 Q197.987 1372.19 196.158 1375.76 Q194.352 1379.3 194.352 1386.43 Q194.352 1393.54 196.158 1397.1 Q197.987 1400.64 201.598 1400.64 Q205.232 1400.64 207.037 1397.1 Q208.866 1393.54 208.866 1386.43 Q208.866 1379.3 207.037 1375.76 Q205.232 1372.19 201.598 1372.19 M201.598 1368.49 Q207.408 1368.49 210.463 1373.1 Q213.542 1377.68 213.542 1386.43 Q213.542 1395.16 210.463 1399.76 Q207.408 1404.35 201.598 1404.35 Q195.787 1404.35 192.709 1399.76 Q189.653 1395.16 189.653 1386.43 Q189.653 1377.68 192.709 1373.1 Q195.787 1368.49 201.598 1368.49 Z" fill="#000000" fill-rule="nonzero" fill-opacity="1" /><path clip-path="url(#clip070)" d="M127.2 1065.66 Q123.589 1065.66 121.76 1069.22 Q119.955 1072.77 119.955 1079.9 Q119.955 1087 121.76 1090.57 Q123.589 1094.11 127.2 1094.11 Q130.834 1094.11 132.64 1090.57 Q134.468 1087 134.468 1079.9 Q134.468 1072.77 132.64 1069.22 Q130.834 1065.66 127.2 1065.66 M127.2 1061.96 Q133.01 1061.96 136.066 1066.56 Q139.144 1071.15 139.144 1079.9 Q139.144 1088.62 136.066 1093.23 Q133.01 1097.81 127.2 1097.81 Q121.39 1097.81 118.311 1093.23 Q115.256 1088.62 115.256 1079.9 Q115.256 1071.15 118.311 1066.56 Q121.39 1061.96 127.2 1061.96 Z" fill="#000000" fill-rule="nonzero" fill-opacity="1" /><path clip-path="url(#clip070)" d="M147.362 1091.26 L152.246 1091.26 L152.246 1097.14 L147.362 1097.14 L147.362 1091.26 Z" fill="#000000" fill-rule="nonzero" fill-opacity="1" /><path clip-path="url(#clip070)" d="M166.459 1093.21 L182.778 1093.21 L182.778 1097.14 L160.834 1097.14 L160.834 1093.21 Q163.496 1090.45 168.079 1085.82 Q172.686 1081.17 173.866 1079.83 Q176.112 1077.3 176.991 1075.57 Q177.894 1073.81 177.894 1072.12 Q177.894 1069.36 175.95 1067.63 Q174.028 1065.89 170.927 1065.89 Q168.727 1065.89 166.274 1066.65 Q163.843 1067.42 161.065 1068.97 L161.065 1064.25 Q163.89 1063.11 166.343 1062.53 Q168.797 1061.96 170.834 1061.96 Q176.204 1061.96 179.399 1064.64 Q182.593 1067.33 182.593 1071.82 Q182.593 1073.95 181.783 1075.87 Q180.996 1077.77 178.889 1080.36 Q178.311 1081.03 175.209 1084.25 Q172.107 1087.44 166.459 1093.21 Z" fill="#000000" fill-rule="nonzero" fill-opacity="1" /><path clip-path="url(#clip070)" d="M192.639 1062.58 L210.996 1062.58 L210.996 1066.52 L196.922 1066.52 L196.922 1074.99 Q197.94 1074.64 198.959 1074.48 Q199.977 1074.29 200.996 1074.29 Q206.783 1074.29 210.162 1077.47 Q213.542 1080.64 213.542 1086.05 Q213.542 1091.63 210.07 1094.73 Q206.598 1097.81 200.278 1097.81 Q198.102 1097.81 195.834 1097.44 Q193.588 1097.07 191.181 1096.33 L191.181 1091.63 Q193.264 1092.77 195.487 1093.32 Q197.709 1093.88 200.186 1093.88 Q204.19 1093.88 206.528 1091.77 Q208.866 1089.66 208.866 1086.05 Q208.866 1082.44 206.528 1080.34 Q204.19 1078.23 200.186 1078.23 Q198.311 1078.23 196.436 1078.65 Q194.584 1079.06 192.639 1079.94 L192.639 1062.58 Z" fill="#000000" fill-rule="nonzero" fill-opacity="1" /><path clip-path="url(#clip070)" d="M126.205 759.125 Q122.593 759.125 120.765 762.689 Q118.959 766.231 118.959 773.361 Q118.959 780.467 120.765 784.032 Q122.593 787.574 126.205 787.574 Q129.839 787.574 131.644 784.032 Q133.473 780.467 133.473 773.361 Q133.473 766.231 131.644 762.689 Q129.839 759.125 126.205 759.125 M126.205 755.421 Q132.015 755.421 135.07 760.027 Q138.149 764.611 138.149 773.361 Q138.149 782.088 135.07 786.694 Q132.015 791.277 126.205 791.277 Q120.394 791.277 117.316 786.694 Q114.26 782.088 114.26 773.361 Q114.26 764.611 117.316 760.027 Q120.394 755.421 126.205 755.421 Z" fill="#000000" fill-rule="nonzero" fill-opacity="1" /><path clip-path="url(#clip070)" d="M146.366 784.726 L151.251 784.726 L151.251 790.606 L146.366 790.606 L146.366 784.726 Z" fill="#000000" fill-rule="nonzero" fill-opacity="1" /><path clip-path="url(#clip070)" d="M161.482 756.046 L179.839 756.046 L179.839 759.981 L165.765 759.981 L165.765 768.453 Q166.783 768.106 167.802 767.944 Q168.82 767.759 169.839 767.759 Q175.626 767.759 179.005 770.93 Q182.385 774.101 182.385 779.518 Q182.385 785.097 178.913 788.199 Q175.44 791.277 169.121 791.277 Q166.945 791.277 164.677 790.907 Q162.431 790.537 160.024 789.796 L160.024 785.097 Q162.107 786.231 164.329 786.787 Q166.552 787.342 169.028 787.342 Q173.033 787.342 175.371 785.236 Q177.709 783.129 177.709 779.518 Q177.709 775.907 175.371 773.801 Q173.033 771.694 169.028 771.694 Q167.153 771.694 165.278 772.111 Q163.427 772.527 161.482 773.407 L161.482 756.046 Z" fill="#000000" fill-rule="nonzero" fill-opacity="1" /><path clip-path="url(#clip070)" d="M201.598 759.125 Q197.987 759.125 196.158 762.689 Q194.352 766.231 194.352 773.361 Q194.352 780.467 196.158 784.032 Q197.987 787.574 201.598 787.574 Q205.232 787.574 207.037 784.032 Q208.866 780.467 208.866 773.361 Q208.866 766.231 207.037 762.689 Q205.232 759.125 201.598 759.125 M201.598 755.421 Q207.408 755.421 210.463 760.027 Q213.542 764.611 213.542 773.361 Q213.542 782.088 210.463 786.694 Q207.408 791.277 201.598 791.277 Q195.787 791.277 192.709 786.694 Q189.653 782.088 189.653 773.361 Q189.653 764.611 192.709 760.027 Q195.787 755.421 201.598 755.421 Z" fill="#000000" fill-rule="nonzero" fill-opacity="1" /><path clip-path="url(#clip070)" d="M127.2 452.59 Q123.589 452.59 121.76 456.155 Q119.955 459.696 119.955 466.826 Q119.955 473.932 121.76 477.497 Q123.589 481.039 127.2 481.039 Q130.834 481.039 132.64 477.497 Q134.468 473.932 134.468 466.826 Q134.468 459.696 132.64 456.155 Q130.834 452.59 127.2 452.59 M127.2 448.886 Q133.01 448.886 136.066 453.493 Q139.144 458.076 139.144 466.826 Q139.144 475.553 136.066 480.159 Q133.01 484.742 127.2 484.742 Q121.39 484.742 118.311 480.159 Q115.256 475.553 115.256 466.826 Q115.256 458.076 118.311 453.493 Q121.39 448.886 127.2 448.886 Z" fill="#000000" fill-rule="nonzero" fill-opacity="1" /><path clip-path="url(#clip070)" d="M147.362 478.192 L152.246 478.192 L152.246 484.071 L147.362 484.071 L147.362 478.192 Z" fill="#000000" fill-rule="nonzero" fill-opacity="1" /><path clip-path="url(#clip070)" d="M161.251 449.511 L183.473 449.511 L183.473 451.502 L170.927 484.071 L166.042 484.071 L177.848 453.446 L161.251 453.446 L161.251 449.511 Z" fill="#000000" fill-rule="nonzero" fill-opacity="1" /><path clip-path="url(#clip070)" d="M192.639 449.511 L210.996 449.511 L210.996 453.446 L196.922 453.446 L196.922 461.918 Q197.94 461.571 198.959 461.409 Q199.977 461.224 200.996 461.224 Q206.783 461.224 210.162 464.395 Q213.542 467.567 213.542 472.983 Q213.542 478.562 210.07 481.664 Q206.598 484.742 200.278 484.742 Q198.102 484.742 195.834 484.372 Q193.588 484.002 191.181 483.261 L191.181 478.562 Q193.264 479.696 195.487 480.252 Q197.709 480.807 200.186 480.807 Q204.19 480.807 206.528 478.701 Q208.866 476.594 208.866 472.983 Q208.866 469.372 206.528 467.266 Q204.19 465.159 200.186 465.159 Q198.311 465.159 196.436 465.576 Q194.584 465.993 192.639 466.872 L192.639 449.511 Z" fill="#000000" fill-rule="nonzero" fill-opacity="1" /><path clip-path="url(#clip070)" d="M117.015 173.601 L124.654 173.601 L124.654 147.236 L116.343 148.902 L116.343 144.643 L124.607 142.976 L129.283 142.976 L129.283 173.601 L136.922 173.601 L136.922 177.536 L117.015 177.536 L117.015 173.601 Z" fill="#000000" fill-rule="nonzero" fill-opacity="1" /><path clip-path="url(#clip070)" d="M146.366 171.657 L151.251 171.657 L151.251 177.536 L146.366 177.536 L146.366 171.657 Z" fill="#000000" fill-rule="nonzero" fill-opacity="1" /><path clip-path="url(#clip070)" d="M171.436 146.055 Q167.825 146.055 165.996 149.62 Q164.19 153.161 164.19 160.291 Q164.19 167.397 165.996 170.962 Q167.825 174.504 171.436 174.504 Q175.07 174.504 176.876 170.962 Q178.704 167.397 178.704 160.291 Q178.704 153.161 176.876 149.62 Q175.07 146.055 171.436 146.055 M171.436 142.351 Q177.246 142.351 180.301 146.958 Q183.38 151.541 183.38 160.291 Q183.38 169.018 180.301 173.624 Q177.246 178.208 171.436 178.208 Q165.626 178.208 162.547 173.624 Q159.491 169.018 159.491 160.291 Q159.491 151.541 162.547 146.958 Q165.626 142.351 171.436 142.351 Z" fill="#000000" fill-rule="nonzero" fill-opacity="1" /><path clip-path="url(#clip070)" d="M201.598 146.055 Q197.987 146.055 196.158 149.62 Q194.352 153.161 194.352 160.291 Q194.352 167.397 196.158 170.962 Q197.987 174.504 201.598 174.504 Q205.232 174.504 207.037 170.962 Q208.866 167.397 208.866 160.291 Q208.866 153.161 207.037 149.62 Q205.232 146.055 201.598 146.055 M201.598 142.351 Q207.408 142.351 210.463 146.958 Q213.542 151.541 213.542 160.291 Q213.542 169.018 210.463 173.624 Q207.408 178.208 201.598 178.208 Q195.787 178.208 192.709 173.624 Q189.653 169.018 189.653 160.291 Q189.653 151.541 192.709 146.958 Q195.787 142.351 201.598 142.351 Z" fill="#000000" fill-rule="nonzero" fill-opacity="1" /><path clip-path="url(#clip070)" d="M16.4842 1039.7 L16.4842 1030.12 L48.8219 1017.99 L16.4842 1005.8 L16.4842 996.221 L64.0042 996.221 L64.0042 1002.49 L22.277 1002.49 L54.8694 1014.75 L54.8694 1021.21 L22.277 1033.46 L64.0042 1033.46 L64.0042 1039.7 L16.4842 1039.7 Z" fill="#000000" fill-rule="nonzero" fill-opacity="1" /><path clip-path="url(#clip070)" d="M32.4621 969.899 Q32.4621 974.61 36.1542 977.347 Q39.8145 980.084 46.212 980.084 Q52.6095 980.084 56.3017 977.379 Q59.9619 974.641 59.9619 969.899 Q59.9619 965.22 56.2698 962.483 Q52.5777 959.746 46.212 959.746 Q39.8781 959.746 36.186 962.483 Q32.4621 965.22 32.4621 969.899 M27.4968 969.899 Q27.4968 962.26 32.4621 957.9 Q37.4273 953.539 46.212 953.539 Q54.9649 953.539 59.9619 957.9 Q64.9272 962.26 64.9272 969.899 Q64.9272 977.57 59.9619 981.93 Q54.9649 986.259 46.212 986.259 Q37.4273 986.259 32.4621 981.93 Q27.4968 977.57 27.4968 969.899 Z" fill="#000000" fill-rule="nonzero" fill-opacity="1" /><path clip-path="url(#clip070)" d="M33.7671 920.374 L14.479 920.374 L14.479 914.517 L64.0042 914.517 L64.0042 920.374 L58.657 920.374 Q61.8398 922.22 63.3994 925.053 Q64.9272 927.854 64.9272 931.8 Q64.9272 938.261 59.771 942.335 Q54.6147 946.378 46.212 946.378 Q37.8093 946.378 32.6531 942.335 Q27.4968 938.261 27.4968 931.8 Q27.4968 927.854 29.0564 925.053 Q30.5842 922.22 33.7671 920.374 M46.212 940.33 Q52.6732 940.33 56.3653 937.689 Q60.0256 935.015 60.0256 930.368 Q60.0256 925.721 56.3653 923.047 Q52.6732 920.374 46.212 920.374 Q39.7508 920.374 36.0905 923.047 Q32.3984 925.721 32.3984 930.368 Q32.3984 935.015 36.0905 937.689 Q39.7508 940.33 46.212 940.33 Z" fill="#000000" fill-rule="nonzero" fill-opacity="1" /><path clip-path="url(#clip070)" d="M44.7161 871.963 L47.5806 871.963 L47.5806 898.89 Q53.6281 898.508 56.8109 895.261 Q59.9619 891.983 59.9619 886.158 Q59.9619 882.784 59.1344 879.633 Q58.3069 876.45 56.6518 873.331 L62.1899 873.331 Q63.5267 876.482 64.227 879.792 Q64.9272 883.103 64.9272 886.508 Q64.9272 895.038 59.9619 900.035 Q54.9967 905.001 46.5303 905.001 Q37.7774 905.001 32.6531 900.29 Q27.4968 895.548 27.4968 887.527 Q27.4968 880.334 32.1438 876.164 Q36.7589 871.963 44.7161 871.963 M42.9973 877.819 Q38.1912 877.883 35.3266 880.524 Q32.4621 883.134 32.4621 887.463 Q32.4621 892.365 35.2312 895.325 Q38.0002 898.253 43.0292 898.699 L42.9973 877.819 Z" fill="#000000" fill-rule="nonzero" fill-opacity="1" /><path clip-path="url(#clip070)" d="M14.479 862.35 L14.479 856.494 L64.0042 856.494 L64.0042 862.35 L14.479 862.35 Z" fill="#000000" fill-rule="nonzero" fill-opacity="1" /><path clip-path="url(#clip070)" d="M16.4842 823.265 L16.4842 816.836 L58.5933 816.836 L58.5933 793.696 L64.0042 793.696 L64.0042 823.265 L16.4842 823.265 Z" fill="#000000" fill-rule="nonzero" fill-opacity="1" /><path clip-path="url(#clip070)" d="M28.3562 787.203 L28.3562 781.347 L64.0042 781.347 L64.0042 787.203 L28.3562 787.203 M14.479 787.203 L14.479 781.347 L21.895 781.347 L21.895 787.203 L14.479 787.203 Z" fill="#000000" fill-rule="nonzero" fill-opacity="1" /><path clip-path="url(#clip070)" d="M14.479 769.316 L14.479 763.427 L43.7294 763.427 L28.3562 745.953 L28.3562 738.474 L45.0344 757.38 L64.0042 737.678 L64.0042 745.317 L46.5939 763.427 L64.0042 763.427 L64.0042 769.316 L14.479 769.316 Z" fill="#000000" fill-rule="nonzero" fill-opacity="1" /><path clip-path="url(#clip070)" d="M44.7161 703.176 L47.5806 703.176 L47.5806 730.103 Q53.6281 729.721 56.8109 726.474 Q59.9619 723.196 59.9619 717.371 Q59.9619 713.998 59.1344 710.847 Q58.3069 707.664 56.6518 704.545 L62.1899 704.545 Q63.5267 707.696 64.227 711.006 Q64.9272 714.316 64.9272 717.722 Q64.9272 726.252 59.9619 731.249 Q54.9967 736.214 46.5303 736.214 Q37.7774 736.214 32.6531 731.503 Q27.4968 726.761 27.4968 718.74 Q27.4968 711.547 32.1438 707.377 Q36.7589 703.176 44.7161 703.176 M42.9973 709.032 Q38.1912 709.096 35.3266 711.738 Q32.4621 714.348 32.4621 718.676 Q32.4621 723.578 35.2312 726.538 Q38.0002 729.466 43.0292 729.912 L42.9973 709.032 Z" fill="#000000" fill-rule="nonzero" fill-opacity="1" /><path clip-path="url(#clip070)" d="M14.479 693.564 L14.479 687.707 L64.0042 687.707 L64.0042 693.564 L14.479 693.564 Z" fill="#000000" fill-rule="nonzero" fill-opacity="1" /><path clip-path="url(#clip070)" d="M28.3562 675.453 L28.3562 669.597 L64.0042 669.597 L64.0042 675.453 L28.3562 675.453 M14.479 675.453 L14.479 669.597 L21.895 669.597 L21.895 675.453 L14.479 675.453 Z" fill="#000000" fill-rule="nonzero" fill-opacity="1" /><path clip-path="url(#clip070)" d="M42.4881 627.71 L64.0042 627.71 L64.0042 633.567 L42.679 633.567 Q37.6183 633.567 35.1038 635.54 Q32.5894 637.514 32.5894 641.46 Q32.5894 646.203 35.6131 648.94 Q38.6368 651.677 43.8567 651.677 L64.0042 651.677 L64.0042 657.566 L14.479 657.566 L14.479 651.677 L33.8944 651.677 Q30.6797 649.577 29.0883 646.744 Q27.4968 643.879 27.4968 640.155 Q27.4968 634.012 31.3163 630.861 Q35.1038 627.71 42.4881 627.71 Z" fill="#000000" fill-rule="nonzero" fill-opacity="1" /><path clip-path="url(#clip070)" d="M32.4621 602.216 Q32.4621 606.926 36.1542 609.664 Q39.8145 612.401 46.212 612.401 Q52.6095 612.401 56.3017 609.695 Q59.9619 606.958 59.9619 602.216 Q59.9619 597.537 56.2698 594.8 Q52.5777 592.062 46.212 592.062 Q39.8781 592.062 36.186 594.8 Q32.4621 597.537 32.4621 602.216 M27.4968 602.216 Q27.4968 594.577 32.4621 590.216 Q37.4273 585.856 46.212 585.856 Q54.9649 585.856 59.9619 590.216 Q64.9272 594.577 64.9272 602.216 Q64.9272 609.886 59.9619 614.247 Q54.9649 618.576 46.212 618.576 Q37.4273 618.576 32.4621 614.247 Q27.4968 609.886 27.4968 602.216 Z" fill="#000000" fill-rule="nonzero" fill-opacity="1" /><path clip-path="url(#clip070)" d="M32.4621 562.335 Q32.4621 567.045 36.1542 569.783 Q39.8145 572.52 46.212 572.52 Q52.6095 572.52 56.3017 569.814 Q59.9619 567.077 59.9619 562.335 Q59.9619 557.656 56.2698 554.919 Q52.5777 552.181 46.212 552.181 Q39.8781 552.181 36.186 554.919 Q32.4621 557.656 32.4621 562.335 M27.4968 562.335 Q27.4968 554.696 32.4621 550.335 Q37.4273 545.975 46.212 545.975 Q54.9649 545.975 59.9619 550.335 Q64.9272 554.696 64.9272 562.335 Q64.9272 570.005 59.9619 574.366 Q54.9649 578.695 46.212 578.695 Q37.4273 578.695 32.4621 574.366 Q27.4968 570.005 27.4968 562.335 Z" fill="#000000" fill-rule="nonzero" fill-opacity="1" /><path clip-path="url(#clip070)" d="M33.7671 512.809 L14.479 512.809 L14.479 506.953 L64.0042 506.953 L64.0042 512.809 L58.657 512.809 Q61.8398 514.655 63.3994 517.488 Q64.9272 520.289 64.9272 524.236 Q64.9272 530.697 59.771 534.771 Q54.6147 538.813 46.212 538.813 Q37.8093 538.813 32.6531 534.771 Q27.4968 530.697 27.4968 524.236 Q27.4968 520.289 29.0564 517.488 Q30.5842 514.655 33.7671 512.809 M46.212 532.766 Q52.6732 532.766 56.3653 530.124 Q60.0256 527.451 60.0256 522.804 Q60.0256 518.157 56.3653 515.483 Q52.6732 512.809 46.212 512.809 Q39.7508 512.809 36.0905 515.483 Q32.3984 518.157 32.3984 522.804 Q32.3984 527.451 36.0905 530.124 Q39.7508 532.766 46.212 532.766 Z" fill="#000000" fill-rule="nonzero" fill-opacity="1" /><path clip-path="url(#clip070)" d="M830.15 12.096 L842.344 12.096 L857.778 53.2532 L873.292 12.096 L885.486 12.096 L885.486 72.576 L877.505 72.576 L877.505 19.4686 L861.909 60.9499 L853.686 60.9499 L838.09 19.4686 L838.09 72.576 L830.15 72.576 L830.15 12.096 Z" fill="#000000" fill-rule="nonzero" fill-opacity="1" /><path clip-path="url(#clip070)" d="M901.73 12.096 L913.923 12.096 L929.357 53.2532 L944.872 12.096 L957.065 12.096 L957.065 72.576 L949.085 72.576 L949.085 19.4686 L933.489 60.9499 L925.266 60.9499 L909.67 19.4686 L909.67 72.576 L901.73 72.576 L901.73 12.096 Z" fill="#000000" fill-rule="nonzero" fill-opacity="1" /><path clip-path="url(#clip070)" d="M973.309 12.096 L1008.07 12.096 L1008.07 18.9825 L981.492 18.9825 L981.492 36.8065 L1005.47 36.8065 L1005.47 43.6931 L981.492 43.6931 L981.492 72.576 L973.309 72.576 L973.309 12.096 Z" fill="#000000" fill-rule="nonzero" fill-opacity="1" /><path clip-path="url(#clip070)" d="M1047.4 12.096 L1059.59 12.096 L1075.03 53.2532 L1090.54 12.096 L1102.74 12.096 L1102.74 72.576 L1094.76 72.576 L1094.76 19.4686 L1079.16 60.9499 L1070.94 60.9499 L1055.34 19.4686 L1055.34 72.576 L1047.4 72.576 L1047.4 12.096 Z" fill="#000000" fill-rule="nonzero" fill-opacity="1" /><path clip-path="url(#clip070)" d="M1136.24 32.4315 Q1130.24 32.4315 1126.76 37.1306 Q1123.27 41.7891 1123.27 49.9314 Q1123.27 58.0738 1126.72 62.7728 Q1130.2 67.4314 1136.24 67.4314 Q1142.19 67.4314 1145.68 62.7323 Q1149.16 58.0333 1149.16 49.9314 Q1149.16 41.8701 1145.68 37.1711 Q1142.19 32.4315 1136.24 32.4315 M1136.24 26.1121 Q1145.96 26.1121 1151.51 32.4315 Q1157.06 38.7509 1157.06 49.9314 Q1157.06 61.0714 1151.51 67.4314 Q1145.96 73.7508 1136.24 73.7508 Q1126.47 73.7508 1120.92 67.4314 Q1115.42 61.0714 1115.42 49.9314 Q1115.42 38.7509 1120.92 32.4315 Q1126.47 26.1121 1136.24 26.1121 Z" fill="#000000" fill-rule="nonzero" fill-opacity="1" /><path clip-path="url(#clip070)" d="M1199.27 34.0924 L1199.27 9.54393 L1206.72 9.54393 L1206.72 72.576 L1199.27 72.576 L1199.27 65.7705 Q1196.92 69.8214 1193.31 71.8063 Q1189.75 73.7508 1184.73 73.7508 Q1176.5 73.7508 1171.32 67.1883 Q1166.17 60.6258 1166.17 49.9314 Q1166.17 39.2371 1171.32 32.6746 Q1176.5 26.1121 1184.73 26.1121 Q1189.75 26.1121 1193.31 28.0971 Q1196.92 30.0415 1199.27 34.0924 M1173.87 49.9314 Q1173.87 58.1548 1177.23 62.8538 Q1180.63 67.5124 1186.55 67.5124 Q1192.46 67.5124 1195.87 62.8538 Q1199.27 58.1548 1199.27 49.9314 Q1199.27 41.7081 1195.87 37.0496 Q1192.46 32.3505 1186.55 32.3505 Q1180.63 32.3505 1177.23 37.0496 Q1173.87 41.7081 1173.87 49.9314 Z" fill="#000000" fill-rule="nonzero" fill-opacity="1" /><path clip-path="url(#clip070)" d="M1260.88 48.0275 L1260.88 51.6733 L1226.61 51.6733 Q1227.1 59.3701 1231.23 63.421 Q1235.4 67.4314 1242.82 67.4314 Q1247.11 67.4314 1251.12 66.3781 Q1255.17 65.3249 1259.14 63.2184 L1259.14 70.267 Q1255.13 71.9684 1250.92 72.8596 Q1246.7 73.7508 1242.37 73.7508 Q1231.51 73.7508 1225.15 67.4314 Q1218.83 61.1119 1218.83 50.3365 Q1218.83 39.1965 1224.83 32.6746 Q1230.87 26.1121 1241.07 26.1121 Q1250.23 26.1121 1255.54 32.0264 Q1260.88 37.9003 1260.88 48.0275 M1253.43 45.84 Q1253.35 39.7232 1249.99 36.0774 Q1246.66 32.4315 1241.16 32.4315 Q1234.92 32.4315 1231.15 35.9558 Q1227.42 39.4801 1226.86 45.8805 L1253.43 45.84 Z" fill="#000000" fill-rule="nonzero" fill-opacity="1" /><path clip-path="url(#clip070)" d="M1273.12 9.54393 L1280.57 9.54393 L1280.57 72.576 L1273.12 72.576 L1273.12 9.54393 Z" fill="#000000" fill-rule="nonzero" fill-opacity="1" /><path clip-path="url(#clip070)" d="M1322.86 12.096 L1331.04 12.096 L1331.04 65.6895 L1360.49 65.6895 L1360.49 72.576 L1322.86 72.576 L1322.86 12.096 Z" fill="#000000" fill-rule="nonzero" fill-opacity="1" /><path clip-path="url(#clip070)" d="M1368.76 27.2059 L1376.21 27.2059 L1376.21 72.576 L1368.76 72.576 L1368.76 27.2059 M1368.76 9.54393 L1376.21 9.54393 L1376.21 18.9825 L1368.76 18.9825 L1368.76 9.54393 Z" fill="#000000" fill-rule="nonzero" fill-opacity="1" /><path clip-path="url(#clip070)" d="M1391.52 9.54393 L1399.02 9.54393 L1399.02 46.7717 L1421.26 27.2059 L1430.78 27.2059 L1406.72 48.4326 L1431.79 72.576 L1422.07 72.576 L1399.02 50.4176 L1399.02 72.576 L1391.52 72.576 L1391.52 9.54393 Z" fill="#000000" fill-rule="nonzero" fill-opacity="1" /><path clip-path="url(#clip070)" d="M1475.7 48.0275 L1475.7 51.6733 L1441.43 51.6733 Q1441.92 59.3701 1446.05 63.421 Q1450.22 67.4314 1457.64 67.4314 Q1461.93 67.4314 1465.94 66.3781 Q1469.99 65.3249 1473.96 63.2184 L1473.96 70.267 Q1469.95 71.9684 1465.74 72.8596 Q1461.52 73.7508 1457.19 73.7508 Q1446.33 73.7508 1439.97 67.4314 Q1433.65 61.1119 1433.65 50.3365 Q1433.65 39.1965 1439.65 32.6746 Q1445.69 26.1121 1455.89 26.1121 Q1465.05 26.1121 1470.36 32.0264 Q1475.7 37.9003 1475.7 48.0275 M1468.25 45.84 Q1468.17 39.7232 1464.81 36.0774 Q1461.48 32.4315 1455.97 32.4315 Q1449.74 32.4315 1445.97 35.9558 Q1442.24 39.4801 1441.67 45.8805 L1468.25 45.84 Z" fill="#000000" fill-rule="nonzero" fill-opacity="1" /><path clip-path="url(#clip070)" d="M1487.94 9.54393 L1495.39 9.54393 L1495.39 72.576 L1487.94 72.576 L1487.94 9.54393 Z" fill="#000000" fill-rule="nonzero" fill-opacity="1" /><path clip-path="url(#clip070)" d="M1510.99 27.2059 L1518.44 27.2059 L1518.44 72.576 L1510.99 72.576 L1510.99 27.2059 M1510.99 9.54393 L1518.44 9.54393 L1518.44 18.9825 L1510.99 18.9825 L1510.99 9.54393 Z" fill="#000000" fill-rule="nonzero" fill-opacity="1" /><path clip-path="url(#clip070)" d="M1571.75 45.1919 L1571.75 72.576 L1564.3 72.576 L1564.3 45.4349 Q1564.3 38.994 1561.78 35.7938 Q1559.27 32.5936 1554.25 32.5936 Q1548.21 32.5936 1544.73 36.4419 Q1541.25 40.2903 1541.25 46.9338 L1541.25 72.576 L1533.75 72.576 L1533.75 9.54393 L1541.25 9.54393 L1541.25 34.2544 Q1543.92 30.163 1547.52 28.1376 Q1551.17 26.1121 1555.91 26.1121 Q1563.73 26.1121 1567.74 30.9732 Q1571.75 35.7938 1571.75 45.1919 Z" fill="#000000" fill-rule="nonzero" fill-opacity="1" /><path clip-path="url(#clip070)" d="M1604.2 32.4315 Q1598.2 32.4315 1594.72 37.1306 Q1591.23 41.7891 1591.23 49.9314 Q1591.23 58.0738 1594.68 62.7728 Q1598.16 67.4314 1604.2 67.4314 Q1610.15 67.4314 1613.64 62.7323 Q1617.12 58.0333 1617.12 49.9314 Q1617.12 41.8701 1613.64 37.1711 Q1610.15 32.4315 1604.2 32.4315 M1604.2 26.1121 Q1613.92 26.1121 1619.47 32.4315 Q1625.02 38.7509 1625.02 49.9314 Q1625.02 61.0714 1619.47 67.4314 Q1613.92 73.7508 1604.2 73.7508 Q1594.43 73.7508 1588.88 67.4314 Q1583.38 61.0714 1583.38 49.9314 Q1583.38 38.7509 1588.88 32.4315 Q1594.43 26.1121 1604.2 26.1121 Z" fill="#000000" fill-rule="nonzero" fill-opacity="1" /><path clip-path="url(#clip070)" d="M1654.95 32.4315 Q1648.96 32.4315 1645.48 37.1306 Q1641.99 41.7891 1641.99 49.9314 Q1641.99 58.0738 1645.44 62.7728 Q1648.92 67.4314 1654.95 67.4314 Q1660.91 67.4314 1664.39 62.7323 Q1667.88 58.0333 1667.88 49.9314 Q1667.88 41.8701 1664.39 37.1711 Q1660.91 32.4315 1654.95 32.4315 M1654.95 26.1121 Q1664.68 26.1121 1670.23 32.4315 Q1675.78 38.7509 1675.78 49.9314 Q1675.78 61.0714 1670.23 67.4314 Q1664.68 73.7508 1654.95 73.7508 Q1645.19 73.7508 1639.64 67.4314 Q1634.13 61.0714 1634.13 49.9314 Q1634.13 38.7509 1639.64 32.4315 Q1645.19 26.1121 1654.95 26.1121 Z" fill="#000000" fill-rule="nonzero" fill-opacity="1" /><path clip-path="url(#clip070)" d="M1717.99 34.0924 L1717.99 9.54393 L1725.44 9.54393 L1725.44 72.576 L1717.99 72.576 L1717.99 65.7705 Q1715.64 69.8214 1712.03 71.8063 Q1708.47 73.7508 1703.44 73.7508 Q1695.22 73.7508 1690.04 67.1883 Q1684.89 60.6258 1684.89 49.9314 Q1684.89 39.2371 1690.04 32.6746 Q1695.22 26.1121 1703.44 26.1121 Q1708.47 26.1121 1712.03 28.0971 Q1715.64 30.0415 1717.99 34.0924 M1692.59 49.9314 Q1692.59 58.1548 1695.95 62.8538 Q1699.35 67.5124 1705.27 67.5124 Q1711.18 67.5124 1714.58 62.8538 Q1717.99 58.1548 1717.99 49.9314 Q1717.99 41.7081 1714.58 37.0496 Q1711.18 32.3505 1705.27 32.3505 Q1699.35 32.3505 1695.95 37.0496 Q1692.59 41.7081 1692.59 49.9314 Z" fill="#000000" fill-rule="nonzero" fill-opacity="1" /><path clip-path="url(#clip070)" d="M1769.72 28.5427 L1769.72 35.5912 Q1766.56 33.9709 1763.15 33.1607 Q1759.75 32.3505 1756.11 32.3505 Q1750.56 32.3505 1747.76 34.0519 Q1745.01 35.7533 1745.01 39.156 Q1745.01 41.7486 1746.99 43.2475 Q1748.98 44.7058 1754.97 46.0426 L1757.52 46.6097 Q1765.46 48.3111 1768.79 51.4303 Q1772.15 54.509 1772.15 60.0587 Q1772.15 66.3781 1767.12 70.0644 Q1762.14 73.7508 1753.39 73.7508 Q1749.75 73.7508 1745.78 73.0216 Q1741.85 72.3329 1737.47 70.9151 L1737.47 63.2184 Q1741.6 65.3654 1745.61 66.4591 Q1749.62 67.5124 1753.55 67.5124 Q1758.82 67.5124 1761.66 65.73 Q1764.49 63.9071 1764.49 60.6258 Q1764.49 57.5877 1762.43 55.9673 Q1760.4 54.3469 1753.47 52.8481 L1750.88 52.2405 Q1743.95 50.7821 1740.87 47.7845 Q1737.8 44.7463 1737.8 39.4801 Q1737.8 33.0797 1742.33 29.5959 Q1746.87 26.1121 1755.21 26.1121 Q1759.35 26.1121 1762.99 26.7198 Q1766.64 27.3274 1769.72 28.5427 Z" fill="#000000" fill-rule="nonzero" fill-opacity="1" /><polyline clip-path="url(#clip072)" style="stroke:#009af9; stroke-linecap:round; stroke-linejoin:round; stroke-width:4; stroke-opacity:1; fill:none" points="309.067,773.326 361.282,763.984 413.497,764.334 465.711,810.286 517.926,835.807 570.141,793.888 622.356,856.252 674.571,1352.7 726.786,1378.29 779.001,1386.4 831.215,1386.4 883.43,1386.4 935.645,1386.4 987.86,1386.4 1040.07,1386.4 1092.29,1386.4 1144.5,1386.4 1196.72,1386.4 1248.93,1386.4 1301.15,1386.4 1353.36,1386.4 1405.58,1386.4 1457.79,1386.4 1510.01,1386.4 1562.22,1386.4 1614.44,1386.4 1666.65,1386.4 1718.87,1386.4 1771.08,1386.4 1823.3,1386.4 1875.51,1386.4 1927.73,1386.4 1979.94,1386.4 2032.16,1386.4 2084.37,1386.4 2136.59,1386.4 2188.8,1386.4 2241.02,1386.4 2293.23,1386.4 "/>
<polyline clip-path="url(#clip072)" style="stroke:#e26f46; stroke-linecap:round; stroke-linejoin:round; stroke-width:4; stroke-opacity:1; fill:none" points="309.067,773.326 361.282,782.668 413.497,782.318 465.711,736.366 517.926,710.845 570.141,752.764 622.356,690.4 674.571,193.952 726.786,168.358 779.001,160.256 831.215,160.256 883.43,160.256 935.645,160.256 987.86,160.256 1040.07,160.256 1092.29,160.256 1144.5,160.256 1196.72,160.256 1248.93,160.256 1301.15,160.256 1353.36,160.256 1405.58,160.256 1457.79,160.256 1510.01,160.256 1562.22,160.256 1614.44,160.256 1666.65,160.256 1718.87,160.256 1771.08,160.256 1823.3,160.256 1875.51,160.256 1927.73,160.256 1979.94,160.256 2032.16,160.256 2084.37,160.256 2136.59,160.256 2188.8,160.256 2241.02,160.256 2293.23,160.256 "/>
<path clip-path="url(#clip070)" d="M319.649 322.316 L778.071 322.316 L778.071 166.796 L319.649 166.796  Z" fill="#ffffff" fill-rule="evenodd" fill-opacity="1"/>
<polyline clip-path="url(#clip070)" style="stroke:#000000; stroke-linecap:round; stroke-linejoin:round; stroke-width:4; stroke-opacity:1; fill:none" points="319.649,322.316 778.071,322.316 778.071,166.796 319.649,166.796 319.649,322.316 "/>
<polyline clip-path="url(#clip070)" style="stroke:#009af9; stroke-linecap:round; stroke-linejoin:round; stroke-width:4; stroke-opacity:1; fill:none" points="343.018,218.636 483.232,218.636 "/>
<path clip-path="url(#clip070)" d="M506.602 201.356 L526.463 201.356 L526.463 205.291 L511.277 205.291 L511.277 215.476 L524.981 215.476 L524.981 219.411 L511.277 219.411 L511.277 235.916 L506.602 235.916 L506.602 201.356 Z" fill="#000000" fill-rule="nonzero" fill-opacity="1" /><path clip-path="url(#clip070)" d="M530.236 209.99 L534.495 209.99 L534.495 235.916 L530.236 235.916 L530.236 209.99 M530.236 199.897 L534.495 199.897 L534.495 205.291 L530.236 205.291 L530.236 199.897 Z" fill="#000000" fill-rule="nonzero" fill-opacity="1" /><path clip-path="url(#clip070)" d="M564.958 209.99 L555.583 222.606 L565.444 235.916 L560.421 235.916 L552.874 225.731 L545.328 235.916 L540.305 235.916 L550.374 222.351 L541.162 209.99 L546.185 209.99 L553.06 219.226 L559.935 209.99 L564.958 209.99 Z" fill="#000000" fill-rule="nonzero" fill-opacity="1" /><path clip-path="url(#clip070)" d="M592.18 221.888 L592.18 223.971 L572.597 223.971 Q572.874 228.369 575.235 230.684 Q577.62 232.976 581.856 232.976 Q584.309 232.976 586.601 232.374 Q588.916 231.772 591.184 230.569 L591.184 234.596 Q588.893 235.568 586.485 236.078 Q584.078 236.587 581.601 236.587 Q575.397 236.587 571.763 232.976 Q568.152 229.365 568.152 223.207 Q568.152 216.842 571.578 213.115 Q575.027 209.365 580.86 209.365 Q586.092 209.365 589.124 212.745 Q592.18 216.101 592.18 221.888 M587.921 220.638 Q587.874 217.143 585.953 215.059 Q584.055 212.976 580.907 212.976 Q577.342 212.976 575.189 214.99 Q573.059 217.004 572.735 220.661 L587.921 220.638 Z" fill="#000000" fill-rule="nonzero" fill-opacity="1" /><path clip-path="url(#clip070)" d="M616.231 213.925 L616.231 199.897 L620.49 199.897 L620.49 235.916 L616.231 235.916 L616.231 232.027 Q614.888 234.342 612.828 235.476 Q610.791 236.587 607.92 236.587 Q603.221 236.587 600.258 232.837 Q597.319 229.087 597.319 222.976 Q597.319 216.865 600.258 213.115 Q603.221 209.365 607.92 209.365 Q610.791 209.365 612.828 210.499 Q614.888 211.61 616.231 213.925 M601.717 222.976 Q601.717 227.675 603.638 230.36 Q605.582 233.022 608.962 233.022 Q612.342 233.022 614.286 230.36 Q616.231 227.675 616.231 222.976 Q616.231 218.277 614.286 215.615 Q612.342 212.93 608.962 212.93 Q605.582 212.93 603.638 215.615 Q601.717 218.277 601.717 222.976 Z" fill="#000000" fill-rule="nonzero" fill-opacity="1" /><path clip-path="url(#clip070)" d="M641.439 201.356 L646.161 201.356 L653.429 230.569 L660.675 201.356 L665.929 201.356 L673.198 230.569 L680.443 201.356 L685.189 201.356 L676.508 235.916 L670.628 235.916 L663.337 205.916 L655.976 235.916 L650.096 235.916 L641.439 201.356 Z" fill="#000000" fill-rule="nonzero" fill-opacity="1" /><path clip-path="url(#clip070)" d="M690.165 209.99 L694.425 209.99 L694.425 235.916 L690.165 235.916 L690.165 209.99 M690.165 199.897 L694.425 199.897 L694.425 205.291 L690.165 205.291 L690.165 199.897 Z" fill="#000000" fill-rule="nonzero" fill-opacity="1" /><path clip-path="url(#clip070)" d="M724.887 220.268 L724.887 235.916 L720.628 235.916 L720.628 220.407 Q720.628 216.726 719.193 214.897 Q717.758 213.069 714.887 213.069 Q711.438 213.069 709.448 215.268 Q707.457 217.467 707.457 221.263 L707.457 235.916 L703.175 235.916 L703.175 209.99 L707.457 209.99 L707.457 214.018 Q708.985 211.68 711.045 210.522 Q713.128 209.365 715.836 209.365 Q720.304 209.365 722.596 212.143 Q724.887 214.897 724.887 220.268 Z" fill="#000000" fill-rule="nonzero" fill-opacity="1" /><path clip-path="url(#clip070)" d="M750.443 222.652 Q750.443 218.022 748.522 215.476 Q746.623 212.93 743.174 212.93 Q739.748 212.93 737.827 215.476 Q735.929 218.022 735.929 222.652 Q735.929 227.258 737.827 229.805 Q739.748 232.351 743.174 232.351 Q746.623 232.351 748.522 229.805 Q750.443 227.258 750.443 222.652 M754.702 232.698 Q754.702 239.318 751.762 242.536 Q748.822 245.777 742.758 245.777 Q740.512 245.777 738.522 245.43 Q736.531 245.105 734.656 244.411 L734.656 240.268 Q736.531 241.286 738.36 241.772 Q740.188 242.258 742.086 242.258 Q746.276 242.258 748.359 240.059 Q750.443 237.883 750.443 233.462 L750.443 231.356 Q749.123 233.647 747.063 234.781 Q745.003 235.916 742.133 235.916 Q737.364 235.916 734.448 232.281 Q731.531 228.647 731.531 222.652 Q731.531 216.633 734.448 212.999 Q737.364 209.365 742.133 209.365 Q745.003 209.365 747.063 210.499 Q749.123 211.633 750.443 213.925 L750.443 209.99 L754.702 209.99 L754.702 232.698 Z" fill="#000000" fill-rule="nonzero" fill-opacity="1" /><polyline clip-path="url(#clip070)" style="stroke:#e26f46; stroke-linecap:round; stroke-linejoin:round; stroke-width:4; stroke-opacity:1; fill:none" points="343.018,270.476 483.232,270.476 "/>
<path clip-path="url(#clip070)" d="M506.602 253.196 L513.569 253.196 L522.388 276.714 L531.254 253.196 L538.222 253.196 L538.222 287.756 L533.662 287.756 L533.662 257.409 L524.75 281.112 L520.051 281.112 L511.139 257.409 L511.139 287.756 L506.602 287.756 L506.602 253.196 Z" fill="#000000" fill-rule="nonzero" fill-opacity="1" /><path clip-path="url(#clip070)" d="M546.879 277.524 L546.879 261.83 L551.138 261.83 L551.138 277.362 Q551.138 281.043 552.573 282.895 Q554.009 284.723 556.879 284.723 Q560.328 284.723 562.319 282.524 Q564.333 280.325 564.333 276.529 L564.333 261.83 L568.592 261.83 L568.592 287.756 L564.333 287.756 L564.333 283.774 Q562.782 286.135 560.722 287.293 Q558.685 288.427 555.976 288.427 Q551.509 288.427 549.194 285.649 Q546.879 282.871 546.879 277.524 M557.597 261.205 L557.597 261.205 Z" fill="#000000" fill-rule="nonzero" fill-opacity="1" /><path clip-path="url(#clip070)" d="M577.365 251.737 L581.624 251.737 L581.624 287.756 L577.365 287.756 L577.365 251.737 Z" fill="#000000" fill-rule="nonzero" fill-opacity="1" /><path clip-path="url(#clip070)" d="M594.749 254.469 L594.749 261.83 L603.522 261.83 L603.522 265.14 L594.749 265.14 L594.749 279.214 Q594.749 282.385 595.606 283.288 Q596.485 284.191 599.147 284.191 L603.522 284.191 L603.522 287.756 L599.147 287.756 Q594.217 287.756 592.342 285.927 Q590.467 284.075 590.467 279.214 L590.467 265.14 L587.342 265.14 L587.342 261.83 L590.467 261.83 L590.467 254.469 L594.749 254.469 Z" fill="#000000" fill-rule="nonzero" fill-opacity="1" /><path clip-path="url(#clip070)" d="M609.124 261.83 L613.383 261.83 L613.383 287.756 L609.124 287.756 L609.124 261.83 M609.124 251.737 L613.383 251.737 L613.383 257.131 L609.124 257.131 L609.124 251.737 Z" fill="#000000" fill-rule="nonzero" fill-opacity="1" /><path clip-path="url(#clip070)" d="M637.318 265.811 Q636.601 265.395 635.744 265.21 Q634.911 265.001 633.892 265.001 Q630.281 265.001 628.337 267.362 Q626.416 269.7 626.416 274.098 L626.416 287.756 L622.133 287.756 L622.133 261.83 L626.416 261.83 L626.416 265.858 Q627.758 263.497 629.911 262.362 Q632.064 261.205 635.142 261.205 Q635.582 261.205 636.115 261.274 Q636.647 261.321 637.295 261.436 L637.318 265.811 Z" fill="#000000" fill-rule="nonzero" fill-opacity="1" /><path clip-path="url(#clip070)" d="M650.791 264.816 Q647.365 264.816 645.374 267.501 Q643.383 270.163 643.383 274.816 Q643.383 279.469 645.351 282.154 Q647.341 284.816 650.791 284.816 Q654.193 284.816 656.184 282.131 Q658.175 279.446 658.175 274.816 Q658.175 270.21 656.184 267.524 Q654.193 264.816 650.791 264.816 M650.791 261.205 Q656.346 261.205 659.517 264.816 Q662.689 268.427 662.689 274.816 Q662.689 281.182 659.517 284.816 Q656.346 288.427 650.791 288.427 Q645.212 288.427 642.041 284.816 Q638.892 281.182 638.892 274.816 Q638.892 268.427 642.041 264.816 Q645.212 261.205 650.791 261.205 Z" fill="#000000" fill-rule="nonzero" fill-opacity="1" /><path clip-path="url(#clip070)" d="M673.962 254.469 L673.962 261.83 L682.735 261.83 L682.735 265.14 L673.962 265.14 L673.962 279.214 Q673.962 282.385 674.818 283.288 Q675.698 284.191 678.36 284.191 L682.735 284.191 L682.735 287.756 L678.36 287.756 Q673.429 287.756 671.554 285.927 Q669.679 284.075 669.679 279.214 L669.679 265.14 L666.554 265.14 L666.554 261.83 L669.679 261.83 L669.679 254.469 L673.962 254.469 Z" fill="#000000" fill-rule="nonzero" fill-opacity="1" /><path clip-path="url(#clip070)" d="M698.383 264.816 Q694.957 264.816 692.966 267.501 Q690.976 270.163 690.976 274.816 Q690.976 279.469 692.943 282.154 Q694.934 284.816 698.383 284.816 Q701.786 284.816 703.776 282.131 Q705.767 279.446 705.767 274.816 Q705.767 270.21 703.776 267.524 Q701.786 264.816 698.383 264.816 M698.383 261.205 Q703.938 261.205 707.11 264.816 Q710.281 268.427 710.281 274.816 Q710.281 281.182 707.11 284.816 Q703.938 288.427 698.383 288.427 Q692.804 288.427 689.633 284.816 Q686.485 281.182 686.485 274.816 Q686.485 268.427 689.633 264.816 Q692.804 261.205 698.383 261.205 Z" fill="#000000" fill-rule="nonzero" fill-opacity="1" /><path clip-path="url(#clip070)" d="M732.364 265.811 Q731.647 265.395 730.79 265.21 Q729.957 265.001 728.938 265.001 Q725.327 265.001 723.383 267.362 Q721.461 269.7 721.461 274.098 L721.461 287.756 L717.179 287.756 L717.179 261.83 L721.461 261.83 L721.461 265.858 Q722.804 263.497 724.957 262.362 Q727.11 261.205 730.188 261.205 Q730.628 261.205 731.16 261.274 Q731.693 261.321 732.341 261.436 L732.364 265.811 Z" fill="#000000" fill-rule="nonzero" fill-opacity="1" /></svg>
