<?xml version="1.0" encoding="utf-8"?>
<svg xmlns="http://www.w3.org/2000/svg" xmlns:xlink="http://www.w3.org/1999/xlink" width="600" height="400" viewBox="0 0 2400 1600">
<defs>
  <clipPath id="clip350">
    <rect x="0" y="0" width="2400" height="1600"/>
  </clipPath>
</defs>
<path clip-path="url(#clip350)" d="M0 1600 L2400 1600 L2400 0 L0 0  Z" fill="#ffffff" fill-rule="evenodd" fill-opacity="1"/>
<defs>
  <clipPath id="clip351">
    <rect x="480" y="0" width="1681" height="1600"/>
  </clipPath>
</defs>
<path clip-path="url(#clip350)" d="M141.853 1423.18 L2352.76 1423.18 L2352.76 123.472 L141.853 123.472  Z" fill="#ffffff" fill-rule="evenodd" fill-opacity="1"/>
<defs>
  <clipPath id="clip352">
    <rect x="141" y="123" width="2212" height="1301"/>
  </clipPath>
</defs>
<polyline clip-path="url(#clip352)" style="stroke:#000000; stroke-linecap:round; stroke-linejoin:round; stroke-width:2; stroke-opacity:0.1; fill:none" points="193.944,1423.18 193.944,123.472 "/>
<polyline clip-path="url(#clip352)" style="stroke:#000000; stroke-linecap:round; stroke-linejoin:round; stroke-width:2; stroke-opacity:0.1; fill:none" points="718.004,1423.18 718.004,123.472 "/>
<polyline clip-path="url(#clip352)" style="stroke:#000000; stroke-linecap:round; stroke-linejoin:round; stroke-width:2; stroke-opacity:0.1; fill:none" points="1242.06,1423.18 1242.06,123.472 "/>
<polyline clip-path="url(#clip352)" style="stroke:#000000; stroke-linecap:round; stroke-linejoin:round; stroke-width:2; stroke-opacity:0.1; fill:none" points="1766.12,1423.18 1766.12,123.472 "/>
<polyline clip-path="url(#clip352)" style="stroke:#000000; stroke-linecap:round; stroke-linejoin:round; stroke-width:2; stroke-opacity:0.1; fill:none" points="2290.18,1423.18 2290.18,123.472 "/>
<polyline clip-path="url(#clip350)" style="stroke:#000000; stroke-linecap:round; stroke-linejoin:round; stroke-width:4; stroke-opacity:1; fill:none" points="141.853,1423.18 2352.76,1423.18 "/>
<polyline clip-path="url(#clip350)" style="stroke:#000000; stroke-linecap:round; stroke-linejoin:round; stroke-width:4; stroke-opacity:1; fill:none" points="193.944,1423.18 193.944,1404.28 "/>
<polyline clip-path="url(#clip350)" style="stroke:#000000; stroke-linecap:round; stroke-linejoin:round; stroke-width:4; stroke-opacity:1; fill:none" points="718.004,1423.18 718.004,1404.28 "/>
<polyline clip-path="url(#clip350)" style="stroke:#000000; stroke-linecap:round; stroke-linejoin:round; stroke-width:4; stroke-opacity:1; fill:none" points="1242.06,1423.18 1242.06,1404.28 "/>
<polyline clip-path="url(#clip350)" style="stroke:#000000; stroke-linecap:round; stroke-linejoin:round; stroke-width:4; stroke-opacity:1; fill:none" points="1766.12,1423.18 1766.12,1404.28 "/>
<polyline clip-path="url(#clip350)" style="stroke:#000000; stroke-linecap:round; stroke-linejoin:round; stroke-width:4; stroke-opacity:1; fill:none" points="2290.18,1423.18 2290.18,1404.28 "/>
<path clip-path="url(#clip350)" d="M193.944 1454.1 Q190.333 1454.1 188.505 1457.66 Q186.699 1461.2 186.699 1468.33 Q186.699 1475.44 188.505 1479.01 Q190.333 1482.55 193.944 1482.55 Q197.579 1482.55 199.384 1479.01 Q201.213 1475.44 201.213 1468.33 Q201.213 1461.2 199.384 1457.66 Q197.579 1454.1 193.944 1454.1 M193.944 1450.39 Q199.755 1450.39 202.81 1455 Q205.889 1459.58 205.889 1468.33 Q205.889 1477.06 202.81 1481.67 Q199.755 1486.25 193.944 1486.25 Q188.134 1486.25 185.056 1481.67 Q182 1477.06 182 1468.33 Q182 1459.58 185.056 1455 Q188.134 1450.39 193.944 1450.39 Z" fill="#000000" fill-rule="nonzero" fill-opacity="1" /><path clip-path="url(#clip350)" d="M692.703 1451.02 L711.06 1451.02 L711.06 1454.96 L696.986 1454.96 L696.986 1463.43 Q698.004 1463.08 699.023 1462.92 Q700.041 1462.73 701.06 1462.73 Q706.847 1462.73 710.226 1465.9 Q713.606 1469.08 713.606 1474.49 Q713.606 1480.07 710.134 1483.17 Q706.662 1486.25 700.342 1486.25 Q698.166 1486.25 695.898 1485.88 Q693.652 1485.51 691.245 1484.77 L691.245 1480.07 Q693.328 1481.2 695.551 1481.76 Q697.773 1482.32 700.25 1482.32 Q704.254 1482.32 706.592 1480.21 Q708.93 1478.1 708.93 1474.49 Q708.93 1470.88 706.592 1468.77 Q704.254 1466.67 700.25 1466.67 Q698.375 1466.67 696.5 1467.08 Q694.648 1467.5 692.703 1468.38 L692.703 1451.02 Z" fill="#000000" fill-rule="nonzero" fill-opacity="1" /><path clip-path="url(#clip350)" d="M732.819 1454.1 Q729.208 1454.1 727.379 1457.66 Q725.574 1461.2 725.574 1468.33 Q725.574 1475.44 727.379 1479.01 Q729.208 1482.55 732.819 1482.55 Q736.453 1482.55 738.259 1479.01 Q740.087 1475.44 740.087 1468.33 Q740.087 1461.2 738.259 1457.66 Q736.453 1454.1 732.819 1454.1 M732.819 1450.39 Q738.629 1450.39 741.685 1455 Q744.763 1459.58 744.763 1468.33 Q744.763 1477.06 741.685 1481.67 Q738.629 1486.25 732.819 1486.25 Q727.009 1486.25 723.93 1481.67 Q720.875 1477.06 720.875 1468.33 Q720.875 1459.58 723.93 1455 Q727.009 1450.39 732.819 1450.39 Z" fill="#000000" fill-rule="nonzero" fill-opacity="1" /><path clip-path="url(#clip350)" d="M1201.67 1481.64 L1209.31 1481.64 L1209.31 1455.28 L1201 1456.95 L1201 1452.69 L1209.26 1451.02 L1213.94 1451.02 L1213.94 1481.64 L1221.58 1481.64 L1221.58 1485.58 L1201.67 1485.58 L1201.67 1481.64 Z" fill="#000000" fill-rule="nonzero" fill-opacity="1" /><path clip-path="url(#clip350)" d="M1241.02 1454.1 Q1237.41 1454.1 1235.58 1457.66 Q1233.78 1461.2 1233.78 1468.33 Q1233.78 1475.44 1235.58 1479.01 Q1237.41 1482.55 1241.02 1482.55 Q1244.66 1482.55 1246.46 1479.01 Q1248.29 1475.44 1248.29 1468.33 Q1248.29 1461.2 1246.46 1457.66 Q1244.66 1454.1 1241.02 1454.1 M1241.02 1450.39 Q1246.83 1450.39 1249.89 1455 Q1252.97 1459.58 1252.97 1468.33 Q1252.97 1477.06 1249.89 1481.67 Q1246.83 1486.25 1241.02 1486.25 Q1235.21 1486.25 1232.13 1481.67 Q1229.08 1477.06 1229.08 1468.33 Q1229.08 1459.58 1232.13 1455 Q1235.21 1450.39 1241.02 1450.39 Z" fill="#000000" fill-rule="nonzero" fill-opacity="1" /><path clip-path="url(#clip350)" d="M1271.18 1454.1 Q1267.57 1454.1 1265.74 1457.66 Q1263.94 1461.2 1263.94 1468.33 Q1263.94 1475.44 1265.74 1479.01 Q1267.57 1482.55 1271.18 1482.55 Q1274.82 1482.55 1276.62 1479.01 Q1278.45 1475.44 1278.45 1468.33 Q1278.45 1461.2 1276.62 1457.66 Q1274.82 1454.1 1271.18 1454.1 M1271.18 1450.39 Q1276.99 1450.39 1280.05 1455 Q1283.13 1459.58 1283.13 1468.33 Q1283.13 1477.06 1280.05 1481.67 Q1276.99 1486.25 1271.18 1486.25 Q1265.37 1486.25 1262.3 1481.67 Q1259.24 1477.06 1259.24 1468.33 Q1259.24 1459.58 1262.3 1455 Q1265.37 1450.39 1271.18 1450.39 Z" fill="#000000" fill-rule="nonzero" fill-opacity="1" /><path clip-path="url(#clip350)" d="M1725.73 1481.64 L1733.37 1481.64 L1733.37 1455.28 L1725.06 1456.95 L1725.06 1452.69 L1733.32 1451.02 L1738 1451.02 L1738 1481.64 L1745.64 1481.64 L1745.64 1485.58 L1725.73 1485.58 L1725.73 1481.64 Z" fill="#000000" fill-rule="nonzero" fill-opacity="1" /><path clip-path="url(#clip350)" d="M1755.13 1451.02 L1773.48 1451.02 L1773.48 1454.96 L1759.41 1454.96 L1759.41 1463.43 Q1760.43 1463.08 1761.45 1462.92 Q1762.47 1462.73 1763.48 1462.73 Q1769.27 1462.73 1772.65 1465.9 Q1776.03 1469.08 1776.03 1474.49 Q1776.03 1480.07 1772.56 1483.17 Q1769.09 1486.25 1762.77 1486.25 Q1760.59 1486.25 1758.32 1485.88 Q1756.08 1485.51 1753.67 1484.77 L1753.67 1480.07 Q1755.75 1481.2 1757.98 1481.76 Q1760.2 1482.32 1762.67 1482.32 Q1766.68 1482.32 1769.02 1480.21 Q1771.35 1478.1 1771.35 1474.49 Q1771.35 1470.88 1769.02 1468.77 Q1766.68 1466.67 1762.67 1466.67 Q1760.8 1466.67 1758.92 1467.08 Q1757.07 1467.5 1755.13 1468.38 L1755.13 1451.02 Z" fill="#000000" fill-rule="nonzero" fill-opacity="1" /><path clip-path="url(#clip350)" d="M1795.24 1454.1 Q1791.63 1454.1 1789.8 1457.66 Q1788 1461.2 1788 1468.33 Q1788 1475.44 1789.8 1479.01 Q1791.63 1482.55 1795.24 1482.55 Q1798.88 1482.55 1800.68 1479.01 Q1802.51 1475.44 1802.51 1468.33 Q1802.51 1461.2 1800.68 1457.66 Q1798.88 1454.1 1795.24 1454.1 M1795.24 1450.39 Q1801.05 1450.39 1804.11 1455 Q1807.19 1459.58 1807.19 1468.33 Q1807.19 1477.06 1804.11 1481.67 Q1801.05 1486.25 1795.24 1486.25 Q1789.43 1486.25 1786.35 1481.67 Q1783.3 1477.06 1783.3 1468.33 Q1783.3 1459.58 1786.35 1455 Q1789.43 1450.39 1795.24 1450.39 Z" fill="#000000" fill-rule="nonzero" fill-opacity="1" /><path clip-path="url(#clip350)" d="M2253.88 1481.64 L2270.19 1481.64 L2270.19 1485.58 L2248.25 1485.58 L2248.25 1481.64 Q2250.91 1478.89 2255.5 1474.26 Q2260.1 1469.61 2261.28 1468.27 Q2263.53 1465.74 2264.41 1464.01 Q2265.31 1462.25 2265.31 1460.56 Q2265.31 1457.8 2263.37 1456.07 Q2261.44 1454.33 2258.34 1454.33 Q2256.14 1454.33 2253.69 1455.09 Q2251.26 1455.86 2248.48 1457.41 L2248.48 1452.69 Q2251.31 1451.55 2253.76 1450.97 Q2256.21 1450.39 2258.25 1450.39 Q2263.62 1450.39 2266.82 1453.08 Q2270.01 1455.77 2270.01 1460.26 Q2270.01 1462.39 2269.2 1464.31 Q2268.41 1466.2 2266.31 1468.8 Q2265.73 1469.47 2262.63 1472.69 Q2259.52 1475.88 2253.88 1481.64 Z" fill="#000000" fill-rule="nonzero" fill-opacity="1" /><path clip-path="url(#clip350)" d="M2290.01 1454.1 Q2286.4 1454.1 2284.57 1457.66 Q2282.76 1461.2 2282.76 1468.33 Q2282.76 1475.44 2284.57 1479.01 Q2286.4 1482.55 2290.01 1482.55 Q2293.64 1482.55 2295.45 1479.01 Q2297.28 1475.44 2297.28 1468.33 Q2297.28 1461.2 2295.45 1457.66 Q2293.64 1454.1 2290.01 1454.1 M2290.01 1450.39 Q2295.82 1450.39 2298.88 1455 Q2301.95 1459.58 2301.95 1468.33 Q2301.95 1477.06 2298.88 1481.67 Q2295.82 1486.25 2290.01 1486.25 Q2284.2 1486.25 2281.12 1481.67 Q2278.07 1477.06 2278.07 1468.33 Q2278.07 1459.58 2281.12 1455 Q2284.2 1450.39 2290.01 1450.39 Z" fill="#000000" fill-rule="nonzero" fill-opacity="1" /><path clip-path="url(#clip350)" d="M2320.17 1454.1 Q2316.56 1454.1 2314.73 1457.66 Q2312.93 1461.2 2312.93 1468.33 Q2312.93 1475.44 2314.73 1479.01 Q2316.56 1482.55 2320.17 1482.55 Q2323.81 1482.55 2325.61 1479.01 Q2327.44 1475.44 2327.44 1468.33 Q2327.44 1461.2 2325.61 1457.66 Q2323.81 1454.1 2320.17 1454.1 M2320.17 1450.39 Q2325.98 1450.39 2329.04 1455 Q2332.12 1459.58 2332.12 1468.33 Q2332.12 1477.06 2329.04 1481.67 Q2325.98 1486.25 2320.17 1486.25 Q2314.36 1486.25 2311.28 1481.67 Q2308.23 1477.06 2308.23 1468.33 Q2308.23 1459.58 2311.28 1455 Q2314.36 1450.39 2320.17 1450.39 Z" fill="#000000" fill-rule="nonzero" fill-opacity="1" /><path clip-path="url(#clip350)" d="M1231.49 1518.52 L1237.37 1518.52 L1237.37 1547.77 L1254.85 1532.4 L1262.33 1532.4 L1243.42 1549.07 L1263.12 1568.04 L1255.48 1568.04 L1237.37 1550.63 L1237.37 1568.04 L1231.49 1568.04 L1231.49 1518.52 Z" fill="#000000" fill-rule="nonzero" fill-opacity="1" /><polyline clip-path="url(#clip352)" style="stroke:#000000; stroke-linecap:round; stroke-linejoin:round; stroke-width:2; stroke-opacity:0.1; fill:none" points="141.853,1395.47 2352.76,1395.47 "/>
<polyline clip-path="url(#clip352)" style="stroke:#000000; stroke-linecap:round; stroke-linejoin:round; stroke-width:2; stroke-opacity:0.1; fill:none" points="141.853,1136.24 2352.76,1136.24 "/>
<polyline clip-path="url(#clip352)" style="stroke:#000000; stroke-linecap:round; stroke-linejoin:round; stroke-width:2; stroke-opacity:0.1; fill:none" points="141.853,877.016 2352.76,877.016 "/>
<polyline clip-path="url(#clip352)" style="stroke:#000000; stroke-linecap:round; stroke-linejoin:round; stroke-width:2; stroke-opacity:0.1; fill:none" points="141.853,617.79 2352.76,617.79 "/>
<polyline clip-path="url(#clip352)" style="stroke:#000000; stroke-linecap:round; stroke-linejoin:round; stroke-width:2; stroke-opacity:0.1; fill:none" points="141.853,358.564 2352.76,358.564 "/>
<polyline clip-path="url(#clip350)" style="stroke:#000000; stroke-linecap:round; stroke-linejoin:round; stroke-width:4; stroke-opacity:1; fill:none" points="141.853,1423.18 141.853,123.472 "/>
<polyline clip-path="url(#clip350)" style="stroke:#000000; stroke-linecap:round; stroke-linejoin:round; stroke-width:4; stroke-opacity:1; fill:none" points="141.853,1395.47 160.751,1395.47 "/>
<polyline clip-path="url(#clip350)" style="stroke:#000000; stroke-linecap:round; stroke-linejoin:round; stroke-width:4; stroke-opacity:1; fill:none" points="141.853,1136.24 160.751,1136.24 "/>
<polyline clip-path="url(#clip350)" style="stroke:#000000; stroke-linecap:round; stroke-linejoin:round; stroke-width:4; stroke-opacity:1; fill:none" points="141.853,877.016 160.751,877.016 "/>
<polyline clip-path="url(#clip350)" style="stroke:#000000; stroke-linecap:round; stroke-linejoin:round; stroke-width:4; stroke-opacity:1; fill:none" points="141.853,617.79 160.751,617.79 "/>
<polyline clip-path="url(#clip350)" style="stroke:#000000; stroke-linecap:round; stroke-linejoin:round; stroke-width:4; stroke-opacity:1; fill:none" points="141.853,358.564 160.751,358.564 "/>
<path clip-path="url(#clip350)" d="M93.9086 1381.27 Q90.2975 1381.27 88.4688 1384.83 Q86.6632 1388.37 86.6632 1395.5 Q86.6632 1402.61 88.4688 1406.17 Q90.2975 1409.72 93.9086 1409.72 Q97.5428 1409.72 99.3483 1406.17 Q101.177 1402.61 101.177 1395.5 Q101.177 1388.37 99.3483 1384.83 Q97.5428 1381.27 93.9086 1381.27 M93.9086 1377.56 Q99.7187 1377.56 102.774 1382.17 Q105.853 1386.75 105.853 1395.5 Q105.853 1404.23 102.774 1408.84 Q99.7187 1413.42 93.9086 1413.42 Q88.0984 1413.42 85.0197 1408.84 Q81.9642 1404.23 81.9642 1395.5 Q81.9642 1386.75 85.0197 1382.17 Q88.0984 1377.56 93.9086 1377.56 Z" fill="#000000" fill-rule="nonzero" fill-opacity="1" /><path clip-path="url(#clip350)" d="M57.7745 1149.59 L74.0939 1149.59 L74.0939 1153.52 L52.1495 1153.52 L52.1495 1149.59 Q54.8115 1146.83 59.3949 1142.2 Q64.0013 1137.55 65.1819 1136.21 Q67.4272 1133.68 68.3068 1131.95 Q69.2096 1130.19 69.2096 1128.5 Q69.2096 1125.74 67.2652 1124.01 Q65.3439 1122.27 62.2421 1122.27 Q60.043 1122.27 57.5893 1123.04 Q55.1588 1123.8 52.381 1125.35 L52.381 1120.63 Q55.2051 1119.49 57.6588 1118.92 Q60.1124 1118.34 62.1495 1118.34 Q67.5198 1118.34 70.7142 1121.02 Q73.9087 1123.71 73.9087 1128.2 Q73.9087 1130.33 73.0985 1132.25 Q72.3115 1134.15 70.205 1136.74 Q69.6263 1137.41 66.5245 1140.63 Q63.4226 1143.82 57.7745 1149.59 Z" fill="#000000" fill-rule="nonzero" fill-opacity="1" /><path clip-path="url(#clip350)" d="M93.9086 1122.04 Q90.2975 1122.04 88.4688 1125.61 Q86.6632 1129.15 86.6632 1136.28 Q86.6632 1143.38 88.4688 1146.95 Q90.2975 1150.49 93.9086 1150.49 Q97.5428 1150.49 99.3483 1146.95 Q101.177 1143.38 101.177 1136.28 Q101.177 1129.15 99.3483 1125.61 Q97.5428 1122.04 93.9086 1122.04 M93.9086 1118.34 Q99.7187 1118.34 102.774 1122.94 Q105.853 1127.53 105.853 1136.28 Q105.853 1145 102.774 1149.61 Q99.7187 1154.19 93.9086 1154.19 Q88.0984 1154.19 85.0197 1149.61 Q81.9642 1145 81.9642 1136.28 Q81.9642 1127.53 85.0197 1122.94 Q88.0984 1118.34 93.9086 1118.34 Z" fill="#000000" fill-rule="nonzero" fill-opacity="1" /><path clip-path="url(#clip350)" d="M66.5939 863.81 L54.7884 882.259 L66.5939 882.259 L66.5939 863.81 M65.367 859.736 L71.2466 859.736 L71.2466 882.259 L76.1772 882.259 L76.1772 886.148 L71.2466 886.148 L71.2466 894.296 L66.5939 894.296 L66.5939 886.148 L50.9921 886.148 L50.9921 881.634 L65.367 859.736 Z" fill="#000000" fill-rule="nonzero" fill-opacity="1" /><path clip-path="url(#clip350)" d="M93.9086 862.815 Q90.2975 862.815 88.4688 866.38 Q86.6632 869.922 86.6632 877.051 Q86.6632 884.158 88.4688 887.722 Q90.2975 891.264 93.9086 891.264 Q97.5428 891.264 99.3483 887.722 Q101.177 884.158 101.177 877.051 Q101.177 869.922 99.3483 866.38 Q97.5428 862.815 93.9086 862.815 M93.9086 859.111 Q99.7187 859.111 102.774 863.718 Q105.853 868.301 105.853 877.051 Q105.853 885.778 102.774 890.384 Q99.7187 894.968 93.9086 894.968 Q88.0984 894.968 85.0197 890.384 Q81.9642 885.778 81.9642 877.051 Q81.9642 868.301 85.0197 863.718 Q88.0984 859.111 93.9086 859.111 Z" fill="#000000" fill-rule="nonzero" fill-opacity="1" /><path clip-path="url(#clip350)" d="M64.3254 615.927 Q61.1773 615.927 59.3254 618.08 Q57.4967 620.232 57.4967 623.982 Q57.4967 627.709 59.3254 629.885 Q61.1773 632.038 64.3254 632.038 Q67.4735 632.038 69.3022 629.885 Q71.1541 627.709 71.1541 623.982 Q71.1541 620.232 69.3022 618.08 Q67.4735 615.927 64.3254 615.927 M73.6077 601.274 L73.6077 605.533 Q71.8485 604.7 70.0429 604.26 Q68.2606 603.821 66.5013 603.821 Q61.8717 603.821 59.418 606.945 Q56.9875 610.07 56.6402 616.39 Q58.006 614.376 60.0662 613.311 Q62.1263 612.223 64.6032 612.223 Q69.8115 612.223 72.8207 615.395 Q75.8531 618.543 75.8531 623.982 Q75.8531 629.306 72.705 632.524 Q69.5568 635.742 64.3254 635.742 Q58.33 635.742 55.1588 631.158 Q51.9875 626.552 51.9875 617.825 Q51.9875 609.631 55.8764 604.77 Q59.7652 599.885 66.3161 599.885 Q68.0754 599.885 69.8578 600.233 Q71.6633 600.58 73.6077 601.274 Z" fill="#000000" fill-rule="nonzero" fill-opacity="1" /><path clip-path="url(#clip350)" d="M93.9086 603.589 Q90.2975 603.589 88.4688 607.154 Q86.6632 610.695 86.6632 617.825 Q86.6632 624.932 88.4688 628.496 Q90.2975 632.038 93.9086 632.038 Q97.5428 632.038 99.3483 628.496 Q101.177 624.932 101.177 617.825 Q101.177 610.695 99.3483 607.154 Q97.5428 603.589 93.9086 603.589 M93.9086 599.885 Q99.7187 599.885 102.774 604.492 Q105.853 609.075 105.853 617.825 Q105.853 626.552 102.774 631.158 Q99.7187 635.742 93.9086 635.742 Q88.0984 635.742 85.0197 631.158 Q81.9642 626.552 81.9642 617.825 Q81.9642 609.075 85.0197 604.492 Q88.0984 599.885 93.9086 599.885 Z" fill="#000000" fill-rule="nonzero" fill-opacity="1" /><path clip-path="url(#clip350)" d="M63.7467 359.432 Q60.4134 359.432 58.4921 361.215 Q56.5939 362.997 56.5939 366.122 Q56.5939 369.247 58.4921 371.029 Q60.4134 372.812 63.7467 372.812 Q67.08 372.812 69.0013 371.029 Q70.9226 369.224 70.9226 366.122 Q70.9226 362.997 69.0013 361.215 Q67.1032 359.432 63.7467 359.432 M59.0708 357.442 Q56.0615 356.701 54.3717 354.641 Q52.7051 352.58 52.7051 349.618 Q52.7051 345.474 55.6449 343.067 Q58.6078 340.659 63.7467 340.659 Q68.9087 340.659 71.8485 343.067 Q74.7883 345.474 74.7883 349.618 Q74.7883 352.58 73.0985 354.641 Q71.4318 356.701 68.4457 357.442 Q71.8253 358.229 73.7003 360.52 Q75.5985 362.812 75.5985 366.122 Q75.5985 371.145 72.5198 373.83 Q69.4642 376.516 63.7467 376.516 Q58.0291 376.516 54.9504 373.83 Q51.8949 371.145 51.8949 366.122 Q51.8949 362.812 53.793 360.52 Q55.6912 358.229 59.0708 357.442 M57.3578 350.057 Q57.3578 352.743 59.0245 354.247 Q60.7143 355.752 63.7467 355.752 Q66.7559 355.752 68.4457 354.247 Q70.1587 352.743 70.1587 350.057 Q70.1587 347.372 68.4457 345.868 Q66.7559 344.363 63.7467 344.363 Q60.7143 344.363 59.0245 345.868 Q57.3578 347.372 57.3578 350.057 Z" fill="#000000" fill-rule="nonzero" fill-opacity="1" /><path clip-path="url(#clip350)" d="M93.9086 344.363 Q90.2975 344.363 88.4688 347.928 Q86.6632 351.469 86.6632 358.599 Q86.6632 365.705 88.4688 369.27 Q90.2975 372.812 93.9086 372.812 Q97.5428 372.812 99.3483 369.27 Q101.177 365.705 101.177 358.599 Q101.177 351.469 99.3483 347.928 Q97.5428 344.363 93.9086 344.363 M93.9086 340.659 Q99.7187 340.659 102.774 345.266 Q105.853 349.849 105.853 358.599 Q105.853 367.326 102.774 371.932 Q99.7187 376.516 93.9086 376.516 Q88.0984 376.516 85.0197 371.932 Q81.9642 367.326 81.9642 358.599 Q81.9642 349.849 85.0197 345.266 Q88.0984 340.659 93.9086 340.659 Z" fill="#000000" fill-rule="nonzero" fill-opacity="1" /><path clip-path="url(#clip350)" d="M730.247 18.8205 L730.247 41.5461 L740.536 41.5461 Q746.248 41.5461 749.367 38.5889 Q752.486 35.6318 752.486 30.163 Q752.486 24.7348 749.367 21.7777 Q746.248 18.8205 740.536 18.8205 L730.247 18.8205 M722.064 12.096 L740.536 12.096 Q750.704 12.096 755.889 16.714 Q761.115 21.2916 761.115 30.163 Q761.115 39.1155 755.889 43.6931 Q750.704 48.2706 740.536 48.2706 L730.247 48.2706 L730.247 72.576 L722.064 72.576 L722.064 12.096 Z" fill="#000000" fill-rule="nonzero" fill-opacity="1" /><path clip-path="url(#clip350)" d="M796.601 34.1734 Q795.345 33.4443 793.846 33.1202 Q792.388 32.7556 790.605 32.7556 Q784.286 32.7556 780.883 36.8875 Q777.521 40.9789 777.521 48.6757 L777.521 72.576 L770.027 72.576 L770.027 27.2059 L777.521 27.2059 L777.521 34.2544 Q779.871 30.1225 783.638 28.1376 Q787.405 26.1121 792.793 26.1121 Q793.563 26.1121 794.494 26.2337 Q795.426 26.3147 796.56 26.5172 L796.601 34.1734 Z" fill="#000000" fill-rule="nonzero" fill-opacity="1" /><path clip-path="url(#clip350)" d="M841.404 48.0275 L841.404 51.6733 L807.133 51.6733 Q807.619 59.3701 811.751 63.421 Q815.924 67.4314 823.337 67.4314 Q827.631 67.4314 831.641 66.3781 Q835.692 65.3249 839.662 63.2184 L839.662 70.267 Q835.652 71.9684 831.439 72.8596 Q827.226 73.7508 822.891 73.7508 Q812.035 73.7508 805.675 67.4314 Q799.355 61.1119 799.355 50.3365 Q799.355 39.1965 805.351 32.6746 Q811.387 26.1121 821.595 26.1121 Q830.75 26.1121 836.057 32.0264 Q841.404 37.9003 841.404 48.0275 M833.95 45.84 Q833.869 39.7232 830.507 36.0774 Q827.185 32.4315 821.676 32.4315 Q815.438 32.4315 811.67 35.9558 Q807.943 39.4801 807.376 45.8805 L833.95 45.84 Z" fill="#000000" fill-rule="nonzero" fill-opacity="1" /><path clip-path="url(#clip350)" d="M886.288 28.9478 L886.288 35.9153 Q883.128 34.1734 879.928 33.3227 Q876.768 32.4315 873.527 32.4315 Q866.276 32.4315 862.266 37.0496 Q858.256 41.6271 858.256 49.9314 Q858.256 58.2358 862.266 62.8538 Q866.276 67.4314 873.527 67.4314 Q876.768 67.4314 879.928 66.5807 Q883.128 65.6895 886.288 63.9476 L886.288 70.8341 Q883.169 72.2924 879.806 73.0216 Q876.485 73.7508 872.717 73.7508 Q862.469 73.7508 856.433 67.3098 Q850.397 60.8689 850.397 49.9314 Q850.397 38.832 856.473 32.472 Q862.59 26.1121 873.203 26.1121 Q876.647 26.1121 879.928 26.8413 Q883.209 27.5299 886.288 28.9478 Z" fill="#000000" fill-rule="nonzero" fill-opacity="1" /><path clip-path="url(#clip350)" d="M938.058 48.0275 L938.058 51.6733 L903.788 51.6733 Q904.274 59.3701 908.406 63.421 Q912.578 67.4314 919.991 67.4314 Q924.285 67.4314 928.296 66.3781 Q932.347 65.3249 936.317 63.2184 L936.317 70.267 Q932.306 71.9684 928.093 72.8596 Q923.88 73.7508 919.546 73.7508 Q908.689 73.7508 902.329 67.4314 Q896.01 61.1119 896.01 50.3365 Q896.01 39.1965 902.005 32.6746 Q908.041 26.1121 918.249 26.1121 Q927.405 26.1121 932.711 32.0264 Q938.058 37.9003 938.058 48.0275 M930.605 45.84 Q930.524 39.7232 927.161 36.0774 Q923.84 32.4315 918.33 32.4315 Q912.092 32.4315 908.325 35.9558 Q904.598 39.4801 904.031 45.8805 L930.605 45.84 Z" fill="#000000" fill-rule="nonzero" fill-opacity="1" /><path clip-path="url(#clip350)" d="M988.006 45.1919 L988.006 72.576 L980.552 72.576 L980.552 45.4349 Q980.552 38.994 978.041 35.7938 Q975.529 32.5936 970.506 32.5936 Q964.47 32.5936 960.987 36.4419 Q957.503 40.2903 957.503 46.9338 L957.503 72.576 L950.009 72.576 L950.009 27.2059 L957.503 27.2059 L957.503 34.2544 Q960.176 30.163 963.782 28.1376 Q967.427 26.1121 972.167 26.1121 Q979.985 26.1121 983.996 30.9732 Q988.006 35.7938 988.006 45.1919 Z" fill="#000000" fill-rule="nonzero" fill-opacity="1" /><path clip-path="url(#clip350)" d="M1010.25 14.324 L1010.25 27.2059 L1025.6 27.2059 L1025.6 32.9987 L1010.25 32.9987 L1010.25 57.6282 Q1010.25 63.1779 1011.74 64.7578 Q1013.28 66.3376 1017.94 66.3376 L1025.6 66.3376 L1025.6 72.576 L1017.94 72.576 Q1009.31 72.576 1006.03 69.3758 Q1002.75 66.1351 1002.75 57.6282 L1002.75 32.9987 L997.283 32.9987 L997.283 27.2059 L1002.75 27.2059 L1002.75 14.324 L1010.25 14.324 Z" fill="#000000" fill-rule="nonzero" fill-opacity="1" /><path clip-path="url(#clip350)" d="M1068.98 65.7705 L1068.98 89.8329 L1061.49 89.8329 L1061.49 27.2059 L1068.98 27.2059 L1068.98 34.0924 Q1071.33 30.0415 1074.9 28.0971 Q1078.5 26.1121 1083.49 26.1121 Q1091.75 26.1121 1096.89 32.6746 Q1102.08 39.2371 1102.08 49.9314 Q1102.08 60.6258 1096.89 67.1883 Q1091.75 73.7508 1083.49 73.7508 Q1078.5 73.7508 1074.9 71.8063 Q1071.33 69.8214 1068.98 65.7705 M1094.34 49.9314 Q1094.34 41.7081 1090.94 37.0496 Q1087.58 32.3505 1081.66 32.3505 Q1075.75 32.3505 1072.35 37.0496 Q1068.98 41.7081 1068.98 49.9314 Q1068.98 58.1548 1072.35 62.8538 Q1075.75 67.5124 1081.66 67.5124 Q1087.58 67.5124 1090.94 62.8538 Q1094.34 58.1548 1094.34 49.9314 Z" fill="#000000" fill-rule="nonzero" fill-opacity="1" /><path clip-path="url(#clip350)" d="M1135.05 49.7694 Q1126.02 49.7694 1122.54 51.8354 Q1119.05 53.9013 1119.05 58.8839 Q1119.05 62.8538 1121.65 65.2034 Q1124.28 67.5124 1128.77 67.5124 Q1134.97 67.5124 1138.7 63.1374 Q1142.47 58.7219 1142.47 51.4303 L1142.47 49.7694 L1135.05 49.7694 M1149.92 46.6907 L1149.92 72.576 L1142.47 72.576 L1142.47 65.6895 Q1139.91 69.8214 1136.11 71.8063 Q1132.3 73.7508 1126.79 73.7508 Q1119.82 73.7508 1115.69 69.8619 Q1111.6 65.9325 1111.6 59.3701 Q1111.6 51.7138 1116.7 47.825 Q1121.85 43.9361 1132.02 43.9361 L1142.47 43.9361 L1142.47 43.2069 Q1142.47 38.0623 1139.06 35.2672 Q1135.7 32.4315 1129.59 32.4315 Q1125.7 32.4315 1122.01 33.3632 Q1118.32 34.295 1114.92 36.1584 L1114.92 29.2718 Q1119.01 27.692 1122.86 26.9223 Q1126.71 26.1121 1130.35 26.1121 Q1140.2 26.1121 1145.06 31.2163 Q1149.92 36.3204 1149.92 46.6907 Z" fill="#000000" fill-rule="nonzero" fill-opacity="1" /><path clip-path="url(#clip350)" d="M1191.56 34.1734 Q1190.31 33.4443 1188.81 33.1202 Q1187.35 32.7556 1185.57 32.7556 Q1179.25 32.7556 1175.85 36.8875 Q1172.48 40.9789 1172.48 48.6757 L1172.48 72.576 L1164.99 72.576 L1164.99 27.2059 L1172.48 27.2059 L1172.48 34.2544 Q1174.83 30.1225 1178.6 28.1376 Q1182.37 26.1121 1187.76 26.1121 Q1188.53 26.1121 1189.46 26.2337 Q1190.39 26.3147 1191.52 26.5172 L1191.56 34.1734 Z" fill="#000000" fill-rule="nonzero" fill-opacity="1" /><path clip-path="url(#clip350)" d="M1206.75 14.324 L1206.75 27.2059 L1222.11 27.2059 L1222.11 32.9987 L1206.75 32.9987 L1206.75 57.6282 Q1206.75 63.1779 1208.25 64.7578 Q1209.79 66.3376 1214.45 66.3376 L1222.11 66.3376 L1222.11 72.576 L1214.45 72.576 Q1205.82 72.576 1202.54 69.3758 Q1199.26 66.1351 1199.26 57.6282 L1199.26 32.9987 L1193.79 32.9987 L1193.79 27.2059 L1199.26 27.2059 L1199.26 14.324 L1206.75 14.324 Z" fill="#000000" fill-rule="nonzero" fill-opacity="1" /><path clip-path="url(#clip350)" d="M1231.91 27.2059 L1239.36 27.2059 L1239.36 72.576 L1231.91 72.576 L1231.91 27.2059 M1231.91 9.54393 L1239.36 9.54393 L1239.36 18.9825 L1231.91 18.9825 L1231.91 9.54393 Z" fill="#000000" fill-rule="nonzero" fill-opacity="1" /><path clip-path="url(#clip350)" d="M1287.61 28.9478 L1287.61 35.9153 Q1284.45 34.1734 1281.25 33.3227 Q1278.09 32.4315 1274.85 32.4315 Q1267.6 32.4315 1263.59 37.0496 Q1259.58 41.6271 1259.58 49.9314 Q1259.58 58.2358 1263.59 62.8538 Q1267.6 67.4314 1274.85 67.4314 Q1278.09 67.4314 1281.25 66.5807 Q1284.45 65.6895 1287.61 63.9476 L1287.61 70.8341 Q1284.49 72.2924 1281.13 73.0216 Q1277.81 73.7508 1274.04 73.7508 Q1263.79 73.7508 1257.76 67.3098 Q1251.72 60.8689 1251.72 49.9314 Q1251.72 38.832 1257.8 32.472 Q1263.91 26.1121 1274.53 26.1121 Q1277.97 26.1121 1281.25 26.8413 Q1284.53 27.5299 1287.61 28.9478 Z" fill="#000000" fill-rule="nonzero" fill-opacity="1" /><path clip-path="url(#clip350)" d="M1300.57 9.54393 L1308.03 9.54393 L1308.03 72.576 L1300.57 72.576 L1300.57 9.54393 Z" fill="#000000" fill-rule="nonzero" fill-opacity="1" /><path clip-path="url(#clip350)" d="M1362.43 48.0275 L1362.43 51.6733 L1328.16 51.6733 Q1328.65 59.3701 1332.78 63.421 Q1336.95 67.4314 1344.36 67.4314 Q1348.66 67.4314 1352.67 66.3781 Q1356.72 65.3249 1360.69 63.2184 L1360.69 70.267 Q1356.68 71.9684 1352.47 72.8596 Q1348.25 73.7508 1343.92 73.7508 Q1333.06 73.7508 1326.7 67.4314 Q1320.38 61.1119 1320.38 50.3365 Q1320.38 39.1965 1326.38 32.6746 Q1332.41 26.1121 1342.62 26.1121 Q1351.78 26.1121 1357.08 32.0264 Q1362.43 37.9003 1362.43 48.0275 M1354.98 45.84 Q1354.9 39.7232 1351.53 36.0774 Q1348.21 32.4315 1342.7 32.4315 Q1336.46 32.4315 1332.7 35.9558 Q1328.97 39.4801 1328.4 45.8805 L1354.98 45.84 Z" fill="#000000" fill-rule="nonzero" fill-opacity="1" /><path clip-path="url(#clip350)" d="M1403.59 28.5427 L1403.59 35.5912 Q1400.43 33.9709 1397.03 33.1607 Q1393.62 32.3505 1389.98 32.3505 Q1384.43 32.3505 1381.63 34.0519 Q1378.88 35.7533 1378.88 39.156 Q1378.88 41.7486 1380.86 43.2475 Q1382.85 44.7058 1388.84 46.0426 L1391.4 46.6097 Q1399.33 48.3111 1402.66 51.4303 Q1406.02 54.509 1406.02 60.0587 Q1406.02 66.3781 1401 70.0644 Q1396.01 73.7508 1387.26 73.7508 Q1383.62 73.7508 1379.65 73.0216 Q1375.72 72.3329 1371.34 70.9151 L1371.34 63.2184 Q1375.48 65.3654 1379.49 66.4591 Q1383.5 67.5124 1387.43 67.5124 Q1392.69 67.5124 1395.53 65.73 Q1398.36 63.9071 1398.36 60.6258 Q1398.36 57.5877 1396.3 55.9673 Q1394.27 54.3469 1387.34 52.8481 L1384.75 52.2405 Q1377.82 50.7821 1374.75 47.7845 Q1371.67 44.7463 1371.67 39.4801 Q1371.67 33.0797 1376.2 29.5959 Q1380.74 26.1121 1389.09 26.1121 Q1393.22 26.1121 1396.86 26.7198 Q1400.51 27.3274 1403.59 28.5427 Z" fill="#000000" fill-rule="nonzero" fill-opacity="1" /><path clip-path="url(#clip350)" d="M1474.11 34.0924 L1474.11 9.54393 L1481.57 9.54393 L1481.57 72.576 L1474.11 72.576 L1474.11 65.7705 Q1471.77 69.8214 1468.16 71.8063 Q1464.59 73.7508 1459.57 73.7508 Q1451.35 73.7508 1446.16 67.1883 Q1441.02 60.6258 1441.02 49.9314 Q1441.02 39.2371 1446.16 32.6746 Q1451.35 26.1121 1459.57 26.1121 Q1464.59 26.1121 1468.16 28.0971 Q1471.77 30.0415 1474.11 34.0924 M1448.72 49.9314 Q1448.72 58.1548 1452.08 62.8538 Q1455.48 67.5124 1461.39 67.5124 Q1467.31 67.5124 1470.71 62.8538 Q1474.11 58.1548 1474.11 49.9314 Q1474.11 41.7081 1470.71 37.0496 Q1467.31 32.3505 1461.39 32.3505 Q1455.48 32.3505 1452.08 37.0496 Q1448.72 41.7081 1448.72 49.9314 Z" fill="#000000" fill-rule="nonzero" fill-opacity="1" /><path clip-path="url(#clip350)" d="M1535.73 48.0275 L1535.73 51.6733 L1501.46 51.6733 Q1501.94 59.3701 1506.08 63.421 Q1510.25 67.4314 1517.66 67.4314 Q1521.96 67.4314 1525.97 66.3781 Q1530.02 65.3249 1533.99 63.2184 L1533.99 70.267 Q1529.98 71.9684 1525.76 72.8596 Q1521.55 73.7508 1517.22 73.7508 Q1506.36 73.7508 1500 67.4314 Q1493.68 61.1119 1493.68 50.3365 Q1493.68 39.1965 1499.68 32.6746 Q1505.71 26.1121 1515.92 26.1121 Q1525.07 26.1121 1530.38 32.0264 Q1535.73 37.9003 1535.73 48.0275 M1528.28 45.84 Q1528.19 39.7232 1524.83 36.0774 Q1521.51 32.4315 1516 32.4315 Q1509.76 32.4315 1506 35.9558 Q1502.27 39.4801 1501.7 45.8805 L1528.28 45.84 Z" fill="#000000" fill-rule="nonzero" fill-opacity="1" /><path clip-path="url(#clip350)" d="M1555.17 65.7705 L1555.17 89.8329 L1547.68 89.8329 L1547.68 27.2059 L1555.17 27.2059 L1555.17 34.0924 Q1557.52 30.0415 1561.09 28.0971 Q1564.69 26.1121 1569.68 26.1121 Q1577.94 26.1121 1583.08 32.6746 Q1588.27 39.2371 1588.27 49.9314 Q1588.27 60.6258 1583.08 67.1883 Q1577.94 73.7508 1569.68 73.7508 Q1564.69 73.7508 1561.09 71.8063 Q1557.52 69.8214 1555.17 65.7705 M1580.53 49.9314 Q1580.53 41.7081 1577.13 37.0496 Q1573.77 32.3505 1567.85 32.3505 Q1561.94 32.3505 1558.54 37.0496 Q1555.17 41.7081 1555.17 49.9314 Q1555.17 58.1548 1558.54 62.8538 Q1561.94 67.5124 1567.85 67.5124 Q1573.77 67.5124 1577.13 62.8538 Q1580.53 58.1548 1580.53 49.9314 Z" fill="#000000" fill-rule="nonzero" fill-opacity="1" /><path clip-path="url(#clip350)" d="M1639.43 48.0275 L1639.43 51.6733 L1605.16 51.6733 Q1605.65 59.3701 1609.78 63.421 Q1613.95 67.4314 1621.36 67.4314 Q1625.66 67.4314 1629.67 66.3781 Q1633.72 65.3249 1637.69 63.2184 L1637.69 70.267 Q1633.68 71.9684 1629.47 72.8596 Q1625.25 73.7508 1620.92 73.7508 Q1610.06 73.7508 1603.7 67.4314 Q1597.38 61.1119 1597.38 50.3365 Q1597.38 39.1965 1603.38 32.6746 Q1609.41 26.1121 1619.62 26.1121 Q1628.78 26.1121 1634.08 32.0264 Q1639.43 37.9003 1639.43 48.0275 M1631.98 45.84 Q1631.9 39.7232 1628.54 36.0774 Q1625.21 32.4315 1619.7 32.4315 Q1613.47 32.4315 1609.7 35.9558 Q1605.97 39.4801 1605.4 45.8805 L1631.98 45.84 Z" fill="#000000" fill-rule="nonzero" fill-opacity="1" /><path clip-path="url(#clip350)" d="M1659.04 14.324 L1659.04 27.2059 L1674.39 27.2059 L1674.39 32.9987 L1659.04 32.9987 L1659.04 57.6282 Q1659.04 63.1779 1660.54 64.7578 Q1662.08 66.3376 1666.74 66.3376 L1674.39 66.3376 L1674.39 72.576 L1666.74 72.576 Q1658.11 72.576 1654.83 69.3758 Q1651.54 66.1351 1651.54 57.6282 L1651.54 32.9987 L1646.08 32.9987 L1646.08 27.2059 L1651.54 27.2059 L1651.54 14.324 L1659.04 14.324 Z" fill="#000000" fill-rule="nonzero" fill-opacity="1" /><path clip-path="url(#clip350)" d="M1723 48.0275 L1723 51.6733 L1688.73 51.6733 Q1689.22 59.3701 1693.35 63.421 Q1697.52 67.4314 1704.94 67.4314 Q1709.23 67.4314 1713.24 66.3781 Q1717.29 65.3249 1721.26 63.2184 L1721.26 70.267 Q1717.25 71.9684 1713.04 72.8596 Q1708.82 73.7508 1704.49 73.7508 Q1693.63 73.7508 1687.27 67.4314 Q1680.95 61.1119 1680.95 50.3365 Q1680.95 39.1965 1686.95 32.6746 Q1692.98 26.1121 1703.19 26.1121 Q1712.35 26.1121 1717.65 32.0264 Q1723 37.9003 1723 48.0275 M1715.55 45.84 Q1715.47 39.7232 1712.11 36.0774 Q1708.78 32.4315 1703.27 32.4315 Q1697.04 32.4315 1693.27 35.9558 Q1689.54 39.4801 1688.97 45.8805 L1715.55 45.84 Z" fill="#000000" fill-rule="nonzero" fill-opacity="1" /><path clip-path="url(#clip350)" d="M1765.09 34.0924 L1765.09 9.54393 L1772.54 9.54393 L1772.54 72.576 L1765.09 72.576 L1765.09 65.7705 Q1762.74 69.8214 1759.14 71.8063 Q1755.57 73.7508 1750.55 73.7508 Q1742.32 73.7508 1737.14 67.1883 Q1732 60.6258 1732 49.9314 Q1732 39.2371 1737.14 32.6746 Q1742.32 26.1121 1750.55 26.1121 Q1755.57 26.1121 1759.14 28.0971 Q1762.74 30.0415 1765.09 34.0924 M1739.69 49.9314 Q1739.69 58.1548 1743.05 62.8538 Q1746.46 67.5124 1752.37 67.5124 Q1758.29 67.5124 1761.69 62.8538 Q1765.09 58.1548 1765.09 49.9314 Q1765.09 41.7081 1761.69 37.0496 Q1758.29 32.3505 1752.37 32.3505 Q1746.46 32.3505 1743.05 37.0496 Q1739.69 41.7081 1739.69 49.9314 Z" fill="#000000" fill-rule="nonzero" fill-opacity="1" /><polyline clip-path="url(#clip352)" style="stroke:#009af9; stroke-linecap:round; stroke-linejoin:round; stroke-width:4; stroke-opacity:1; fill:none" points="204.426,629.456 214.907,1368.25 225.388,1309.92 235.869,1317.7 246.35,1335.85 256.832,1330.66 267.313,1215.31 277.794,1347.51 288.275,1366.95 298.756,1111.62 309.238,1326.77 319.719,200.436 330.2,1326.77 340.681,1366.95 351.162,1353.99 361.644,630.752 372.125,1353.99 382.606,1189.38 393.087,1351.4 403.568,1369.55 414.05,1175.13 424.531,1137.54 435.012,1337.14 445.493,1357.88 455.974,1338.44 466.456,1366.95 476.937,1372.14 487.418,1376.03 497.899,1267.15 508.38,1373.43 518.861,1313.81 529.343,796.656 539.824,1381.21 550.305,1319 560.786,1273.63 571.267,1313.81 581.749,1369.55 592.23,908.124 602.711,1363.07 613.192,1361.77 623.673,1356.58 634.155,1168.65 644.636,1224.38 655.117,1352.7 665.598,1352.7 676.079,1366.95 686.561,1328.07 697.042,1363.07 707.523,1369.55 718.004,1319 728.485,1028.66 738.967,1221.79 749.448,238.024 759.929,1374.73 770.41,1328.07 780.891,1303.44 791.373,1141.43 801.854,1356.58 812.335,1368.25 822.816,1176.42 833.297,1373.43 843.778,668.339 854.26,1315.11 864.741,1357.88 875.222,899.051 885.703,1366.95 896.184,625.567 906.666,1188.09 917.147,1337.14 927.628,1098.65 938.109,1072.73 948.59,1214.01 959.072,1341.03 969.553,1377.32 980.034,1359.18 990.515,1037.74 1001,936.638 1011.48,1295.67 1021.96,1189.38 1032.44,1372.14 1042.92,1256.78 1053.4,989.78 1063.88,1370.84 1074.36,1057.18 1084.85,1111.62 1095.33,1326.77 1105.81,1352.7 1116.29,1221.79 1126.77,1350.1 1137.25,1365.66 1147.73,1229.56 1158.21,795.36 1168.7,1179.01 1179.18,1212.71 1189.66,1289.19 1200.14,1386.4 1210.62,1357.88 1221.1,1359.18 1231.58,1255.49 1242.06,1364.36 1252.55,1300.85 1263.03,1338.44 1273.51,1173.83 1283.99,1360.47 1294.47,680.005 1304.95,1337.14 1315.43,1326.77 1325.91,1369.55 1336.39,1363.07 1346.88,1265.86 1357.36,1110.32 1367.84,1368.25 1378.32,1356.58 1388.8,1325.48 1399.28,1217.9 1409.76,1331.96 1420.24,1013.11 1430.73,1293.07 1441.21,1281.41 1451.69,1369.55 1462.17,1331.96 1472.65,1320.29 1483.13,1097.36 1493.61,1267.15 1504.09,1344.92 1514.57,1050.7 1525.06,1348.81 1535.54,983.299 1546.02,1307.33 1556.5,1372.14 1566.98,1359.18 1577.46,1330.66 1587.94,857.574 1598.42,770.734 1608.91,1220.49 1619.39,1193.27 1629.87,1118.1 1640.35,1309.92 1650.83,407.817 1661.31,1166.05 1671.79,1271.04 1682.27,1098.65 1692.76,1061.07 1703.24,696.854 1713.72,1347.51 1724.2,314.496 1734.68,1378.62 1745.16,1374.73 1755.64,1081.81 1766.12,1102.54 1776.6,1348.81 1787.09,1338.44 1797.57,1366.95 1808.05,1124.58 1818.53,1350.1 1829.01,1322.89 1839.49,1382.51 1849.97,1343.62 1860.45,901.643 1870.94,1195.86 1881.42,1330.66 1891.9,1127.17 1902.38,1352.7 1912.86,1369.55 1923.34,1360.47 1933.82,1366.95 1944.3,818.691 1954.78,1136.24 1965.27,1334.55 1975.75,536.134 1986.23,1355.29 1996.71,1215.31 2007.19,1287.89 2017.67,1020.89 2028.15,1355.29 2038.63,1385.1 2049.12,1098.65 2059.6,1015.7 2070.08,1220.49 2080.56,1337.14 2091.04,1335.85 2101.52,1102.54 2112,1272.34 2122.48,882.201 2132.97,1366.95 2143.45,1273.63 2153.93,1234.75 2164.41,1180.31 2174.89,1372.14 2185.37,784.991 2195.85,1307.33 2206.33,1377.32 2216.81,1206.23 2227.3,1163.46 2237.78,1049.4 2248.26,179.698 2258.74,1374.73 2269.22,1355.29 2279.7,1363.07 2290.18,160.256 "/>
<path clip-path="url(#clip350)" d="M215.55 270.476 L489.07 270.476 L489.07 166.796 L215.55 166.796  Z" fill="#ffffff" fill-rule="evenodd" fill-opacity="1"/>
<polyline clip-path="url(#clip350)" style="stroke:#000000; stroke-linecap:round; stroke-linejoin:round; stroke-width:4; stroke-opacity:1; fill:none" points="215.55,270.476 489.07,270.476 489.07,166.796 215.55,166.796 215.55,270.476 "/>
<polyline clip-path="url(#clip350)" style="stroke:#009af9; stroke-linecap:round; stroke-linejoin:round; stroke-width:4; stroke-opacity:1; fill:none" points="240.115,218.636 387.509,218.636 "/>
<path clip-path="url(#clip350)" d="M425.917 238.323 Q424.111 242.953 422.398 244.365 Q420.685 245.777 417.815 245.777 L414.412 245.777 L414.412 242.212 L416.912 242.212 Q418.672 242.212 419.644 241.379 Q420.616 240.545 421.797 237.443 L422.56 235.499 L412.074 209.99 L416.588 209.99 L424.69 230.268 L432.792 209.99 L437.306 209.99 L425.917 238.323 Z" fill="#000000" fill-rule="nonzero" fill-opacity="1" /><path clip-path="url(#clip350)" d="M444.597 231.981 L452.236 231.981 L452.236 205.615 L443.926 207.282 L443.926 203.022 L452.19 201.356 L456.866 201.356 L456.866 231.981 L464.505 231.981 L464.505 235.916 L444.597 235.916 L444.597 231.981 Z" fill="#000000" fill-rule="nonzero" fill-opacity="1" /></svg>
